G04 #@! TF.GenerationSoftware,KiCad,Pcbnew,5.1.2-f72e74a~84~ubuntu16.04.1*
G04 #@! TF.CreationDate,2019-07-14T12:51:28-04:00*
G04 #@! TF.ProjectId,radiance_controller,72616469-616e-4636-955f-636f6e74726f,rev?*
G04 #@! TF.SameCoordinates,Original*
G04 #@! TF.FileFunction,Copper,L1,Top*
G04 #@! TF.FilePolarity,Positive*
%FSLAX46Y46*%
G04 Gerber Fmt 4.6, Leading zero omitted, Abs format (unit mm)*
G04 Created by KiCad (PCBNEW 5.1.2-f72e74a~84~ubuntu16.04.1) date 2019-07-14 12:51:28*
%MOMM*%
%LPD*%
G04 APERTURE LIST*
%ADD10O,1.700000X1.700000*%
%ADD11R,1.700000X1.700000*%
%ADD12O,1.200000X1.900000*%
%ADD13C,1.450000*%
%ADD14C,2.000000*%
%ADD15R,2.180000X1.600000*%
%ADD16R,1.500000X1.000000*%
%ADD17C,0.812800*%
%ADD18C,0.254000*%
%ADD19C,0.406400*%
%ADD20C,0.203200*%
G04 APERTURE END LIST*
D10*
X85090000Y-52705000D03*
X85090000Y-55245000D03*
X85090000Y-57785000D03*
D11*
X85090000Y-60325000D03*
D10*
X61595000Y-65405000D03*
X61595000Y-67945000D03*
X61595000Y-70485000D03*
D11*
X61595000Y-73025000D03*
D10*
X61595000Y-52705000D03*
X61595000Y-55245000D03*
X61595000Y-57785000D03*
D11*
X61595000Y-60325000D03*
D12*
X72080000Y-52229500D03*
X65080000Y-52229500D03*
D13*
X71080000Y-54929500D03*
X66080000Y-54929500D03*
D14*
X52080000Y-82395000D03*
X85080000Y-78895000D03*
X52080000Y-78895000D03*
D15*
X84600000Y-72390000D03*
X75420000Y-72390000D03*
X84600000Y-66040000D03*
X75420000Y-66040000D03*
D10*
X74930000Y-52705000D03*
X77470000Y-52705000D03*
X80010000Y-52705000D03*
D11*
X82550000Y-52705000D03*
D16*
X66130000Y-67615000D03*
X66130000Y-70815000D03*
X71030000Y-67615000D03*
X71030000Y-70815000D03*
D17*
X80899000Y-54356000D03*
X83185000Y-57785000D03*
X76962000Y-64135000D03*
X72390000Y-53975000D03*
X68453000Y-70485000D03*
X82423000Y-56642000D03*
X68199000Y-57277000D03*
X79756000Y-58293000D03*
X66802000Y-77470000D03*
X73533000Y-67564000D03*
X63499990Y-65405000D03*
X68961000Y-67818000D03*
X67818000Y-67818000D03*
X73406000Y-56134000D03*
X72016554Y-62745554D03*
X73406000Y-57277000D03*
X72049043Y-61671355D03*
X72009000Y-63881000D03*
X63627000Y-62865000D03*
X64516000Y-60579000D03*
X65532003Y-60579000D03*
D18*
X79121000Y-54356000D02*
X77470000Y-52705000D01*
X80899000Y-54356000D02*
X79121000Y-54356000D01*
D19*
X60338599Y-73024999D02*
X58928000Y-71614400D01*
X61595000Y-73025000D02*
X60338599Y-73024999D01*
X61595000Y-61581400D02*
X61595000Y-60325000D01*
X58928000Y-64248400D02*
X61595000Y-61581400D01*
X58928000Y-71614400D02*
X58928000Y-64248400D01*
X66130000Y-68521400D02*
X61626400Y-73025000D01*
X61626400Y-73025000D02*
X61595000Y-73025000D01*
X66130000Y-67615000D02*
X66130000Y-68521400D01*
X85090000Y-61581400D02*
X85090000Y-60325000D01*
X66130000Y-68521400D02*
X66823600Y-69215000D01*
X77368399Y-64541399D02*
X79749200Y-66922200D01*
X76962000Y-64135000D02*
X77368399Y-64541399D01*
X79749200Y-66922200D02*
X85090000Y-61581400D01*
X77456400Y-69215000D02*
X79749200Y-66922200D01*
X77864600Y-54356000D02*
X72771000Y-54356000D01*
X83833600Y-60325000D02*
X77864600Y-54356000D01*
X72771000Y-54356000D02*
X72390000Y-53975000D01*
X85090000Y-60325000D02*
X83833600Y-60325000D01*
D18*
X68453000Y-69910264D02*
X68453000Y-69215000D01*
D19*
X68453000Y-69215000D02*
X77456400Y-69215000D01*
D18*
X68453000Y-70485000D02*
X68453000Y-69910264D01*
D19*
X66823600Y-69215000D02*
X68453000Y-69215000D01*
X82550000Y-56515000D02*
X82423000Y-56642000D01*
X82550000Y-52705000D02*
X82550000Y-56515000D01*
D18*
X65377000Y-78895000D02*
X66802000Y-77470000D01*
X52080000Y-78895000D02*
X65377000Y-78895000D01*
X72465129Y-55984701D02*
X73052431Y-55397399D01*
X73052431Y-55397399D02*
X76987399Y-55397399D01*
X69491299Y-55984701D02*
X72465129Y-55984701D01*
X79756000Y-58166000D02*
X79756000Y-58293000D01*
X68199000Y-57277000D02*
X69491299Y-55984701D01*
X76987399Y-55397399D02*
X79756000Y-58166000D01*
X71081000Y-67564000D02*
X71030000Y-67615000D01*
X73533000Y-67564000D02*
X71081000Y-67564000D01*
X63906389Y-64998601D02*
X63499990Y-65405000D01*
X68036599Y-64871599D02*
X64033391Y-64871599D01*
X64033391Y-64871599D02*
X63906389Y-64998601D01*
X71030000Y-67615000D02*
X70780000Y-67615000D01*
X70780000Y-67615000D02*
X68036599Y-64871599D01*
X67470589Y-66327589D02*
X68961000Y-67818000D01*
X63212411Y-66327589D02*
X67470589Y-66327589D01*
X61595000Y-67945000D02*
X63212411Y-66327589D01*
X67818000Y-67458638D02*
X67818000Y-67818000D01*
X61595000Y-70485000D02*
X61595000Y-70358000D01*
X65168201Y-66784799D02*
X67144161Y-66784799D01*
X61595000Y-70358000D02*
X65168201Y-66784799D01*
X67144161Y-66784799D02*
X67818000Y-67458638D01*
X73406000Y-56134000D02*
X71628000Y-57912000D01*
X71312442Y-58227558D02*
X71312442Y-62041442D01*
X71312442Y-62041442D02*
X72016554Y-62745554D01*
X71628000Y-57912000D02*
X71312442Y-58227558D01*
X73406000Y-60314398D02*
X72049043Y-61671355D01*
X73406000Y-57277000D02*
X73406000Y-60314398D01*
X63627000Y-62865000D02*
X70993000Y-62865000D01*
X70993000Y-62865000D02*
X72009000Y-63881000D01*
X74076000Y-66040000D02*
X75420000Y-66040000D01*
X73077830Y-66040000D02*
X74076000Y-66040000D01*
X71452219Y-64414389D02*
X73077830Y-66040000D01*
X63844009Y-64414389D02*
X71452219Y-64414389D01*
X62890399Y-63460779D02*
X63844009Y-64414389D01*
X62890399Y-61629865D02*
X62890399Y-63460779D01*
X63941264Y-60579000D02*
X62890399Y-61629865D01*
X64516000Y-60579000D02*
X63941264Y-60579000D01*
X73406000Y-72390000D02*
X75420000Y-72390000D01*
X71247000Y-74549000D02*
X73406000Y-72390000D01*
X60325000Y-74549000D02*
X71247000Y-74549000D01*
X58166000Y-72390000D02*
X60325000Y-74549000D01*
X58166000Y-61459638D02*
X58166000Y-72390000D01*
X65532003Y-60004264D02*
X64582739Y-59055000D01*
X64582739Y-59055000D02*
X60570638Y-59055000D01*
X65532003Y-60579000D02*
X65532003Y-60004264D01*
X60570638Y-59055000D02*
X58166000Y-61459638D01*
D20*
G36*
X60949587Y-51395844D02*
G01*
X60706585Y-51546913D01*
X60497724Y-51742486D01*
X60331031Y-51975048D01*
X60212911Y-52235662D01*
X60185090Y-52327393D01*
X60296714Y-52552600D01*
X61442600Y-52552600D01*
X61442600Y-52532600D01*
X61747400Y-52532600D01*
X61747400Y-52552600D01*
X62893286Y-52552600D01*
X62977893Y-52381900D01*
X63870400Y-52381900D01*
X63870400Y-52731900D01*
X63923374Y-52964953D01*
X64020796Y-53183193D01*
X64158923Y-53378234D01*
X64332447Y-53542580D01*
X64534699Y-53669915D01*
X64741761Y-53740847D01*
X64927600Y-53625658D01*
X64927600Y-52381900D01*
X65232400Y-52381900D01*
X65232400Y-53625658D01*
X65418239Y-53740847D01*
X65625301Y-53669915D01*
X65827553Y-53542580D01*
X66001077Y-53378234D01*
X66139204Y-53183193D01*
X66236626Y-52964953D01*
X66289600Y-52731900D01*
X66289600Y-52381900D01*
X65232400Y-52381900D01*
X64927600Y-52381900D01*
X63870400Y-52381900D01*
X62977893Y-52381900D01*
X63004910Y-52327393D01*
X62977089Y-52235662D01*
X62858969Y-51975048D01*
X62692276Y-51742486D01*
X62483415Y-51546913D01*
X62240413Y-51395844D01*
X62005871Y-51307600D01*
X64006604Y-51307600D01*
X63923374Y-51494047D01*
X63870400Y-51727100D01*
X63870400Y-52077100D01*
X64927600Y-52077100D01*
X64927600Y-52057100D01*
X65232400Y-52057100D01*
X65232400Y-52077100D01*
X66289600Y-52077100D01*
X66289600Y-51727100D01*
X66236626Y-51494047D01*
X66153396Y-51307600D01*
X71006604Y-51307600D01*
X70923374Y-51494047D01*
X70870400Y-51727100D01*
X70870400Y-52077100D01*
X71927600Y-52077100D01*
X71927600Y-52057100D01*
X72232400Y-52057100D01*
X72232400Y-52077100D01*
X73289600Y-52077100D01*
X73289600Y-51727100D01*
X73236626Y-51494047D01*
X73153396Y-51307600D01*
X77051145Y-51307600D01*
X77000662Y-51322911D01*
X76740048Y-51441031D01*
X76507486Y-51607724D01*
X76311913Y-51816585D01*
X76160844Y-52059587D01*
X76134072Y-52130744D01*
X76043377Y-51961065D01*
X75876849Y-51758151D01*
X75673935Y-51591623D01*
X75442431Y-51467882D01*
X75191235Y-51391682D01*
X74995459Y-51372400D01*
X74864541Y-51372400D01*
X74668765Y-51391682D01*
X74417569Y-51467882D01*
X74186065Y-51591623D01*
X73983151Y-51758151D01*
X73816623Y-51961065D01*
X73692882Y-52192569D01*
X73616682Y-52443765D01*
X73590953Y-52705000D01*
X73616682Y-52966235D01*
X73692882Y-53217431D01*
X73816623Y-53448935D01*
X73983151Y-53651849D01*
X74005512Y-53670200D01*
X73225994Y-53670200D01*
X73177821Y-53553901D01*
X73080531Y-53408296D01*
X73021554Y-53349319D01*
X73139204Y-53183193D01*
X73236626Y-52964953D01*
X73289600Y-52731900D01*
X73289600Y-52381900D01*
X72232400Y-52381900D01*
X72232400Y-52401900D01*
X71927600Y-52401900D01*
X71927600Y-52381900D01*
X70870400Y-52381900D01*
X70870400Y-52731900D01*
X70923374Y-52964953D01*
X71020796Y-53183193D01*
X71158923Y-53378234D01*
X71332447Y-53542580D01*
X71534699Y-53669915D01*
X71551710Y-53675742D01*
X71550627Y-53678357D01*
X71499409Y-53655714D01*
X71242847Y-53598367D01*
X70980027Y-53592174D01*
X70721049Y-53637374D01*
X70475864Y-53732230D01*
X70420146Y-53762012D01*
X70354192Y-53988166D01*
X71080000Y-54713974D01*
X71094143Y-54699832D01*
X71309669Y-54915358D01*
X71295526Y-54929500D01*
X71309669Y-54943643D01*
X71094143Y-55159169D01*
X71080000Y-55145026D01*
X71065858Y-55159169D01*
X70850332Y-54943643D01*
X70864474Y-54929500D01*
X70138666Y-54203692D01*
X69912512Y-54269646D01*
X69806214Y-54510091D01*
X69748867Y-54766653D01*
X69742674Y-55029473D01*
X69787874Y-55288451D01*
X69821397Y-55375101D01*
X69521240Y-55375101D01*
X69491299Y-55372152D01*
X69371796Y-55383922D01*
X69256886Y-55418780D01*
X69210696Y-55443469D01*
X69150985Y-55475385D01*
X69058161Y-55551563D01*
X69039068Y-55574828D01*
X68225897Y-56388000D01*
X68111441Y-56388000D01*
X67939688Y-56422164D01*
X67777901Y-56489179D01*
X67632296Y-56586469D01*
X67508469Y-56710296D01*
X67411179Y-56855901D01*
X67344164Y-57017688D01*
X67310000Y-57189441D01*
X67310000Y-57364559D01*
X67344164Y-57536312D01*
X67411179Y-57698099D01*
X67508469Y-57843704D01*
X67632296Y-57967531D01*
X67777901Y-58064821D01*
X67939688Y-58131836D01*
X68111441Y-58166000D01*
X68286559Y-58166000D01*
X68458312Y-58131836D01*
X68620099Y-58064821D01*
X68765704Y-57967531D01*
X68889531Y-57843704D01*
X68986821Y-57698099D01*
X69053836Y-57536312D01*
X69088000Y-57364559D01*
X69088000Y-57250103D01*
X69743803Y-56594301D01*
X72083596Y-56594301D01*
X71218124Y-57459773D01*
X71218119Y-57459777D01*
X70902573Y-57775323D01*
X70879304Y-57794420D01*
X70803126Y-57887245D01*
X70746521Y-57993147D01*
X70734886Y-58031502D01*
X70711663Y-58108056D01*
X70699893Y-58227558D01*
X70702842Y-58257500D01*
X70702843Y-62011491D01*
X70699893Y-62041442D01*
X70711663Y-62160944D01*
X70740317Y-62255400D01*
X64274635Y-62255400D01*
X64193704Y-62174469D01*
X64048099Y-62077179D01*
X63886312Y-62010164D01*
X63714559Y-61976000D01*
X63539441Y-61976000D01*
X63499999Y-61983846D01*
X63499999Y-61882368D01*
X64047332Y-61335036D01*
X64094901Y-61366821D01*
X64256688Y-61433836D01*
X64428441Y-61468000D01*
X64603559Y-61468000D01*
X64775312Y-61433836D01*
X64937099Y-61366821D01*
X65024001Y-61308755D01*
X65110904Y-61366821D01*
X65272691Y-61433836D01*
X65444444Y-61468000D01*
X65619562Y-61468000D01*
X65791315Y-61433836D01*
X65953102Y-61366821D01*
X66098707Y-61269531D01*
X66222534Y-61145704D01*
X66319824Y-61000099D01*
X66386839Y-60838312D01*
X66421003Y-60666559D01*
X66421003Y-60491441D01*
X66386839Y-60319688D01*
X66319824Y-60157901D01*
X66222534Y-60012296D01*
X66136910Y-59926672D01*
X66132782Y-59884761D01*
X66108611Y-59805083D01*
X66097924Y-59769852D01*
X66041319Y-59663950D01*
X65965141Y-59571126D01*
X65941876Y-59552033D01*
X65034974Y-58645132D01*
X65015877Y-58621862D01*
X64923053Y-58545684D01*
X64817151Y-58489079D01*
X64702241Y-58454221D01*
X64612680Y-58445400D01*
X64582739Y-58442451D01*
X64552798Y-58445400D01*
X62753027Y-58445400D01*
X62832118Y-58297431D01*
X62908318Y-58046235D01*
X62934047Y-57785000D01*
X62908318Y-57523765D01*
X62832118Y-57272569D01*
X62708377Y-57041065D01*
X62541849Y-56838151D01*
X62338935Y-56671623D01*
X62107431Y-56547882D01*
X61999034Y-56515000D01*
X62107431Y-56482118D01*
X62338935Y-56358377D01*
X62541849Y-56191849D01*
X62708377Y-55988935D01*
X62771503Y-55870834D01*
X65354192Y-55870834D01*
X65420146Y-56096988D01*
X65660591Y-56203286D01*
X65917153Y-56260633D01*
X66179973Y-56266826D01*
X66438951Y-56221626D01*
X66684136Y-56126770D01*
X66739854Y-56096988D01*
X66805808Y-55870834D01*
X66080000Y-55145026D01*
X65354192Y-55870834D01*
X62771503Y-55870834D01*
X62832118Y-55757431D01*
X62908318Y-55506235D01*
X62934047Y-55245000D01*
X62912820Y-55029473D01*
X64742674Y-55029473D01*
X64787874Y-55288451D01*
X64882730Y-55533636D01*
X64912512Y-55589354D01*
X65138666Y-55655308D01*
X65864474Y-54929500D01*
X66295526Y-54929500D01*
X67021334Y-55655308D01*
X67247488Y-55589354D01*
X67353786Y-55348909D01*
X67411133Y-55092347D01*
X67417326Y-54829527D01*
X67372126Y-54570549D01*
X67277270Y-54325364D01*
X67247488Y-54269646D01*
X67021334Y-54203692D01*
X66295526Y-54929500D01*
X65864474Y-54929500D01*
X65138666Y-54203692D01*
X64912512Y-54269646D01*
X64806214Y-54510091D01*
X64748867Y-54766653D01*
X64742674Y-55029473D01*
X62912820Y-55029473D01*
X62908318Y-54983765D01*
X62832118Y-54732569D01*
X62708377Y-54501065D01*
X62541849Y-54298151D01*
X62338935Y-54131623D01*
X62169256Y-54040928D01*
X62240413Y-54014156D01*
X62282219Y-53988166D01*
X65354192Y-53988166D01*
X66080000Y-54713974D01*
X66805808Y-53988166D01*
X66739854Y-53762012D01*
X66499409Y-53655714D01*
X66242847Y-53598367D01*
X65980027Y-53592174D01*
X65721049Y-53637374D01*
X65475864Y-53732230D01*
X65420146Y-53762012D01*
X65354192Y-53988166D01*
X62282219Y-53988166D01*
X62483415Y-53863087D01*
X62692276Y-53667514D01*
X62858969Y-53434952D01*
X62977089Y-53174338D01*
X63004910Y-53082607D01*
X62893286Y-52857400D01*
X61747400Y-52857400D01*
X61747400Y-52877400D01*
X61442600Y-52877400D01*
X61442600Y-52857400D01*
X60296714Y-52857400D01*
X60185090Y-53082607D01*
X60212911Y-53174338D01*
X60331031Y-53434952D01*
X60497724Y-53667514D01*
X60706585Y-53863087D01*
X60949587Y-54014156D01*
X61020744Y-54040928D01*
X60851065Y-54131623D01*
X60648151Y-54298151D01*
X60481623Y-54501065D01*
X60357882Y-54732569D01*
X60281682Y-54983765D01*
X60255953Y-55245000D01*
X60281682Y-55506235D01*
X60357882Y-55757431D01*
X60481623Y-55988935D01*
X60648151Y-56191849D01*
X60851065Y-56358377D01*
X61082569Y-56482118D01*
X61190966Y-56515000D01*
X61082569Y-56547882D01*
X60851065Y-56671623D01*
X60648151Y-56838151D01*
X60481623Y-57041065D01*
X60357882Y-57272569D01*
X60281682Y-57523765D01*
X60255953Y-57785000D01*
X60281682Y-58046235D01*
X60357882Y-58297431D01*
X60443006Y-58456687D01*
X60336225Y-58489079D01*
X60303981Y-58506314D01*
X60230324Y-58545684D01*
X60137500Y-58621862D01*
X60118412Y-58645121D01*
X57756132Y-61007403D01*
X57732862Y-61026500D01*
X57656684Y-61119325D01*
X57600079Y-61225227D01*
X57586617Y-61269606D01*
X57565221Y-61340136D01*
X57553451Y-61459638D01*
X57556400Y-61489580D01*
X57556401Y-72360048D01*
X57553451Y-72390000D01*
X57565221Y-72509502D01*
X57600080Y-72624412D01*
X57656685Y-72730314D01*
X57732863Y-72823138D01*
X57756127Y-72842230D01*
X59872769Y-74958873D01*
X59891862Y-74982138D01*
X59984686Y-75058316D01*
X60090588Y-75114921D01*
X60170639Y-75139205D01*
X60205497Y-75149779D01*
X60324999Y-75161549D01*
X60354941Y-75158600D01*
X71217059Y-75158600D01*
X71247000Y-75161549D01*
X71276941Y-75158600D01*
X71366502Y-75149779D01*
X71481412Y-75114921D01*
X71587314Y-75058316D01*
X71680138Y-74982138D01*
X71699235Y-74958868D01*
X73658504Y-72999600D01*
X73845065Y-72999600D01*
X73845065Y-73190000D01*
X73854383Y-73284606D01*
X73881978Y-73375577D01*
X73926791Y-73459415D01*
X73987099Y-73532901D01*
X74060585Y-73593209D01*
X74144423Y-73638022D01*
X74235394Y-73665617D01*
X74330000Y-73674935D01*
X76510000Y-73674935D01*
X76604606Y-73665617D01*
X76695577Y-73638022D01*
X76779415Y-73593209D01*
X76852901Y-73532901D01*
X76913209Y-73459415D01*
X76958022Y-73375577D01*
X76985617Y-73284606D01*
X76994935Y-73190000D01*
X82897450Y-73190000D01*
X82909220Y-73309503D01*
X82944078Y-73424413D01*
X83000683Y-73530315D01*
X83076862Y-73623138D01*
X83169685Y-73699317D01*
X83275587Y-73755922D01*
X83390497Y-73790780D01*
X83510000Y-73802550D01*
X84295200Y-73799600D01*
X84447600Y-73647200D01*
X84447600Y-72542400D01*
X83052800Y-72542400D01*
X82900400Y-72694800D01*
X82897450Y-73190000D01*
X76994935Y-73190000D01*
X76994935Y-71590000D01*
X82897450Y-71590000D01*
X82900400Y-72085200D01*
X83052800Y-72237600D01*
X84447600Y-72237600D01*
X84447600Y-71132800D01*
X84295200Y-70980400D01*
X83510000Y-70977450D01*
X83390497Y-70989220D01*
X83275587Y-71024078D01*
X83169685Y-71080683D01*
X83076862Y-71156862D01*
X83000683Y-71249685D01*
X82944078Y-71355587D01*
X82909220Y-71470497D01*
X82897450Y-71590000D01*
X76994935Y-71590000D01*
X76985617Y-71495394D01*
X76958022Y-71404423D01*
X76913209Y-71320585D01*
X76852901Y-71247099D01*
X76779415Y-71186791D01*
X76695577Y-71141978D01*
X76604606Y-71114383D01*
X76510000Y-71105065D01*
X74330000Y-71105065D01*
X74235394Y-71114383D01*
X74144423Y-71141978D01*
X74060585Y-71186791D01*
X73987099Y-71247099D01*
X73926791Y-71320585D01*
X73881978Y-71404423D01*
X73854383Y-71495394D01*
X73845065Y-71590000D01*
X73845065Y-71780400D01*
X73435941Y-71780400D01*
X73405999Y-71777451D01*
X73286497Y-71789221D01*
X73251639Y-71799795D01*
X73171588Y-71824079D01*
X73065686Y-71880684D01*
X72972862Y-71956862D01*
X72953769Y-71980127D01*
X70994497Y-73939400D01*
X62923592Y-73939400D01*
X62929935Y-73875000D01*
X62929935Y-72691332D01*
X64895065Y-70726203D01*
X64895065Y-71315000D01*
X64904383Y-71409606D01*
X64931978Y-71500577D01*
X64976791Y-71584415D01*
X65037099Y-71657901D01*
X65110585Y-71718209D01*
X65194423Y-71763022D01*
X65285394Y-71790617D01*
X65380000Y-71799935D01*
X66880000Y-71799935D01*
X66974606Y-71790617D01*
X67065577Y-71763022D01*
X67149415Y-71718209D01*
X67222901Y-71657901D01*
X67283209Y-71584415D01*
X67328022Y-71500577D01*
X67355617Y-71409606D01*
X67364935Y-71315000D01*
X67364935Y-70315000D01*
X67355617Y-70220394D01*
X67328022Y-70129423D01*
X67283209Y-70045585D01*
X67222901Y-69972099D01*
X67149415Y-69911791D01*
X67128853Y-69900800D01*
X67779965Y-69900800D01*
X67762469Y-69918296D01*
X67665179Y-70063901D01*
X67598164Y-70225688D01*
X67564000Y-70397441D01*
X67564000Y-70572559D01*
X67598164Y-70744312D01*
X67665179Y-70906099D01*
X67762469Y-71051704D01*
X67886296Y-71175531D01*
X68031901Y-71272821D01*
X68193688Y-71339836D01*
X68365441Y-71374000D01*
X68540559Y-71374000D01*
X68712312Y-71339836D01*
X68772270Y-71315000D01*
X69667450Y-71315000D01*
X69679220Y-71434503D01*
X69714078Y-71549413D01*
X69770683Y-71655315D01*
X69846862Y-71748138D01*
X69939685Y-71824317D01*
X70045587Y-71880922D01*
X70160497Y-71915780D01*
X70280000Y-71927550D01*
X70725200Y-71924600D01*
X70877600Y-71772200D01*
X70877600Y-70967400D01*
X71182400Y-70967400D01*
X71182400Y-71772200D01*
X71334800Y-71924600D01*
X71780000Y-71927550D01*
X71899503Y-71915780D01*
X72014413Y-71880922D01*
X72120315Y-71824317D01*
X72213138Y-71748138D01*
X72289317Y-71655315D01*
X72345922Y-71549413D01*
X72380780Y-71434503D01*
X72392550Y-71315000D01*
X72389600Y-71119800D01*
X72237200Y-70967400D01*
X71182400Y-70967400D01*
X70877600Y-70967400D01*
X69822800Y-70967400D01*
X69670400Y-71119800D01*
X69667450Y-71315000D01*
X68772270Y-71315000D01*
X68874099Y-71272821D01*
X69019704Y-71175531D01*
X69143531Y-71051704D01*
X69240821Y-70906099D01*
X69307836Y-70744312D01*
X69342000Y-70572559D01*
X69342000Y-70397441D01*
X69307836Y-70225688D01*
X69240821Y-70063901D01*
X69143531Y-69918296D01*
X69126035Y-69900800D01*
X69831320Y-69900800D01*
X69770683Y-69974685D01*
X69714078Y-70080587D01*
X69679220Y-70195497D01*
X69667450Y-70315000D01*
X69670400Y-70510200D01*
X69822800Y-70662600D01*
X70877600Y-70662600D01*
X70877600Y-70642600D01*
X71182400Y-70642600D01*
X71182400Y-70662600D01*
X72237200Y-70662600D01*
X72389600Y-70510200D01*
X72392550Y-70315000D01*
X72380780Y-70195497D01*
X72345922Y-70080587D01*
X72289317Y-69974685D01*
X72228680Y-69900800D01*
X77422721Y-69900800D01*
X77456400Y-69904117D01*
X77490079Y-69900800D01*
X77490089Y-69900800D01*
X77590840Y-69890877D01*
X77720114Y-69851662D01*
X77839253Y-69787981D01*
X77943680Y-69702280D01*
X77965158Y-69676109D01*
X80210324Y-67430944D01*
X80236479Y-67409479D01*
X80257944Y-67383324D01*
X80257955Y-67383313D01*
X80257960Y-67383307D01*
X80801267Y-66840000D01*
X82897450Y-66840000D01*
X82909220Y-66959503D01*
X82944078Y-67074413D01*
X83000683Y-67180315D01*
X83076862Y-67273138D01*
X83169685Y-67349317D01*
X83275587Y-67405922D01*
X83390497Y-67440780D01*
X83510000Y-67452550D01*
X84295200Y-67449600D01*
X84447600Y-67297200D01*
X84447600Y-66192400D01*
X83052800Y-66192400D01*
X82900400Y-66344800D01*
X82897450Y-66840000D01*
X80801267Y-66840000D01*
X82401267Y-65240000D01*
X82897450Y-65240000D01*
X82900400Y-65735200D01*
X83052800Y-65887600D01*
X84447600Y-65887600D01*
X84447600Y-64782800D01*
X84295200Y-64630400D01*
X83510000Y-64627450D01*
X83390497Y-64639220D01*
X83275587Y-64674078D01*
X83169685Y-64730683D01*
X83076862Y-64806862D01*
X83000683Y-64899685D01*
X82944078Y-65005587D01*
X82909220Y-65120497D01*
X82897450Y-65240000D01*
X82401267Y-65240000D01*
X85551114Y-62090153D01*
X85577279Y-62068680D01*
X85662981Y-61964253D01*
X85726662Y-61845114D01*
X85765877Y-61715840D01*
X85771383Y-61659935D01*
X85852400Y-61659935D01*
X85852400Y-64652233D01*
X85809503Y-64639220D01*
X85690000Y-64627450D01*
X84904800Y-64630400D01*
X84752400Y-64782800D01*
X84752400Y-65887600D01*
X84772400Y-65887600D01*
X84772400Y-66192400D01*
X84752400Y-66192400D01*
X84752400Y-67297200D01*
X84904800Y-67449600D01*
X85690000Y-67452550D01*
X85809503Y-67440780D01*
X85852400Y-67427767D01*
X85852401Y-71002233D01*
X85809503Y-70989220D01*
X85690000Y-70977450D01*
X84904800Y-70980400D01*
X84752400Y-71132800D01*
X84752400Y-72237600D01*
X84772400Y-72237600D01*
X84772400Y-72542400D01*
X84752400Y-72542400D01*
X84752400Y-73647200D01*
X84904800Y-73799600D01*
X85690000Y-73802550D01*
X85809503Y-73790780D01*
X85852401Y-73777767D01*
X85852401Y-77479117D01*
X85615722Y-77368912D01*
X85307703Y-77293721D01*
X84990934Y-77280066D01*
X84677587Y-77328473D01*
X84379705Y-77437080D01*
X84256847Y-77502749D01*
X84157481Y-77756955D01*
X85080000Y-78679474D01*
X85094143Y-78665332D01*
X85309669Y-78880858D01*
X85295526Y-78895000D01*
X85309669Y-78909143D01*
X85094143Y-79124669D01*
X85080000Y-79110526D01*
X84157481Y-80033045D01*
X84256847Y-80287251D01*
X84544278Y-80421088D01*
X84852297Y-80496279D01*
X85169066Y-80509934D01*
X85482413Y-80461527D01*
X85780295Y-80352920D01*
X85852401Y-80314379D01*
X85852401Y-85852400D01*
X82107181Y-85852400D01*
X82215098Y-85744483D01*
X82360935Y-85526223D01*
X82461389Y-85283705D01*
X82512600Y-85026250D01*
X82512600Y-84763750D01*
X82461389Y-84506295D01*
X82360935Y-84263777D01*
X82215098Y-84045517D01*
X82029483Y-83859902D01*
X81811223Y-83714065D01*
X81568705Y-83613611D01*
X81311250Y-83562400D01*
X81048750Y-83562400D01*
X80791295Y-83613611D01*
X80548777Y-83714065D01*
X80330517Y-83859902D01*
X80144902Y-84045517D01*
X79999065Y-84263777D01*
X79898611Y-84506295D01*
X79847400Y-84763750D01*
X79847400Y-85026250D01*
X79898611Y-85283705D01*
X79999065Y-85526223D01*
X80144902Y-85744483D01*
X80252819Y-85852400D01*
X56907181Y-85852400D01*
X57015098Y-85744483D01*
X57160935Y-85526223D01*
X57261389Y-85283705D01*
X57312600Y-85026250D01*
X57312600Y-84763750D01*
X57261389Y-84506295D01*
X57160935Y-84263777D01*
X57015098Y-84045517D01*
X56829483Y-83859902D01*
X56611223Y-83714065D01*
X56368705Y-83613611D01*
X56111250Y-83562400D01*
X55848750Y-83562400D01*
X55591295Y-83613611D01*
X55348777Y-83714065D01*
X55130517Y-83859902D01*
X54944902Y-84045517D01*
X54799065Y-84263777D01*
X54698611Y-84506295D01*
X54647400Y-84763750D01*
X54647400Y-85026250D01*
X54698611Y-85283705D01*
X54799065Y-85526223D01*
X54944902Y-85744483D01*
X55052819Y-85852400D01*
X51307600Y-85852400D01*
X51307600Y-83662007D01*
X51377725Y-83708863D01*
X51647541Y-83820625D01*
X51933977Y-83877600D01*
X52226023Y-83877600D01*
X52512459Y-83820625D01*
X52782275Y-83708863D01*
X53025103Y-83546611D01*
X53231611Y-83340103D01*
X53393863Y-83097275D01*
X53505625Y-82827459D01*
X53562600Y-82541023D01*
X53562600Y-82248977D01*
X53505625Y-81962541D01*
X53393863Y-81692725D01*
X53231611Y-81449897D01*
X53025103Y-81243389D01*
X52782275Y-81081137D01*
X52512459Y-80969375D01*
X52226023Y-80912400D01*
X51933977Y-80912400D01*
X51647541Y-80969375D01*
X51377725Y-81081137D01*
X51307600Y-81127993D01*
X51307600Y-80162007D01*
X51377725Y-80208863D01*
X51647541Y-80320625D01*
X51933977Y-80377600D01*
X52226023Y-80377600D01*
X52512459Y-80320625D01*
X52782275Y-80208863D01*
X53025103Y-80046611D01*
X53231611Y-79840103D01*
X53393863Y-79597275D01*
X53432250Y-79504600D01*
X65347059Y-79504600D01*
X65377000Y-79507549D01*
X65406941Y-79504600D01*
X65496502Y-79495779D01*
X65611412Y-79460921D01*
X65717314Y-79404316D01*
X65810138Y-79328138D01*
X65829235Y-79304868D01*
X66150037Y-78984066D01*
X83465066Y-78984066D01*
X83513473Y-79297413D01*
X83622080Y-79595295D01*
X83687749Y-79718153D01*
X83941955Y-79817519D01*
X84864474Y-78895000D01*
X83941955Y-77972481D01*
X83687749Y-78071847D01*
X83553912Y-78359278D01*
X83478721Y-78667297D01*
X83465066Y-78984066D01*
X66150037Y-78984066D01*
X66775104Y-78359000D01*
X66889559Y-78359000D01*
X67061312Y-78324836D01*
X67223099Y-78257821D01*
X67368704Y-78160531D01*
X67492531Y-78036704D01*
X67589821Y-77891099D01*
X67656836Y-77729312D01*
X67691000Y-77557559D01*
X67691000Y-77382441D01*
X67656836Y-77210688D01*
X67589821Y-77048901D01*
X67492531Y-76903296D01*
X67368704Y-76779469D01*
X67223099Y-76682179D01*
X67061312Y-76615164D01*
X66889559Y-76581000D01*
X66714441Y-76581000D01*
X66542688Y-76615164D01*
X66380901Y-76682179D01*
X66235296Y-76779469D01*
X66111469Y-76903296D01*
X66014179Y-77048901D01*
X65947164Y-77210688D01*
X65913000Y-77382441D01*
X65913000Y-77496896D01*
X65124497Y-78285400D01*
X53432250Y-78285400D01*
X53393863Y-78192725D01*
X53231611Y-77949897D01*
X53025103Y-77743389D01*
X52782275Y-77581137D01*
X52512459Y-77469375D01*
X52226023Y-77412400D01*
X51933977Y-77412400D01*
X51647541Y-77469375D01*
X51377725Y-77581137D01*
X51307600Y-77627993D01*
X51307600Y-76263750D01*
X55847400Y-76263750D01*
X55847400Y-76526250D01*
X55898611Y-76783705D01*
X55999065Y-77026223D01*
X56144902Y-77244483D01*
X56330517Y-77430098D01*
X56548777Y-77575935D01*
X56791295Y-77676389D01*
X57048750Y-77727600D01*
X57311250Y-77727600D01*
X57568705Y-77676389D01*
X57811223Y-77575935D01*
X58029483Y-77430098D01*
X58215098Y-77244483D01*
X58360935Y-77026223D01*
X58461389Y-76783705D01*
X58512600Y-76526250D01*
X58512600Y-76263750D01*
X78647400Y-76263750D01*
X78647400Y-76526250D01*
X78698611Y-76783705D01*
X78799065Y-77026223D01*
X78944902Y-77244483D01*
X79130517Y-77430098D01*
X79348777Y-77575935D01*
X79591295Y-77676389D01*
X79848750Y-77727600D01*
X80111250Y-77727600D01*
X80368705Y-77676389D01*
X80611223Y-77575935D01*
X80829483Y-77430098D01*
X81015098Y-77244483D01*
X81160935Y-77026223D01*
X81261389Y-76783705D01*
X81312600Y-76526250D01*
X81312600Y-76263750D01*
X81261389Y-76006295D01*
X81160935Y-75763777D01*
X81015098Y-75545517D01*
X80829483Y-75359902D01*
X80611223Y-75214065D01*
X80368705Y-75113611D01*
X80111250Y-75062400D01*
X79848750Y-75062400D01*
X79591295Y-75113611D01*
X79348777Y-75214065D01*
X79130517Y-75359902D01*
X78944902Y-75545517D01*
X78799065Y-75763777D01*
X78698611Y-76006295D01*
X78647400Y-76263750D01*
X58512600Y-76263750D01*
X58461389Y-76006295D01*
X58360935Y-75763777D01*
X58215098Y-75545517D01*
X58029483Y-75359902D01*
X57811223Y-75214065D01*
X57568705Y-75113611D01*
X57311250Y-75062400D01*
X57048750Y-75062400D01*
X56791295Y-75113611D01*
X56548777Y-75214065D01*
X56330517Y-75359902D01*
X56144902Y-75545517D01*
X55999065Y-75763777D01*
X55898611Y-76006295D01*
X55847400Y-76263750D01*
X51307600Y-76263750D01*
X51307600Y-69059127D01*
X53027400Y-69059127D01*
X53027400Y-69370873D01*
X53088218Y-69676628D01*
X53207518Y-69964642D01*
X53380714Y-70223849D01*
X53601151Y-70444286D01*
X53860358Y-70617482D01*
X54148372Y-70736782D01*
X54454127Y-70797600D01*
X54765873Y-70797600D01*
X55071628Y-70736782D01*
X55359642Y-70617482D01*
X55618849Y-70444286D01*
X55839286Y-70223849D01*
X56012482Y-69964642D01*
X56131782Y-69676628D01*
X56192600Y-69370873D01*
X56192600Y-69059127D01*
X56131782Y-68753372D01*
X56012482Y-68465358D01*
X55839286Y-68206151D01*
X55618849Y-67985714D01*
X55359642Y-67812518D01*
X55071628Y-67693218D01*
X54765873Y-67632400D01*
X54454127Y-67632400D01*
X54148372Y-67693218D01*
X53860358Y-67812518D01*
X53601151Y-67985714D01*
X53380714Y-68206151D01*
X53207518Y-68465358D01*
X53088218Y-68753372D01*
X53027400Y-69059127D01*
X51307600Y-69059127D01*
X51307600Y-51307600D01*
X61184129Y-51307600D01*
X60949587Y-51395844D01*
X60949587Y-51395844D01*
G37*
X60949587Y-51395844D02*
X60706585Y-51546913D01*
X60497724Y-51742486D01*
X60331031Y-51975048D01*
X60212911Y-52235662D01*
X60185090Y-52327393D01*
X60296714Y-52552600D01*
X61442600Y-52552600D01*
X61442600Y-52532600D01*
X61747400Y-52532600D01*
X61747400Y-52552600D01*
X62893286Y-52552600D01*
X62977893Y-52381900D01*
X63870400Y-52381900D01*
X63870400Y-52731900D01*
X63923374Y-52964953D01*
X64020796Y-53183193D01*
X64158923Y-53378234D01*
X64332447Y-53542580D01*
X64534699Y-53669915D01*
X64741761Y-53740847D01*
X64927600Y-53625658D01*
X64927600Y-52381900D01*
X65232400Y-52381900D01*
X65232400Y-53625658D01*
X65418239Y-53740847D01*
X65625301Y-53669915D01*
X65827553Y-53542580D01*
X66001077Y-53378234D01*
X66139204Y-53183193D01*
X66236626Y-52964953D01*
X66289600Y-52731900D01*
X66289600Y-52381900D01*
X65232400Y-52381900D01*
X64927600Y-52381900D01*
X63870400Y-52381900D01*
X62977893Y-52381900D01*
X63004910Y-52327393D01*
X62977089Y-52235662D01*
X62858969Y-51975048D01*
X62692276Y-51742486D01*
X62483415Y-51546913D01*
X62240413Y-51395844D01*
X62005871Y-51307600D01*
X64006604Y-51307600D01*
X63923374Y-51494047D01*
X63870400Y-51727100D01*
X63870400Y-52077100D01*
X64927600Y-52077100D01*
X64927600Y-52057100D01*
X65232400Y-52057100D01*
X65232400Y-52077100D01*
X66289600Y-52077100D01*
X66289600Y-51727100D01*
X66236626Y-51494047D01*
X66153396Y-51307600D01*
X71006604Y-51307600D01*
X70923374Y-51494047D01*
X70870400Y-51727100D01*
X70870400Y-52077100D01*
X71927600Y-52077100D01*
X71927600Y-52057100D01*
X72232400Y-52057100D01*
X72232400Y-52077100D01*
X73289600Y-52077100D01*
X73289600Y-51727100D01*
X73236626Y-51494047D01*
X73153396Y-51307600D01*
X77051145Y-51307600D01*
X77000662Y-51322911D01*
X76740048Y-51441031D01*
X76507486Y-51607724D01*
X76311913Y-51816585D01*
X76160844Y-52059587D01*
X76134072Y-52130744D01*
X76043377Y-51961065D01*
X75876849Y-51758151D01*
X75673935Y-51591623D01*
X75442431Y-51467882D01*
X75191235Y-51391682D01*
X74995459Y-51372400D01*
X74864541Y-51372400D01*
X74668765Y-51391682D01*
X74417569Y-51467882D01*
X74186065Y-51591623D01*
X73983151Y-51758151D01*
X73816623Y-51961065D01*
X73692882Y-52192569D01*
X73616682Y-52443765D01*
X73590953Y-52705000D01*
X73616682Y-52966235D01*
X73692882Y-53217431D01*
X73816623Y-53448935D01*
X73983151Y-53651849D01*
X74005512Y-53670200D01*
X73225994Y-53670200D01*
X73177821Y-53553901D01*
X73080531Y-53408296D01*
X73021554Y-53349319D01*
X73139204Y-53183193D01*
X73236626Y-52964953D01*
X73289600Y-52731900D01*
X73289600Y-52381900D01*
X72232400Y-52381900D01*
X72232400Y-52401900D01*
X71927600Y-52401900D01*
X71927600Y-52381900D01*
X70870400Y-52381900D01*
X70870400Y-52731900D01*
X70923374Y-52964953D01*
X71020796Y-53183193D01*
X71158923Y-53378234D01*
X71332447Y-53542580D01*
X71534699Y-53669915D01*
X71551710Y-53675742D01*
X71550627Y-53678357D01*
X71499409Y-53655714D01*
X71242847Y-53598367D01*
X70980027Y-53592174D01*
X70721049Y-53637374D01*
X70475864Y-53732230D01*
X70420146Y-53762012D01*
X70354192Y-53988166D01*
X71080000Y-54713974D01*
X71094143Y-54699832D01*
X71309669Y-54915358D01*
X71295526Y-54929500D01*
X71309669Y-54943643D01*
X71094143Y-55159169D01*
X71080000Y-55145026D01*
X71065858Y-55159169D01*
X70850332Y-54943643D01*
X70864474Y-54929500D01*
X70138666Y-54203692D01*
X69912512Y-54269646D01*
X69806214Y-54510091D01*
X69748867Y-54766653D01*
X69742674Y-55029473D01*
X69787874Y-55288451D01*
X69821397Y-55375101D01*
X69521240Y-55375101D01*
X69491299Y-55372152D01*
X69371796Y-55383922D01*
X69256886Y-55418780D01*
X69210696Y-55443469D01*
X69150985Y-55475385D01*
X69058161Y-55551563D01*
X69039068Y-55574828D01*
X68225897Y-56388000D01*
X68111441Y-56388000D01*
X67939688Y-56422164D01*
X67777901Y-56489179D01*
X67632296Y-56586469D01*
X67508469Y-56710296D01*
X67411179Y-56855901D01*
X67344164Y-57017688D01*
X67310000Y-57189441D01*
X67310000Y-57364559D01*
X67344164Y-57536312D01*
X67411179Y-57698099D01*
X67508469Y-57843704D01*
X67632296Y-57967531D01*
X67777901Y-58064821D01*
X67939688Y-58131836D01*
X68111441Y-58166000D01*
X68286559Y-58166000D01*
X68458312Y-58131836D01*
X68620099Y-58064821D01*
X68765704Y-57967531D01*
X68889531Y-57843704D01*
X68986821Y-57698099D01*
X69053836Y-57536312D01*
X69088000Y-57364559D01*
X69088000Y-57250103D01*
X69743803Y-56594301D01*
X72083596Y-56594301D01*
X71218124Y-57459773D01*
X71218119Y-57459777D01*
X70902573Y-57775323D01*
X70879304Y-57794420D01*
X70803126Y-57887245D01*
X70746521Y-57993147D01*
X70734886Y-58031502D01*
X70711663Y-58108056D01*
X70699893Y-58227558D01*
X70702842Y-58257500D01*
X70702843Y-62011491D01*
X70699893Y-62041442D01*
X70711663Y-62160944D01*
X70740317Y-62255400D01*
X64274635Y-62255400D01*
X64193704Y-62174469D01*
X64048099Y-62077179D01*
X63886312Y-62010164D01*
X63714559Y-61976000D01*
X63539441Y-61976000D01*
X63499999Y-61983846D01*
X63499999Y-61882368D01*
X64047332Y-61335036D01*
X64094901Y-61366821D01*
X64256688Y-61433836D01*
X64428441Y-61468000D01*
X64603559Y-61468000D01*
X64775312Y-61433836D01*
X64937099Y-61366821D01*
X65024001Y-61308755D01*
X65110904Y-61366821D01*
X65272691Y-61433836D01*
X65444444Y-61468000D01*
X65619562Y-61468000D01*
X65791315Y-61433836D01*
X65953102Y-61366821D01*
X66098707Y-61269531D01*
X66222534Y-61145704D01*
X66319824Y-61000099D01*
X66386839Y-60838312D01*
X66421003Y-60666559D01*
X66421003Y-60491441D01*
X66386839Y-60319688D01*
X66319824Y-60157901D01*
X66222534Y-60012296D01*
X66136910Y-59926672D01*
X66132782Y-59884761D01*
X66108611Y-59805083D01*
X66097924Y-59769852D01*
X66041319Y-59663950D01*
X65965141Y-59571126D01*
X65941876Y-59552033D01*
X65034974Y-58645132D01*
X65015877Y-58621862D01*
X64923053Y-58545684D01*
X64817151Y-58489079D01*
X64702241Y-58454221D01*
X64612680Y-58445400D01*
X64582739Y-58442451D01*
X64552798Y-58445400D01*
X62753027Y-58445400D01*
X62832118Y-58297431D01*
X62908318Y-58046235D01*
X62934047Y-57785000D01*
X62908318Y-57523765D01*
X62832118Y-57272569D01*
X62708377Y-57041065D01*
X62541849Y-56838151D01*
X62338935Y-56671623D01*
X62107431Y-56547882D01*
X61999034Y-56515000D01*
X62107431Y-56482118D01*
X62338935Y-56358377D01*
X62541849Y-56191849D01*
X62708377Y-55988935D01*
X62771503Y-55870834D01*
X65354192Y-55870834D01*
X65420146Y-56096988D01*
X65660591Y-56203286D01*
X65917153Y-56260633D01*
X66179973Y-56266826D01*
X66438951Y-56221626D01*
X66684136Y-56126770D01*
X66739854Y-56096988D01*
X66805808Y-55870834D01*
X66080000Y-55145026D01*
X65354192Y-55870834D01*
X62771503Y-55870834D01*
X62832118Y-55757431D01*
X62908318Y-55506235D01*
X62934047Y-55245000D01*
X62912820Y-55029473D01*
X64742674Y-55029473D01*
X64787874Y-55288451D01*
X64882730Y-55533636D01*
X64912512Y-55589354D01*
X65138666Y-55655308D01*
X65864474Y-54929500D01*
X66295526Y-54929500D01*
X67021334Y-55655308D01*
X67247488Y-55589354D01*
X67353786Y-55348909D01*
X67411133Y-55092347D01*
X67417326Y-54829527D01*
X67372126Y-54570549D01*
X67277270Y-54325364D01*
X67247488Y-54269646D01*
X67021334Y-54203692D01*
X66295526Y-54929500D01*
X65864474Y-54929500D01*
X65138666Y-54203692D01*
X64912512Y-54269646D01*
X64806214Y-54510091D01*
X64748867Y-54766653D01*
X64742674Y-55029473D01*
X62912820Y-55029473D01*
X62908318Y-54983765D01*
X62832118Y-54732569D01*
X62708377Y-54501065D01*
X62541849Y-54298151D01*
X62338935Y-54131623D01*
X62169256Y-54040928D01*
X62240413Y-54014156D01*
X62282219Y-53988166D01*
X65354192Y-53988166D01*
X66080000Y-54713974D01*
X66805808Y-53988166D01*
X66739854Y-53762012D01*
X66499409Y-53655714D01*
X66242847Y-53598367D01*
X65980027Y-53592174D01*
X65721049Y-53637374D01*
X65475864Y-53732230D01*
X65420146Y-53762012D01*
X65354192Y-53988166D01*
X62282219Y-53988166D01*
X62483415Y-53863087D01*
X62692276Y-53667514D01*
X62858969Y-53434952D01*
X62977089Y-53174338D01*
X63004910Y-53082607D01*
X62893286Y-52857400D01*
X61747400Y-52857400D01*
X61747400Y-52877400D01*
X61442600Y-52877400D01*
X61442600Y-52857400D01*
X60296714Y-52857400D01*
X60185090Y-53082607D01*
X60212911Y-53174338D01*
X60331031Y-53434952D01*
X60497724Y-53667514D01*
X60706585Y-53863087D01*
X60949587Y-54014156D01*
X61020744Y-54040928D01*
X60851065Y-54131623D01*
X60648151Y-54298151D01*
X60481623Y-54501065D01*
X60357882Y-54732569D01*
X60281682Y-54983765D01*
X60255953Y-55245000D01*
X60281682Y-55506235D01*
X60357882Y-55757431D01*
X60481623Y-55988935D01*
X60648151Y-56191849D01*
X60851065Y-56358377D01*
X61082569Y-56482118D01*
X61190966Y-56515000D01*
X61082569Y-56547882D01*
X60851065Y-56671623D01*
X60648151Y-56838151D01*
X60481623Y-57041065D01*
X60357882Y-57272569D01*
X60281682Y-57523765D01*
X60255953Y-57785000D01*
X60281682Y-58046235D01*
X60357882Y-58297431D01*
X60443006Y-58456687D01*
X60336225Y-58489079D01*
X60303981Y-58506314D01*
X60230324Y-58545684D01*
X60137500Y-58621862D01*
X60118412Y-58645121D01*
X57756132Y-61007403D01*
X57732862Y-61026500D01*
X57656684Y-61119325D01*
X57600079Y-61225227D01*
X57586617Y-61269606D01*
X57565221Y-61340136D01*
X57553451Y-61459638D01*
X57556400Y-61489580D01*
X57556401Y-72360048D01*
X57553451Y-72390000D01*
X57565221Y-72509502D01*
X57600080Y-72624412D01*
X57656685Y-72730314D01*
X57732863Y-72823138D01*
X57756127Y-72842230D01*
X59872769Y-74958873D01*
X59891862Y-74982138D01*
X59984686Y-75058316D01*
X60090588Y-75114921D01*
X60170639Y-75139205D01*
X60205497Y-75149779D01*
X60324999Y-75161549D01*
X60354941Y-75158600D01*
X71217059Y-75158600D01*
X71247000Y-75161549D01*
X71276941Y-75158600D01*
X71366502Y-75149779D01*
X71481412Y-75114921D01*
X71587314Y-75058316D01*
X71680138Y-74982138D01*
X71699235Y-74958868D01*
X73658504Y-72999600D01*
X73845065Y-72999600D01*
X73845065Y-73190000D01*
X73854383Y-73284606D01*
X73881978Y-73375577D01*
X73926791Y-73459415D01*
X73987099Y-73532901D01*
X74060585Y-73593209D01*
X74144423Y-73638022D01*
X74235394Y-73665617D01*
X74330000Y-73674935D01*
X76510000Y-73674935D01*
X76604606Y-73665617D01*
X76695577Y-73638022D01*
X76779415Y-73593209D01*
X76852901Y-73532901D01*
X76913209Y-73459415D01*
X76958022Y-73375577D01*
X76985617Y-73284606D01*
X76994935Y-73190000D01*
X82897450Y-73190000D01*
X82909220Y-73309503D01*
X82944078Y-73424413D01*
X83000683Y-73530315D01*
X83076862Y-73623138D01*
X83169685Y-73699317D01*
X83275587Y-73755922D01*
X83390497Y-73790780D01*
X83510000Y-73802550D01*
X84295200Y-73799600D01*
X84447600Y-73647200D01*
X84447600Y-72542400D01*
X83052800Y-72542400D01*
X82900400Y-72694800D01*
X82897450Y-73190000D01*
X76994935Y-73190000D01*
X76994935Y-71590000D01*
X82897450Y-71590000D01*
X82900400Y-72085200D01*
X83052800Y-72237600D01*
X84447600Y-72237600D01*
X84447600Y-71132800D01*
X84295200Y-70980400D01*
X83510000Y-70977450D01*
X83390497Y-70989220D01*
X83275587Y-71024078D01*
X83169685Y-71080683D01*
X83076862Y-71156862D01*
X83000683Y-71249685D01*
X82944078Y-71355587D01*
X82909220Y-71470497D01*
X82897450Y-71590000D01*
X76994935Y-71590000D01*
X76985617Y-71495394D01*
X76958022Y-71404423D01*
X76913209Y-71320585D01*
X76852901Y-71247099D01*
X76779415Y-71186791D01*
X76695577Y-71141978D01*
X76604606Y-71114383D01*
X76510000Y-71105065D01*
X74330000Y-71105065D01*
X74235394Y-71114383D01*
X74144423Y-71141978D01*
X74060585Y-71186791D01*
X73987099Y-71247099D01*
X73926791Y-71320585D01*
X73881978Y-71404423D01*
X73854383Y-71495394D01*
X73845065Y-71590000D01*
X73845065Y-71780400D01*
X73435941Y-71780400D01*
X73405999Y-71777451D01*
X73286497Y-71789221D01*
X73251639Y-71799795D01*
X73171588Y-71824079D01*
X73065686Y-71880684D01*
X72972862Y-71956862D01*
X72953769Y-71980127D01*
X70994497Y-73939400D01*
X62923592Y-73939400D01*
X62929935Y-73875000D01*
X62929935Y-72691332D01*
X64895065Y-70726203D01*
X64895065Y-71315000D01*
X64904383Y-71409606D01*
X64931978Y-71500577D01*
X64976791Y-71584415D01*
X65037099Y-71657901D01*
X65110585Y-71718209D01*
X65194423Y-71763022D01*
X65285394Y-71790617D01*
X65380000Y-71799935D01*
X66880000Y-71799935D01*
X66974606Y-71790617D01*
X67065577Y-71763022D01*
X67149415Y-71718209D01*
X67222901Y-71657901D01*
X67283209Y-71584415D01*
X67328022Y-71500577D01*
X67355617Y-71409606D01*
X67364935Y-71315000D01*
X67364935Y-70315000D01*
X67355617Y-70220394D01*
X67328022Y-70129423D01*
X67283209Y-70045585D01*
X67222901Y-69972099D01*
X67149415Y-69911791D01*
X67128853Y-69900800D01*
X67779965Y-69900800D01*
X67762469Y-69918296D01*
X67665179Y-70063901D01*
X67598164Y-70225688D01*
X67564000Y-70397441D01*
X67564000Y-70572559D01*
X67598164Y-70744312D01*
X67665179Y-70906099D01*
X67762469Y-71051704D01*
X67886296Y-71175531D01*
X68031901Y-71272821D01*
X68193688Y-71339836D01*
X68365441Y-71374000D01*
X68540559Y-71374000D01*
X68712312Y-71339836D01*
X68772270Y-71315000D01*
X69667450Y-71315000D01*
X69679220Y-71434503D01*
X69714078Y-71549413D01*
X69770683Y-71655315D01*
X69846862Y-71748138D01*
X69939685Y-71824317D01*
X70045587Y-71880922D01*
X70160497Y-71915780D01*
X70280000Y-71927550D01*
X70725200Y-71924600D01*
X70877600Y-71772200D01*
X70877600Y-70967400D01*
X71182400Y-70967400D01*
X71182400Y-71772200D01*
X71334800Y-71924600D01*
X71780000Y-71927550D01*
X71899503Y-71915780D01*
X72014413Y-71880922D01*
X72120315Y-71824317D01*
X72213138Y-71748138D01*
X72289317Y-71655315D01*
X72345922Y-71549413D01*
X72380780Y-71434503D01*
X72392550Y-71315000D01*
X72389600Y-71119800D01*
X72237200Y-70967400D01*
X71182400Y-70967400D01*
X70877600Y-70967400D01*
X69822800Y-70967400D01*
X69670400Y-71119800D01*
X69667450Y-71315000D01*
X68772270Y-71315000D01*
X68874099Y-71272821D01*
X69019704Y-71175531D01*
X69143531Y-71051704D01*
X69240821Y-70906099D01*
X69307836Y-70744312D01*
X69342000Y-70572559D01*
X69342000Y-70397441D01*
X69307836Y-70225688D01*
X69240821Y-70063901D01*
X69143531Y-69918296D01*
X69126035Y-69900800D01*
X69831320Y-69900800D01*
X69770683Y-69974685D01*
X69714078Y-70080587D01*
X69679220Y-70195497D01*
X69667450Y-70315000D01*
X69670400Y-70510200D01*
X69822800Y-70662600D01*
X70877600Y-70662600D01*
X70877600Y-70642600D01*
X71182400Y-70642600D01*
X71182400Y-70662600D01*
X72237200Y-70662600D01*
X72389600Y-70510200D01*
X72392550Y-70315000D01*
X72380780Y-70195497D01*
X72345922Y-70080587D01*
X72289317Y-69974685D01*
X72228680Y-69900800D01*
X77422721Y-69900800D01*
X77456400Y-69904117D01*
X77490079Y-69900800D01*
X77490089Y-69900800D01*
X77590840Y-69890877D01*
X77720114Y-69851662D01*
X77839253Y-69787981D01*
X77943680Y-69702280D01*
X77965158Y-69676109D01*
X80210324Y-67430944D01*
X80236479Y-67409479D01*
X80257944Y-67383324D01*
X80257955Y-67383313D01*
X80257960Y-67383307D01*
X80801267Y-66840000D01*
X82897450Y-66840000D01*
X82909220Y-66959503D01*
X82944078Y-67074413D01*
X83000683Y-67180315D01*
X83076862Y-67273138D01*
X83169685Y-67349317D01*
X83275587Y-67405922D01*
X83390497Y-67440780D01*
X83510000Y-67452550D01*
X84295200Y-67449600D01*
X84447600Y-67297200D01*
X84447600Y-66192400D01*
X83052800Y-66192400D01*
X82900400Y-66344800D01*
X82897450Y-66840000D01*
X80801267Y-66840000D01*
X82401267Y-65240000D01*
X82897450Y-65240000D01*
X82900400Y-65735200D01*
X83052800Y-65887600D01*
X84447600Y-65887600D01*
X84447600Y-64782800D01*
X84295200Y-64630400D01*
X83510000Y-64627450D01*
X83390497Y-64639220D01*
X83275587Y-64674078D01*
X83169685Y-64730683D01*
X83076862Y-64806862D01*
X83000683Y-64899685D01*
X82944078Y-65005587D01*
X82909220Y-65120497D01*
X82897450Y-65240000D01*
X82401267Y-65240000D01*
X85551114Y-62090153D01*
X85577279Y-62068680D01*
X85662981Y-61964253D01*
X85726662Y-61845114D01*
X85765877Y-61715840D01*
X85771383Y-61659935D01*
X85852400Y-61659935D01*
X85852400Y-64652233D01*
X85809503Y-64639220D01*
X85690000Y-64627450D01*
X84904800Y-64630400D01*
X84752400Y-64782800D01*
X84752400Y-65887600D01*
X84772400Y-65887600D01*
X84772400Y-66192400D01*
X84752400Y-66192400D01*
X84752400Y-67297200D01*
X84904800Y-67449600D01*
X85690000Y-67452550D01*
X85809503Y-67440780D01*
X85852400Y-67427767D01*
X85852401Y-71002233D01*
X85809503Y-70989220D01*
X85690000Y-70977450D01*
X84904800Y-70980400D01*
X84752400Y-71132800D01*
X84752400Y-72237600D01*
X84772400Y-72237600D01*
X84772400Y-72542400D01*
X84752400Y-72542400D01*
X84752400Y-73647200D01*
X84904800Y-73799600D01*
X85690000Y-73802550D01*
X85809503Y-73790780D01*
X85852401Y-73777767D01*
X85852401Y-77479117D01*
X85615722Y-77368912D01*
X85307703Y-77293721D01*
X84990934Y-77280066D01*
X84677587Y-77328473D01*
X84379705Y-77437080D01*
X84256847Y-77502749D01*
X84157481Y-77756955D01*
X85080000Y-78679474D01*
X85094143Y-78665332D01*
X85309669Y-78880858D01*
X85295526Y-78895000D01*
X85309669Y-78909143D01*
X85094143Y-79124669D01*
X85080000Y-79110526D01*
X84157481Y-80033045D01*
X84256847Y-80287251D01*
X84544278Y-80421088D01*
X84852297Y-80496279D01*
X85169066Y-80509934D01*
X85482413Y-80461527D01*
X85780295Y-80352920D01*
X85852401Y-80314379D01*
X85852401Y-85852400D01*
X82107181Y-85852400D01*
X82215098Y-85744483D01*
X82360935Y-85526223D01*
X82461389Y-85283705D01*
X82512600Y-85026250D01*
X82512600Y-84763750D01*
X82461389Y-84506295D01*
X82360935Y-84263777D01*
X82215098Y-84045517D01*
X82029483Y-83859902D01*
X81811223Y-83714065D01*
X81568705Y-83613611D01*
X81311250Y-83562400D01*
X81048750Y-83562400D01*
X80791295Y-83613611D01*
X80548777Y-83714065D01*
X80330517Y-83859902D01*
X80144902Y-84045517D01*
X79999065Y-84263777D01*
X79898611Y-84506295D01*
X79847400Y-84763750D01*
X79847400Y-85026250D01*
X79898611Y-85283705D01*
X79999065Y-85526223D01*
X80144902Y-85744483D01*
X80252819Y-85852400D01*
X56907181Y-85852400D01*
X57015098Y-85744483D01*
X57160935Y-85526223D01*
X57261389Y-85283705D01*
X57312600Y-85026250D01*
X57312600Y-84763750D01*
X57261389Y-84506295D01*
X57160935Y-84263777D01*
X57015098Y-84045517D01*
X56829483Y-83859902D01*
X56611223Y-83714065D01*
X56368705Y-83613611D01*
X56111250Y-83562400D01*
X55848750Y-83562400D01*
X55591295Y-83613611D01*
X55348777Y-83714065D01*
X55130517Y-83859902D01*
X54944902Y-84045517D01*
X54799065Y-84263777D01*
X54698611Y-84506295D01*
X54647400Y-84763750D01*
X54647400Y-85026250D01*
X54698611Y-85283705D01*
X54799065Y-85526223D01*
X54944902Y-85744483D01*
X55052819Y-85852400D01*
X51307600Y-85852400D01*
X51307600Y-83662007D01*
X51377725Y-83708863D01*
X51647541Y-83820625D01*
X51933977Y-83877600D01*
X52226023Y-83877600D01*
X52512459Y-83820625D01*
X52782275Y-83708863D01*
X53025103Y-83546611D01*
X53231611Y-83340103D01*
X53393863Y-83097275D01*
X53505625Y-82827459D01*
X53562600Y-82541023D01*
X53562600Y-82248977D01*
X53505625Y-81962541D01*
X53393863Y-81692725D01*
X53231611Y-81449897D01*
X53025103Y-81243389D01*
X52782275Y-81081137D01*
X52512459Y-80969375D01*
X52226023Y-80912400D01*
X51933977Y-80912400D01*
X51647541Y-80969375D01*
X51377725Y-81081137D01*
X51307600Y-81127993D01*
X51307600Y-80162007D01*
X51377725Y-80208863D01*
X51647541Y-80320625D01*
X51933977Y-80377600D01*
X52226023Y-80377600D01*
X52512459Y-80320625D01*
X52782275Y-80208863D01*
X53025103Y-80046611D01*
X53231611Y-79840103D01*
X53393863Y-79597275D01*
X53432250Y-79504600D01*
X65347059Y-79504600D01*
X65377000Y-79507549D01*
X65406941Y-79504600D01*
X65496502Y-79495779D01*
X65611412Y-79460921D01*
X65717314Y-79404316D01*
X65810138Y-79328138D01*
X65829235Y-79304868D01*
X66150037Y-78984066D01*
X83465066Y-78984066D01*
X83513473Y-79297413D01*
X83622080Y-79595295D01*
X83687749Y-79718153D01*
X83941955Y-79817519D01*
X84864474Y-78895000D01*
X83941955Y-77972481D01*
X83687749Y-78071847D01*
X83553912Y-78359278D01*
X83478721Y-78667297D01*
X83465066Y-78984066D01*
X66150037Y-78984066D01*
X66775104Y-78359000D01*
X66889559Y-78359000D01*
X67061312Y-78324836D01*
X67223099Y-78257821D01*
X67368704Y-78160531D01*
X67492531Y-78036704D01*
X67589821Y-77891099D01*
X67656836Y-77729312D01*
X67691000Y-77557559D01*
X67691000Y-77382441D01*
X67656836Y-77210688D01*
X67589821Y-77048901D01*
X67492531Y-76903296D01*
X67368704Y-76779469D01*
X67223099Y-76682179D01*
X67061312Y-76615164D01*
X66889559Y-76581000D01*
X66714441Y-76581000D01*
X66542688Y-76615164D01*
X66380901Y-76682179D01*
X66235296Y-76779469D01*
X66111469Y-76903296D01*
X66014179Y-77048901D01*
X65947164Y-77210688D01*
X65913000Y-77382441D01*
X65913000Y-77496896D01*
X65124497Y-78285400D01*
X53432250Y-78285400D01*
X53393863Y-78192725D01*
X53231611Y-77949897D01*
X53025103Y-77743389D01*
X52782275Y-77581137D01*
X52512459Y-77469375D01*
X52226023Y-77412400D01*
X51933977Y-77412400D01*
X51647541Y-77469375D01*
X51377725Y-77581137D01*
X51307600Y-77627993D01*
X51307600Y-76263750D01*
X55847400Y-76263750D01*
X55847400Y-76526250D01*
X55898611Y-76783705D01*
X55999065Y-77026223D01*
X56144902Y-77244483D01*
X56330517Y-77430098D01*
X56548777Y-77575935D01*
X56791295Y-77676389D01*
X57048750Y-77727600D01*
X57311250Y-77727600D01*
X57568705Y-77676389D01*
X57811223Y-77575935D01*
X58029483Y-77430098D01*
X58215098Y-77244483D01*
X58360935Y-77026223D01*
X58461389Y-76783705D01*
X58512600Y-76526250D01*
X58512600Y-76263750D01*
X78647400Y-76263750D01*
X78647400Y-76526250D01*
X78698611Y-76783705D01*
X78799065Y-77026223D01*
X78944902Y-77244483D01*
X79130517Y-77430098D01*
X79348777Y-77575935D01*
X79591295Y-77676389D01*
X79848750Y-77727600D01*
X80111250Y-77727600D01*
X80368705Y-77676389D01*
X80611223Y-77575935D01*
X80829483Y-77430098D01*
X81015098Y-77244483D01*
X81160935Y-77026223D01*
X81261389Y-76783705D01*
X81312600Y-76526250D01*
X81312600Y-76263750D01*
X81261389Y-76006295D01*
X81160935Y-75763777D01*
X81015098Y-75545517D01*
X80829483Y-75359902D01*
X80611223Y-75214065D01*
X80368705Y-75113611D01*
X80111250Y-75062400D01*
X79848750Y-75062400D01*
X79591295Y-75113611D01*
X79348777Y-75214065D01*
X79130517Y-75359902D01*
X78944902Y-75545517D01*
X78799065Y-75763777D01*
X78698611Y-76006295D01*
X78647400Y-76263750D01*
X58512600Y-76263750D01*
X58461389Y-76006295D01*
X58360935Y-75763777D01*
X58215098Y-75545517D01*
X58029483Y-75359902D01*
X57811223Y-75214065D01*
X57568705Y-75113611D01*
X57311250Y-75062400D01*
X57048750Y-75062400D01*
X56791295Y-75113611D01*
X56548777Y-75214065D01*
X56330517Y-75359902D01*
X56144902Y-75545517D01*
X55999065Y-75763777D01*
X55898611Y-76006295D01*
X55847400Y-76263750D01*
X51307600Y-76263750D01*
X51307600Y-69059127D01*
X53027400Y-69059127D01*
X53027400Y-69370873D01*
X53088218Y-69676628D01*
X53207518Y-69964642D01*
X53380714Y-70223849D01*
X53601151Y-70444286D01*
X53860358Y-70617482D01*
X54148372Y-70736782D01*
X54454127Y-70797600D01*
X54765873Y-70797600D01*
X55071628Y-70736782D01*
X55359642Y-70617482D01*
X55618849Y-70444286D01*
X55839286Y-70223849D01*
X56012482Y-69964642D01*
X56131782Y-69676628D01*
X56192600Y-69370873D01*
X56192600Y-69059127D01*
X56131782Y-68753372D01*
X56012482Y-68465358D01*
X55839286Y-68206151D01*
X55618849Y-67985714D01*
X55359642Y-67812518D01*
X55071628Y-67693218D01*
X54765873Y-67632400D01*
X54454127Y-67632400D01*
X54148372Y-67693218D01*
X53860358Y-67812518D01*
X53601151Y-67985714D01*
X53380714Y-68206151D01*
X53207518Y-68465358D01*
X53088218Y-68753372D01*
X53027400Y-69059127D01*
X51307600Y-69059127D01*
X51307600Y-51307600D01*
X61184129Y-51307600D01*
X60949587Y-51395844D01*
G36*
X62280800Y-63430828D02*
G01*
X62277850Y-63460779D01*
X62289620Y-63580281D01*
X62311626Y-63652821D01*
X62324479Y-63695191D01*
X62381084Y-63801093D01*
X62457262Y-63893917D01*
X62480526Y-63913009D01*
X63153706Y-64586189D01*
X63078891Y-64617179D01*
X62933286Y-64714469D01*
X62894442Y-64753313D01*
X62858969Y-64675048D01*
X62692276Y-64442486D01*
X62483415Y-64246913D01*
X62240413Y-64095844D01*
X61972608Y-63995085D01*
X61747400Y-64105772D01*
X61747400Y-65252600D01*
X61767400Y-65252600D01*
X61767400Y-65557400D01*
X61747400Y-65557400D01*
X61747400Y-65577400D01*
X61442600Y-65577400D01*
X61442600Y-65557400D01*
X60296714Y-65557400D01*
X60185090Y-65782607D01*
X60212911Y-65874338D01*
X60331031Y-66134952D01*
X60497724Y-66367514D01*
X60706585Y-66563087D01*
X60949587Y-66714156D01*
X61020744Y-66740928D01*
X60851065Y-66831623D01*
X60648151Y-66998151D01*
X60481623Y-67201065D01*
X60357882Y-67432569D01*
X60281682Y-67683765D01*
X60255953Y-67945000D01*
X60281682Y-68206235D01*
X60357882Y-68457431D01*
X60481623Y-68688935D01*
X60648151Y-68891849D01*
X60851065Y-69058377D01*
X61082569Y-69182118D01*
X61190966Y-69215000D01*
X61082569Y-69247882D01*
X60851065Y-69371623D01*
X60648151Y-69538151D01*
X60481623Y-69741065D01*
X60357882Y-69972569D01*
X60281682Y-70223765D01*
X60255953Y-70485000D01*
X60281682Y-70746235D01*
X60357882Y-70997431D01*
X60481623Y-71228935D01*
X60648151Y-71431849D01*
X60851065Y-71598377D01*
X61022602Y-71690065D01*
X60745000Y-71690065D01*
X60650394Y-71699383D01*
X60559423Y-71726978D01*
X60475585Y-71771791D01*
X60402099Y-71832099D01*
X60341791Y-71905585D01*
X60296978Y-71989423D01*
X60291372Y-72007904D01*
X59613800Y-71330333D01*
X59613800Y-65027393D01*
X60185090Y-65027393D01*
X60296714Y-65252600D01*
X61442600Y-65252600D01*
X61442600Y-64105772D01*
X61217392Y-63995085D01*
X60949587Y-64095844D01*
X60706585Y-64246913D01*
X60497724Y-64442486D01*
X60331031Y-64675048D01*
X60212911Y-64935662D01*
X60185090Y-65027393D01*
X59613800Y-65027393D01*
X59613800Y-64532467D01*
X62056114Y-62090153D01*
X62082279Y-62068680D01*
X62167981Y-61964253D01*
X62231662Y-61845114D01*
X62270877Y-61715840D01*
X62276383Y-61659935D01*
X62280799Y-61659935D01*
X62280800Y-63430828D01*
X62280800Y-63430828D01*
G37*
X62280800Y-63430828D02*
X62277850Y-63460779D01*
X62289620Y-63580281D01*
X62311626Y-63652821D01*
X62324479Y-63695191D01*
X62381084Y-63801093D01*
X62457262Y-63893917D01*
X62480526Y-63913009D01*
X63153706Y-64586189D01*
X63078891Y-64617179D01*
X62933286Y-64714469D01*
X62894442Y-64753313D01*
X62858969Y-64675048D01*
X62692276Y-64442486D01*
X62483415Y-64246913D01*
X62240413Y-64095844D01*
X61972608Y-63995085D01*
X61747400Y-64105772D01*
X61747400Y-65252600D01*
X61767400Y-65252600D01*
X61767400Y-65557400D01*
X61747400Y-65557400D01*
X61747400Y-65577400D01*
X61442600Y-65577400D01*
X61442600Y-65557400D01*
X60296714Y-65557400D01*
X60185090Y-65782607D01*
X60212911Y-65874338D01*
X60331031Y-66134952D01*
X60497724Y-66367514D01*
X60706585Y-66563087D01*
X60949587Y-66714156D01*
X61020744Y-66740928D01*
X60851065Y-66831623D01*
X60648151Y-66998151D01*
X60481623Y-67201065D01*
X60357882Y-67432569D01*
X60281682Y-67683765D01*
X60255953Y-67945000D01*
X60281682Y-68206235D01*
X60357882Y-68457431D01*
X60481623Y-68688935D01*
X60648151Y-68891849D01*
X60851065Y-69058377D01*
X61082569Y-69182118D01*
X61190966Y-69215000D01*
X61082569Y-69247882D01*
X60851065Y-69371623D01*
X60648151Y-69538151D01*
X60481623Y-69741065D01*
X60357882Y-69972569D01*
X60281682Y-70223765D01*
X60255953Y-70485000D01*
X60281682Y-70746235D01*
X60357882Y-70997431D01*
X60481623Y-71228935D01*
X60648151Y-71431849D01*
X60851065Y-71598377D01*
X61022602Y-71690065D01*
X60745000Y-71690065D01*
X60650394Y-71699383D01*
X60559423Y-71726978D01*
X60475585Y-71771791D01*
X60402099Y-71832099D01*
X60341791Y-71905585D01*
X60296978Y-71989423D01*
X60291372Y-72007904D01*
X59613800Y-71330333D01*
X59613800Y-65027393D01*
X60185090Y-65027393D01*
X60296714Y-65252600D01*
X61442600Y-65252600D01*
X61442600Y-64105772D01*
X61217392Y-63995085D01*
X60949587Y-64095844D01*
X60706585Y-64246913D01*
X60497724Y-64442486D01*
X60331031Y-64675048D01*
X60212911Y-64935662D01*
X60185090Y-65027393D01*
X59613800Y-65027393D01*
X59613800Y-64532467D01*
X62056114Y-62090153D01*
X62082279Y-62068680D01*
X62167981Y-61964253D01*
X62231662Y-61845114D01*
X62270877Y-61715840D01*
X62276383Y-61659935D01*
X62280799Y-61659935D01*
X62280800Y-63430828D01*
G36*
X81215065Y-53555000D02*
G01*
X81224383Y-53649606D01*
X81251978Y-53740577D01*
X81296791Y-53824415D01*
X81357099Y-53897901D01*
X81430585Y-53958209D01*
X81514423Y-54003022D01*
X81605394Y-54030617D01*
X81700000Y-54039935D01*
X81864200Y-54039935D01*
X81864201Y-55946187D01*
X81856296Y-55951469D01*
X81732469Y-56075296D01*
X81635179Y-56220901D01*
X81568164Y-56382688D01*
X81534000Y-56554441D01*
X81534000Y-56729559D01*
X81568164Y-56901312D01*
X81635179Y-57063099D01*
X81732469Y-57208704D01*
X81856296Y-57332531D01*
X82001901Y-57429821D01*
X82163688Y-57496836D01*
X82335441Y-57531000D01*
X82510559Y-57531000D01*
X82682312Y-57496836D01*
X82844099Y-57429821D01*
X82989704Y-57332531D01*
X83113531Y-57208704D01*
X83210821Y-57063099D01*
X83277836Y-56901312D01*
X83312000Y-56729559D01*
X83312000Y-56554441D01*
X83277836Y-56382688D01*
X83235800Y-56281205D01*
X83235800Y-54039935D01*
X83400000Y-54039935D01*
X83494606Y-54030617D01*
X83585577Y-54003022D01*
X83669415Y-53958209D01*
X83742901Y-53897901D01*
X83803209Y-53824415D01*
X83848022Y-53740577D01*
X83875617Y-53649606D01*
X83884935Y-53555000D01*
X83884935Y-53517132D01*
X83992724Y-53667514D01*
X84201585Y-53863087D01*
X84444587Y-54014156D01*
X84515744Y-54040928D01*
X84346065Y-54131623D01*
X84143151Y-54298151D01*
X83976623Y-54501065D01*
X83852882Y-54732569D01*
X83776682Y-54983765D01*
X83750953Y-55245000D01*
X83776682Y-55506235D01*
X83852882Y-55757431D01*
X83976623Y-55988935D01*
X84143151Y-56191849D01*
X84346065Y-56358377D01*
X84577569Y-56482118D01*
X84685966Y-56515000D01*
X84577569Y-56547882D01*
X84346065Y-56671623D01*
X84143151Y-56838151D01*
X83976623Y-57041065D01*
X83852882Y-57272569D01*
X83776682Y-57523765D01*
X83750953Y-57785000D01*
X83776682Y-58046235D01*
X83852882Y-58297431D01*
X83976623Y-58528935D01*
X84143151Y-58731849D01*
X84346065Y-58898377D01*
X84517602Y-58990065D01*
X84240000Y-58990065D01*
X84145394Y-58999383D01*
X84054423Y-59026978D01*
X83970585Y-59071791D01*
X83897099Y-59132099D01*
X83836791Y-59205585D01*
X83791978Y-59289423D01*
X83786372Y-59307905D01*
X78373358Y-53894891D01*
X78351880Y-53868720D01*
X78346255Y-53864104D01*
X78432514Y-53802276D01*
X78628087Y-53593415D01*
X78779156Y-53350413D01*
X78805928Y-53279256D01*
X78896623Y-53448935D01*
X79063151Y-53651849D01*
X79266065Y-53818377D01*
X79497569Y-53942118D01*
X79748765Y-54018318D01*
X79944541Y-54037600D01*
X80075459Y-54037600D01*
X80271235Y-54018318D01*
X80522431Y-53942118D01*
X80753935Y-53818377D01*
X80956849Y-53651849D01*
X81123377Y-53448935D01*
X81215065Y-53277398D01*
X81215065Y-53555000D01*
X81215065Y-53555000D01*
G37*
X81215065Y-53555000D02*
X81224383Y-53649606D01*
X81251978Y-53740577D01*
X81296791Y-53824415D01*
X81357099Y-53897901D01*
X81430585Y-53958209D01*
X81514423Y-54003022D01*
X81605394Y-54030617D01*
X81700000Y-54039935D01*
X81864200Y-54039935D01*
X81864201Y-55946187D01*
X81856296Y-55951469D01*
X81732469Y-56075296D01*
X81635179Y-56220901D01*
X81568164Y-56382688D01*
X81534000Y-56554441D01*
X81534000Y-56729559D01*
X81568164Y-56901312D01*
X81635179Y-57063099D01*
X81732469Y-57208704D01*
X81856296Y-57332531D01*
X82001901Y-57429821D01*
X82163688Y-57496836D01*
X82335441Y-57531000D01*
X82510559Y-57531000D01*
X82682312Y-57496836D01*
X82844099Y-57429821D01*
X82989704Y-57332531D01*
X83113531Y-57208704D01*
X83210821Y-57063099D01*
X83277836Y-56901312D01*
X83312000Y-56729559D01*
X83312000Y-56554441D01*
X83277836Y-56382688D01*
X83235800Y-56281205D01*
X83235800Y-54039935D01*
X83400000Y-54039935D01*
X83494606Y-54030617D01*
X83585577Y-54003022D01*
X83669415Y-53958209D01*
X83742901Y-53897901D01*
X83803209Y-53824415D01*
X83848022Y-53740577D01*
X83875617Y-53649606D01*
X83884935Y-53555000D01*
X83884935Y-53517132D01*
X83992724Y-53667514D01*
X84201585Y-53863087D01*
X84444587Y-54014156D01*
X84515744Y-54040928D01*
X84346065Y-54131623D01*
X84143151Y-54298151D01*
X83976623Y-54501065D01*
X83852882Y-54732569D01*
X83776682Y-54983765D01*
X83750953Y-55245000D01*
X83776682Y-55506235D01*
X83852882Y-55757431D01*
X83976623Y-55988935D01*
X84143151Y-56191849D01*
X84346065Y-56358377D01*
X84577569Y-56482118D01*
X84685966Y-56515000D01*
X84577569Y-56547882D01*
X84346065Y-56671623D01*
X84143151Y-56838151D01*
X83976623Y-57041065D01*
X83852882Y-57272569D01*
X83776682Y-57523765D01*
X83750953Y-57785000D01*
X83776682Y-58046235D01*
X83852882Y-58297431D01*
X83976623Y-58528935D01*
X84143151Y-58731849D01*
X84346065Y-58898377D01*
X84517602Y-58990065D01*
X84240000Y-58990065D01*
X84145394Y-58999383D01*
X84054423Y-59026978D01*
X83970585Y-59071791D01*
X83897099Y-59132099D01*
X83836791Y-59205585D01*
X83791978Y-59289423D01*
X83786372Y-59307905D01*
X78373358Y-53894891D01*
X78351880Y-53868720D01*
X78346255Y-53864104D01*
X78432514Y-53802276D01*
X78628087Y-53593415D01*
X78779156Y-53350413D01*
X78805928Y-53279256D01*
X78896623Y-53448935D01*
X79063151Y-53651849D01*
X79266065Y-53818377D01*
X79497569Y-53942118D01*
X79748765Y-54018318D01*
X79944541Y-54037600D01*
X80075459Y-54037600D01*
X80271235Y-54018318D01*
X80522431Y-53942118D01*
X80753935Y-53818377D01*
X80956849Y-53651849D01*
X81123377Y-53448935D01*
X81215065Y-53277398D01*
X81215065Y-53555000D01*
G36*
X85242400Y-52552600D02*
G01*
X85262400Y-52552600D01*
X85262400Y-52857400D01*
X85242400Y-52857400D01*
X85242400Y-52877400D01*
X84937600Y-52877400D01*
X84937600Y-52857400D01*
X84917600Y-52857400D01*
X84917600Y-52552600D01*
X84937600Y-52552600D01*
X84937600Y-52532600D01*
X85242400Y-52532600D01*
X85242400Y-52552600D01*
X85242400Y-52552600D01*
G37*
X85242400Y-52552600D02*
X85262400Y-52552600D01*
X85262400Y-52857400D01*
X85242400Y-52857400D01*
X85242400Y-52877400D01*
X84937600Y-52877400D01*
X84937600Y-52857400D01*
X84917600Y-52857400D01*
X84917600Y-52552600D01*
X84937600Y-52552600D01*
X84937600Y-52532600D01*
X85242400Y-52532600D01*
X85242400Y-52552600D01*
G36*
X77622400Y-52552600D02*
G01*
X77642400Y-52552600D01*
X77642400Y-52857400D01*
X77622400Y-52857400D01*
X77622400Y-52877400D01*
X77317600Y-52877400D01*
X77317600Y-52857400D01*
X77297600Y-52857400D01*
X77297600Y-52552600D01*
X77317600Y-52552600D01*
X77317600Y-52532600D01*
X77622400Y-52532600D01*
X77622400Y-52552600D01*
X77622400Y-52552600D01*
G37*
X77622400Y-52552600D02*
X77642400Y-52552600D01*
X77642400Y-52857400D01*
X77622400Y-52857400D01*
X77622400Y-52877400D01*
X77317600Y-52877400D01*
X77317600Y-52857400D01*
X77297600Y-52857400D01*
X77297600Y-52552600D01*
X77317600Y-52552600D01*
X77317600Y-52532600D01*
X77622400Y-52532600D01*
X77622400Y-52552600D01*
M02*
