M48
; DRILL file {KiCad 5.1.2-f72e74a~84~ubuntu16.04.1} date Sun 14 Jul 2019 12:50:55 PM EDT
; FORMAT={-:-/ absolute / metric / decimal}
; #@! TF.CreationDate,2019-07-14T12:50:55-04:00
; #@! TF.GenerationSoftware,Kicad,Pcbnew,5.1.2-f72e74a~84~ubuntu16.04.1
; #@! TF.FileFunction,Plated,1,2,PTH
FMAT,2
METRIC
T1C0.406
T2C0.600
T3C0.850
T4C1.000
T5C1.250
%
G90
G05
T1
X63.5Y-65.405
X63.627Y-62.865
X64.516Y-60.579
X65.532Y-60.579
X66.802Y-77.47
X67.818Y-67.818
X68.199Y-57.277
X68.453Y-70.485
X68.961Y-67.818
X72.009Y-63.881
X72.017Y-62.746
X72.049Y-61.671
X72.39Y-53.975
X73.406Y-56.134
X73.406Y-57.277
X73.533Y-67.564
X76.962Y-64.135
X79.756Y-58.293
X80.899Y-54.356
X82.423Y-56.642
X83.185Y-57.785
T3
X66.08Y-54.929
X71.08Y-54.929
T4
X61.595Y-52.705
X61.595Y-55.245
X61.595Y-57.785
X61.595Y-60.325
X74.93Y-52.705
X77.47Y-52.705
X80.01Y-52.705
X82.55Y-52.705
X61.595Y-65.405
X61.595Y-67.945
X61.595Y-70.485
X61.595Y-73.025
X85.09Y-52.705
X85.09Y-55.245
X85.09Y-57.785
X85.09Y-60.325
T5
X52.08Y-78.895
X52.08Y-82.395
X85.08Y-78.895
T2
G00X65.08Y-52.579
M15
G01X65.08Y-51.88
M16
G05
G00X72.08Y-51.88
M15
G01X72.08Y-52.579
M16
G05
T0
M30
