G04 #@! TF.GenerationSoftware,KiCad,Pcbnew,5.1.2-f72e74a~84~ubuntu16.04.1*
G04 #@! TF.CreationDate,2019-07-14T12:51:28-04:00*
G04 #@! TF.ProjectId,radiance_controller,72616469-616e-4636-955f-636f6e74726f,rev?*
G04 #@! TF.SameCoordinates,Original*
G04 #@! TF.FileFunction,Soldermask,Bot*
G04 #@! TF.FilePolarity,Negative*
%FSLAX46Y46*%
G04 Gerber Fmt 4.6, Leading zero omitted, Abs format (unit mm)*
G04 Created by KiCad (PCBNEW 5.1.2-f72e74a~84~ubuntu16.04.1) date 2019-07-14 12:51:28*
%MOMM*%
%LPD*%
G04 APERTURE LIST*
%ADD10C,0.100000*%
G04 APERTURE END LIST*
D10*
G36*
X81293512Y-83998927D02*
G01*
X81442812Y-84028624D01*
X81606784Y-84096544D01*
X81754354Y-84195147D01*
X81879853Y-84320646D01*
X81978456Y-84468216D01*
X82046376Y-84632188D01*
X82081000Y-84806259D01*
X82081000Y-84983741D01*
X82046376Y-85157812D01*
X81978456Y-85321784D01*
X81879853Y-85469354D01*
X81754354Y-85594853D01*
X81606784Y-85693456D01*
X81442812Y-85761376D01*
X81293512Y-85791073D01*
X81268742Y-85796000D01*
X81091258Y-85796000D01*
X81066488Y-85791073D01*
X80917188Y-85761376D01*
X80753216Y-85693456D01*
X80605646Y-85594853D01*
X80480147Y-85469354D01*
X80381544Y-85321784D01*
X80313624Y-85157812D01*
X80279000Y-84983741D01*
X80279000Y-84806259D01*
X80313624Y-84632188D01*
X80381544Y-84468216D01*
X80480147Y-84320646D01*
X80605646Y-84195147D01*
X80753216Y-84096544D01*
X80917188Y-84028624D01*
X81066488Y-83998927D01*
X81091258Y-83994000D01*
X81268742Y-83994000D01*
X81293512Y-83998927D01*
X81293512Y-83998927D01*
G37*
G36*
X56093512Y-83998927D02*
G01*
X56242812Y-84028624D01*
X56406784Y-84096544D01*
X56554354Y-84195147D01*
X56679853Y-84320646D01*
X56778456Y-84468216D01*
X56846376Y-84632188D01*
X56881000Y-84806259D01*
X56881000Y-84983741D01*
X56846376Y-85157812D01*
X56778456Y-85321784D01*
X56679853Y-85469354D01*
X56554354Y-85594853D01*
X56406784Y-85693456D01*
X56242812Y-85761376D01*
X56093512Y-85791073D01*
X56068742Y-85796000D01*
X55891258Y-85796000D01*
X55866488Y-85791073D01*
X55717188Y-85761376D01*
X55553216Y-85693456D01*
X55405646Y-85594853D01*
X55280147Y-85469354D01*
X55181544Y-85321784D01*
X55113624Y-85157812D01*
X55079000Y-84983741D01*
X55079000Y-84806259D01*
X55113624Y-84632188D01*
X55181544Y-84468216D01*
X55280147Y-84320646D01*
X55405646Y-84195147D01*
X55553216Y-84096544D01*
X55717188Y-84028624D01*
X55866488Y-83998927D01*
X55891258Y-83994000D01*
X56068742Y-83994000D01*
X56093512Y-83998927D01*
X56093512Y-83998927D01*
G37*
G36*
X52386564Y-81384389D02*
G01*
X52577833Y-81463615D01*
X52577835Y-81463616D01*
X52749973Y-81578635D01*
X52896365Y-81725027D01*
X53011385Y-81897167D01*
X53090611Y-82088436D01*
X53131000Y-82291484D01*
X53131000Y-82498516D01*
X53090611Y-82701564D01*
X53011385Y-82892833D01*
X53011384Y-82892835D01*
X52896365Y-83064973D01*
X52749973Y-83211365D01*
X52577835Y-83326384D01*
X52577834Y-83326385D01*
X52577833Y-83326385D01*
X52386564Y-83405611D01*
X52183516Y-83446000D01*
X51976484Y-83446000D01*
X51773436Y-83405611D01*
X51582167Y-83326385D01*
X51582166Y-83326385D01*
X51582165Y-83326384D01*
X51410027Y-83211365D01*
X51263635Y-83064973D01*
X51148616Y-82892835D01*
X51148615Y-82892833D01*
X51069389Y-82701564D01*
X51029000Y-82498516D01*
X51029000Y-82291484D01*
X51069389Y-82088436D01*
X51148615Y-81897167D01*
X51263635Y-81725027D01*
X51410027Y-81578635D01*
X51582165Y-81463616D01*
X51582167Y-81463615D01*
X51773436Y-81384389D01*
X51976484Y-81344000D01*
X52183516Y-81344000D01*
X52386564Y-81384389D01*
X52386564Y-81384389D01*
G37*
G36*
X52386564Y-77884389D02*
G01*
X52577833Y-77963615D01*
X52577835Y-77963616D01*
X52749973Y-78078635D01*
X52896365Y-78225027D01*
X53011385Y-78397167D01*
X53090611Y-78588436D01*
X53131000Y-78791484D01*
X53131000Y-78998516D01*
X53090611Y-79201564D01*
X53011385Y-79392833D01*
X53011384Y-79392835D01*
X52896365Y-79564973D01*
X52749973Y-79711365D01*
X52577835Y-79826384D01*
X52577834Y-79826385D01*
X52577833Y-79826385D01*
X52386564Y-79905611D01*
X52183516Y-79946000D01*
X51976484Y-79946000D01*
X51773436Y-79905611D01*
X51582167Y-79826385D01*
X51582166Y-79826385D01*
X51582165Y-79826384D01*
X51410027Y-79711365D01*
X51263635Y-79564973D01*
X51148616Y-79392835D01*
X51148615Y-79392833D01*
X51069389Y-79201564D01*
X51029000Y-78998516D01*
X51029000Y-78791484D01*
X51069389Y-78588436D01*
X51148615Y-78397167D01*
X51263635Y-78225027D01*
X51410027Y-78078635D01*
X51582165Y-77963616D01*
X51582167Y-77963615D01*
X51773436Y-77884389D01*
X51976484Y-77844000D01*
X52183516Y-77844000D01*
X52386564Y-77884389D01*
X52386564Y-77884389D01*
G37*
G36*
X85386564Y-77884389D02*
G01*
X85577833Y-77963615D01*
X85577835Y-77963616D01*
X85749973Y-78078635D01*
X85896365Y-78225027D01*
X86011385Y-78397167D01*
X86090611Y-78588436D01*
X86131000Y-78791484D01*
X86131000Y-78998516D01*
X86090611Y-79201564D01*
X86011385Y-79392833D01*
X86011384Y-79392835D01*
X85896365Y-79564973D01*
X85749973Y-79711365D01*
X85577835Y-79826384D01*
X85577834Y-79826385D01*
X85577833Y-79826385D01*
X85386564Y-79905611D01*
X85183516Y-79946000D01*
X84976484Y-79946000D01*
X84773436Y-79905611D01*
X84582167Y-79826385D01*
X84582166Y-79826385D01*
X84582165Y-79826384D01*
X84410027Y-79711365D01*
X84263635Y-79564973D01*
X84148616Y-79392835D01*
X84148615Y-79392833D01*
X84069389Y-79201564D01*
X84029000Y-78998516D01*
X84029000Y-78791484D01*
X84069389Y-78588436D01*
X84148615Y-78397167D01*
X84263635Y-78225027D01*
X84410027Y-78078635D01*
X84582165Y-77963616D01*
X84582167Y-77963615D01*
X84773436Y-77884389D01*
X84976484Y-77844000D01*
X85183516Y-77844000D01*
X85386564Y-77884389D01*
X85386564Y-77884389D01*
G37*
G36*
X57293512Y-75498927D02*
G01*
X57442812Y-75528624D01*
X57606784Y-75596544D01*
X57754354Y-75695147D01*
X57879853Y-75820646D01*
X57978456Y-75968216D01*
X58046376Y-76132188D01*
X58081000Y-76306259D01*
X58081000Y-76483741D01*
X58046376Y-76657812D01*
X57978456Y-76821784D01*
X57879853Y-76969354D01*
X57754354Y-77094853D01*
X57606784Y-77193456D01*
X57442812Y-77261376D01*
X57293512Y-77291073D01*
X57268742Y-77296000D01*
X57091258Y-77296000D01*
X57066488Y-77291073D01*
X56917188Y-77261376D01*
X56753216Y-77193456D01*
X56605646Y-77094853D01*
X56480147Y-76969354D01*
X56381544Y-76821784D01*
X56313624Y-76657812D01*
X56279000Y-76483741D01*
X56279000Y-76306259D01*
X56313624Y-76132188D01*
X56381544Y-75968216D01*
X56480147Y-75820646D01*
X56605646Y-75695147D01*
X56753216Y-75596544D01*
X56917188Y-75528624D01*
X57066488Y-75498927D01*
X57091258Y-75494000D01*
X57268742Y-75494000D01*
X57293512Y-75498927D01*
X57293512Y-75498927D01*
G37*
G36*
X80093512Y-75498927D02*
G01*
X80242812Y-75528624D01*
X80406784Y-75596544D01*
X80554354Y-75695147D01*
X80679853Y-75820646D01*
X80778456Y-75968216D01*
X80846376Y-76132188D01*
X80881000Y-76306259D01*
X80881000Y-76483741D01*
X80846376Y-76657812D01*
X80778456Y-76821784D01*
X80679853Y-76969354D01*
X80554354Y-77094853D01*
X80406784Y-77193456D01*
X80242812Y-77261376D01*
X80093512Y-77291073D01*
X80068742Y-77296000D01*
X79891258Y-77296000D01*
X79866488Y-77291073D01*
X79717188Y-77261376D01*
X79553216Y-77193456D01*
X79405646Y-77094853D01*
X79280147Y-76969354D01*
X79181544Y-76821784D01*
X79113624Y-76657812D01*
X79079000Y-76483741D01*
X79079000Y-76306259D01*
X79113624Y-76132188D01*
X79181544Y-75968216D01*
X79280147Y-75820646D01*
X79405646Y-75695147D01*
X79553216Y-75596544D01*
X79717188Y-75528624D01*
X79866488Y-75498927D01*
X79891258Y-75494000D01*
X80068742Y-75494000D01*
X80093512Y-75498927D01*
X80093512Y-75498927D01*
G37*
G36*
X62496000Y-73926000D02*
G01*
X60694000Y-73926000D01*
X60694000Y-72124000D01*
X62496000Y-72124000D01*
X62496000Y-73926000D01*
X62496000Y-73926000D01*
G37*
G36*
X61705442Y-69590518D02*
G01*
X61771627Y-69597037D01*
X61941466Y-69648557D01*
X62097991Y-69732222D01*
X62132083Y-69760201D01*
X62235186Y-69844814D01*
X62318448Y-69946271D01*
X62347778Y-69982009D01*
X62431443Y-70138534D01*
X62482963Y-70308373D01*
X62500359Y-70485000D01*
X62482963Y-70661627D01*
X62431443Y-70831466D01*
X62347778Y-70987991D01*
X62318448Y-71023729D01*
X62235186Y-71125186D01*
X62133729Y-71208448D01*
X62097991Y-71237778D01*
X61941466Y-71321443D01*
X61771627Y-71372963D01*
X61705442Y-71379482D01*
X61639260Y-71386000D01*
X61550740Y-71386000D01*
X61484558Y-71379482D01*
X61418373Y-71372963D01*
X61248534Y-71321443D01*
X61092009Y-71237778D01*
X61056271Y-71208448D01*
X60954814Y-71125186D01*
X60871552Y-71023729D01*
X60842222Y-70987991D01*
X60758557Y-70831466D01*
X60707037Y-70661627D01*
X60689641Y-70485000D01*
X60707037Y-70308373D01*
X60758557Y-70138534D01*
X60842222Y-69982009D01*
X60871552Y-69946271D01*
X60954814Y-69844814D01*
X61057917Y-69760201D01*
X61092009Y-69732222D01*
X61248534Y-69648557D01*
X61418373Y-69597037D01*
X61484558Y-69590518D01*
X61550740Y-69584000D01*
X61639260Y-69584000D01*
X61705442Y-69590518D01*
X61705442Y-69590518D01*
G37*
G36*
X54834549Y-68086116D02*
G01*
X54945734Y-68108232D01*
X55155203Y-68194997D01*
X55343720Y-68320960D01*
X55504040Y-68481280D01*
X55630003Y-68669797D01*
X55716768Y-68879266D01*
X55761000Y-69101636D01*
X55761000Y-69328364D01*
X55716768Y-69550734D01*
X55630003Y-69760203D01*
X55504040Y-69948720D01*
X55343720Y-70109040D01*
X55155203Y-70235003D01*
X54945734Y-70321768D01*
X54834549Y-70343884D01*
X54723365Y-70366000D01*
X54496635Y-70366000D01*
X54385451Y-70343884D01*
X54274266Y-70321768D01*
X54064797Y-70235003D01*
X53876280Y-70109040D01*
X53715960Y-69948720D01*
X53589997Y-69760203D01*
X53503232Y-69550734D01*
X53459000Y-69328364D01*
X53459000Y-69101636D01*
X53503232Y-68879266D01*
X53589997Y-68669797D01*
X53715960Y-68481280D01*
X53876280Y-68320960D01*
X54064797Y-68194997D01*
X54274266Y-68108232D01*
X54385451Y-68086116D01*
X54496635Y-68064000D01*
X54723365Y-68064000D01*
X54834549Y-68086116D01*
X54834549Y-68086116D01*
G37*
G36*
X61705443Y-67050519D02*
G01*
X61771627Y-67057037D01*
X61941466Y-67108557D01*
X62097991Y-67192222D01*
X62133729Y-67221552D01*
X62235186Y-67304814D01*
X62318448Y-67406271D01*
X62347778Y-67442009D01*
X62431443Y-67598534D01*
X62482963Y-67768373D01*
X62500359Y-67945000D01*
X62482963Y-68121627D01*
X62431443Y-68291466D01*
X62347778Y-68447991D01*
X62320458Y-68481280D01*
X62235186Y-68585186D01*
X62133729Y-68668448D01*
X62097991Y-68697778D01*
X61941466Y-68781443D01*
X61771627Y-68832963D01*
X61705443Y-68839481D01*
X61639260Y-68846000D01*
X61550740Y-68846000D01*
X61484557Y-68839481D01*
X61418373Y-68832963D01*
X61248534Y-68781443D01*
X61092009Y-68697778D01*
X61056271Y-68668448D01*
X60954814Y-68585186D01*
X60869542Y-68481280D01*
X60842222Y-68447991D01*
X60758557Y-68291466D01*
X60707037Y-68121627D01*
X60689641Y-67945000D01*
X60707037Y-67768373D01*
X60758557Y-67598534D01*
X60842222Y-67442009D01*
X60871552Y-67406271D01*
X60954814Y-67304814D01*
X61056271Y-67221552D01*
X61092009Y-67192222D01*
X61248534Y-67108557D01*
X61418373Y-67057037D01*
X61484557Y-67050519D01*
X61550740Y-67044000D01*
X61639260Y-67044000D01*
X61705443Y-67050519D01*
X61705443Y-67050519D01*
G37*
G36*
X65579499Y-65518445D02*
G01*
X65616995Y-65529820D01*
X65651554Y-65548292D01*
X65681847Y-65573153D01*
X65706708Y-65603446D01*
X65725180Y-65638005D01*
X65736555Y-65675501D01*
X65741000Y-65720638D01*
X65741000Y-66359362D01*
X65736555Y-66404499D01*
X65725180Y-66441995D01*
X65706708Y-66476554D01*
X65681847Y-66506847D01*
X65651554Y-66531708D01*
X65616995Y-66550180D01*
X65579499Y-66561555D01*
X65534362Y-66566000D01*
X64795638Y-66566000D01*
X64750501Y-66561555D01*
X64713005Y-66550180D01*
X64678446Y-66531708D01*
X64648153Y-66506847D01*
X64623292Y-66476554D01*
X64604820Y-66441995D01*
X64593445Y-66404499D01*
X64589000Y-66359362D01*
X64589000Y-65720638D01*
X64593445Y-65675501D01*
X64604820Y-65638005D01*
X64623292Y-65603446D01*
X64648153Y-65573153D01*
X64678446Y-65548292D01*
X64713005Y-65529820D01*
X64750501Y-65518445D01*
X64795638Y-65514000D01*
X65534362Y-65514000D01*
X65579499Y-65518445D01*
X65579499Y-65518445D01*
G37*
G36*
X70024499Y-65518445D02*
G01*
X70061995Y-65529820D01*
X70096554Y-65548292D01*
X70126847Y-65573153D01*
X70151708Y-65603446D01*
X70170180Y-65638005D01*
X70181555Y-65675501D01*
X70186000Y-65720638D01*
X70186000Y-66359362D01*
X70181555Y-66404499D01*
X70170180Y-66441995D01*
X70151708Y-66476554D01*
X70126847Y-66506847D01*
X70096554Y-66531708D01*
X70061995Y-66550180D01*
X70024499Y-66561555D01*
X69979362Y-66566000D01*
X69240638Y-66566000D01*
X69195501Y-66561555D01*
X69158005Y-66550180D01*
X69123446Y-66531708D01*
X69093153Y-66506847D01*
X69068292Y-66476554D01*
X69049820Y-66441995D01*
X69038445Y-66404499D01*
X69034000Y-66359362D01*
X69034000Y-65720638D01*
X69038445Y-65675501D01*
X69049820Y-65638005D01*
X69068292Y-65603446D01*
X69093153Y-65573153D01*
X69123446Y-65548292D01*
X69158005Y-65529820D01*
X69195501Y-65518445D01*
X69240638Y-65514000D01*
X69979362Y-65514000D01*
X70024499Y-65518445D01*
X70024499Y-65518445D01*
G37*
G36*
X71774499Y-65518445D02*
G01*
X71811995Y-65529820D01*
X71846554Y-65548292D01*
X71876847Y-65573153D01*
X71901708Y-65603446D01*
X71920180Y-65638005D01*
X71931555Y-65675501D01*
X71936000Y-65720638D01*
X71936000Y-66359362D01*
X71931555Y-66404499D01*
X71920180Y-66441995D01*
X71901708Y-66476554D01*
X71876847Y-66506847D01*
X71846554Y-66531708D01*
X71811995Y-66550180D01*
X71774499Y-66561555D01*
X71729362Y-66566000D01*
X70990638Y-66566000D01*
X70945501Y-66561555D01*
X70908005Y-66550180D01*
X70873446Y-66531708D01*
X70843153Y-66506847D01*
X70818292Y-66476554D01*
X70799820Y-66441995D01*
X70788445Y-66404499D01*
X70784000Y-66359362D01*
X70784000Y-65720638D01*
X70788445Y-65675501D01*
X70799820Y-65638005D01*
X70818292Y-65603446D01*
X70843153Y-65573153D01*
X70873446Y-65548292D01*
X70908005Y-65529820D01*
X70945501Y-65518445D01*
X70990638Y-65514000D01*
X71729362Y-65514000D01*
X71774499Y-65518445D01*
X71774499Y-65518445D01*
G37*
G36*
X67329499Y-65518445D02*
G01*
X67366995Y-65529820D01*
X67401554Y-65548292D01*
X67431847Y-65573153D01*
X67456708Y-65603446D01*
X67475180Y-65638005D01*
X67486555Y-65675501D01*
X67491000Y-65720638D01*
X67491000Y-66359362D01*
X67486555Y-66404499D01*
X67475180Y-66441995D01*
X67456708Y-66476554D01*
X67431847Y-66506847D01*
X67401554Y-66531708D01*
X67366995Y-66550180D01*
X67329499Y-66561555D01*
X67284362Y-66566000D01*
X66545638Y-66566000D01*
X66500501Y-66561555D01*
X66463005Y-66550180D01*
X66428446Y-66531708D01*
X66398153Y-66506847D01*
X66373292Y-66476554D01*
X66354820Y-66441995D01*
X66343445Y-66404499D01*
X66339000Y-66359362D01*
X66339000Y-65720638D01*
X66343445Y-65675501D01*
X66354820Y-65638005D01*
X66373292Y-65603446D01*
X66398153Y-65573153D01*
X66428446Y-65548292D01*
X66463005Y-65529820D01*
X66500501Y-65518445D01*
X66545638Y-65514000D01*
X67284362Y-65514000D01*
X67329499Y-65518445D01*
X67329499Y-65518445D01*
G37*
G36*
X61705442Y-64510518D02*
G01*
X61771627Y-64517037D01*
X61941466Y-64568557D01*
X62097991Y-64652222D01*
X62133729Y-64681552D01*
X62235186Y-64764814D01*
X62318448Y-64866271D01*
X62347778Y-64902009D01*
X62431443Y-65058534D01*
X62482963Y-65228373D01*
X62500359Y-65405000D01*
X62482963Y-65581627D01*
X62431443Y-65751466D01*
X62347778Y-65907991D01*
X62318448Y-65943729D01*
X62235186Y-66045186D01*
X62133729Y-66128448D01*
X62097991Y-66157778D01*
X61941466Y-66241443D01*
X61771627Y-66292963D01*
X61705443Y-66299481D01*
X61639260Y-66306000D01*
X61550740Y-66306000D01*
X61484557Y-66299481D01*
X61418373Y-66292963D01*
X61248534Y-66241443D01*
X61092009Y-66157778D01*
X61056271Y-66128448D01*
X60954814Y-66045186D01*
X60871552Y-65943729D01*
X60842222Y-65907991D01*
X60758557Y-65751466D01*
X60707037Y-65581627D01*
X60689641Y-65405000D01*
X60707037Y-65228373D01*
X60758557Y-65058534D01*
X60842222Y-64902009D01*
X60871552Y-64866271D01*
X60954814Y-64764814D01*
X61056271Y-64681552D01*
X61092009Y-64652222D01*
X61248534Y-64568557D01*
X61418373Y-64517037D01*
X61484558Y-64510518D01*
X61550740Y-64504000D01*
X61639260Y-64504000D01*
X61705442Y-64510518D01*
X61705442Y-64510518D01*
G37*
G36*
X67167880Y-59168686D02*
G01*
X67187994Y-59172686D01*
X67192085Y-59174381D01*
X67192093Y-59174383D01*
X67201381Y-59178230D01*
X67201390Y-59178235D01*
X67205480Y-59179929D01*
X67221192Y-59190427D01*
X67222316Y-59191551D01*
X67241258Y-59207096D01*
X67262869Y-59218647D01*
X67286318Y-59225760D01*
X67310704Y-59228162D01*
X67335090Y-59225760D01*
X67358539Y-59218647D01*
X67380150Y-59207096D01*
X67399092Y-59191551D01*
X67407331Y-59182460D01*
X67411897Y-59176896D01*
X67415669Y-59173800D01*
X67419971Y-59171501D01*
X67424645Y-59170083D01*
X67435641Y-59169000D01*
X67724359Y-59169000D01*
X67735355Y-59170083D01*
X67740029Y-59171501D01*
X67744330Y-59173800D01*
X67750702Y-59179029D01*
X67771076Y-59192643D01*
X67793715Y-59202020D01*
X67817749Y-59206800D01*
X67842253Y-59206800D01*
X67866286Y-59202019D01*
X67888925Y-59192642D01*
X67909298Y-59179029D01*
X67915670Y-59173800D01*
X67919971Y-59171501D01*
X67924645Y-59170083D01*
X67935641Y-59169000D01*
X68224359Y-59169000D01*
X68235355Y-59170083D01*
X68240029Y-59171501D01*
X68244330Y-59173800D01*
X68250702Y-59179029D01*
X68271076Y-59192643D01*
X68293715Y-59202020D01*
X68317749Y-59206800D01*
X68342253Y-59206800D01*
X68366286Y-59202019D01*
X68388925Y-59192642D01*
X68409298Y-59179029D01*
X68415670Y-59173800D01*
X68419971Y-59171501D01*
X68424645Y-59170083D01*
X68435641Y-59169000D01*
X68724359Y-59169000D01*
X68735355Y-59170083D01*
X68740029Y-59171501D01*
X68744330Y-59173800D01*
X68750702Y-59179029D01*
X68771076Y-59192643D01*
X68793715Y-59202020D01*
X68817749Y-59206800D01*
X68842253Y-59206800D01*
X68866286Y-59202019D01*
X68888925Y-59192642D01*
X68909298Y-59179029D01*
X68915670Y-59173800D01*
X68919971Y-59171501D01*
X68924645Y-59170083D01*
X68935641Y-59169000D01*
X69224359Y-59169000D01*
X69235355Y-59170083D01*
X69240029Y-59171501D01*
X69244330Y-59173800D01*
X69250702Y-59179029D01*
X69271076Y-59192643D01*
X69293715Y-59202020D01*
X69317749Y-59206800D01*
X69342253Y-59206800D01*
X69366286Y-59202019D01*
X69388925Y-59192642D01*
X69409298Y-59179029D01*
X69415670Y-59173800D01*
X69419971Y-59171501D01*
X69424645Y-59170083D01*
X69435641Y-59169000D01*
X69724359Y-59169000D01*
X69735355Y-59170083D01*
X69740029Y-59171501D01*
X69744331Y-59173800D01*
X69748103Y-59176896D01*
X69752669Y-59182460D01*
X69769996Y-59199787D01*
X69790370Y-59213401D01*
X69813008Y-59222779D01*
X69837042Y-59227560D01*
X69861546Y-59227560D01*
X69885579Y-59222780D01*
X69908218Y-59213403D01*
X69928593Y-59199790D01*
X69937684Y-59191551D01*
X69938808Y-59190427D01*
X69954520Y-59179929D01*
X69958610Y-59178235D01*
X69958619Y-59178230D01*
X69967907Y-59174383D01*
X69967915Y-59174381D01*
X69972006Y-59172686D01*
X69992120Y-59168686D01*
X70003061Y-59168148D01*
X70156939Y-59168148D01*
X70167880Y-59168686D01*
X70187994Y-59172686D01*
X70192085Y-59174381D01*
X70192093Y-59174383D01*
X70201381Y-59178230D01*
X70201390Y-59178235D01*
X70205480Y-59179929D01*
X70221192Y-59190427D01*
X70234573Y-59203808D01*
X70245071Y-59219520D01*
X70246765Y-59223610D01*
X70246770Y-59223619D01*
X70250617Y-59232907D01*
X70250619Y-59232915D01*
X70252314Y-59237006D01*
X70256314Y-59257120D01*
X70256852Y-59268061D01*
X70256852Y-59793149D01*
X70259254Y-59817535D01*
X70266367Y-59840984D01*
X70277918Y-59862595D01*
X70293463Y-59881537D01*
X70312405Y-59897082D01*
X70334016Y-59908633D01*
X70357465Y-59915746D01*
X70381851Y-59918148D01*
X70906939Y-59918148D01*
X70917880Y-59918686D01*
X70937994Y-59922686D01*
X70942085Y-59924381D01*
X70942093Y-59924383D01*
X70951381Y-59928230D01*
X70951390Y-59928235D01*
X70955480Y-59929929D01*
X70971192Y-59940427D01*
X70984573Y-59953808D01*
X70995071Y-59969520D01*
X70996765Y-59973610D01*
X70996770Y-59973619D01*
X71000617Y-59982907D01*
X71000619Y-59982915D01*
X71002314Y-59987006D01*
X71006314Y-60007120D01*
X71006852Y-60018061D01*
X71006852Y-60171939D01*
X71006314Y-60182880D01*
X71002314Y-60202994D01*
X71000619Y-60207085D01*
X71000617Y-60207093D01*
X70996770Y-60216381D01*
X70996765Y-60216390D01*
X70995071Y-60220480D01*
X70984573Y-60236192D01*
X70983449Y-60237316D01*
X70967904Y-60256258D01*
X70956353Y-60277869D01*
X70949240Y-60301318D01*
X70946838Y-60325704D01*
X70949240Y-60350090D01*
X70956353Y-60373539D01*
X70967904Y-60395150D01*
X70983449Y-60414092D01*
X70992540Y-60422331D01*
X70998104Y-60426897D01*
X71001200Y-60430669D01*
X71003499Y-60434971D01*
X71004917Y-60439645D01*
X71006000Y-60450641D01*
X71006000Y-60739359D01*
X71004917Y-60750355D01*
X71003499Y-60755029D01*
X71001200Y-60759330D01*
X70995971Y-60765702D01*
X70982357Y-60786076D01*
X70972980Y-60808715D01*
X70968200Y-60832749D01*
X70968200Y-60857253D01*
X70972981Y-60881286D01*
X70982358Y-60903925D01*
X70995971Y-60924298D01*
X71001200Y-60930670D01*
X71003499Y-60934971D01*
X71004917Y-60939645D01*
X71006000Y-60950641D01*
X71006000Y-61239359D01*
X71004917Y-61250355D01*
X71003499Y-61255029D01*
X71001200Y-61259330D01*
X70995971Y-61265702D01*
X70982357Y-61286076D01*
X70972980Y-61308715D01*
X70968200Y-61332749D01*
X70968200Y-61357253D01*
X70972981Y-61381286D01*
X70982358Y-61403925D01*
X70995971Y-61424298D01*
X71001200Y-61430670D01*
X71003499Y-61434971D01*
X71004917Y-61439645D01*
X71006000Y-61450641D01*
X71006000Y-61739359D01*
X71004917Y-61750355D01*
X71003499Y-61755029D01*
X71001200Y-61759330D01*
X70995971Y-61765702D01*
X70982357Y-61786076D01*
X70972980Y-61808715D01*
X70968200Y-61832749D01*
X70968200Y-61857253D01*
X70972981Y-61881286D01*
X70982358Y-61903925D01*
X70995971Y-61924298D01*
X71001200Y-61930670D01*
X71003499Y-61934971D01*
X71004917Y-61939645D01*
X71006000Y-61950641D01*
X71006000Y-62239359D01*
X71004917Y-62250355D01*
X71003499Y-62255029D01*
X71001200Y-62259330D01*
X70995971Y-62265702D01*
X70982357Y-62286076D01*
X70972980Y-62308715D01*
X70968200Y-62332749D01*
X70968200Y-62357253D01*
X70972981Y-62381286D01*
X70982358Y-62403925D01*
X70995971Y-62424298D01*
X71001200Y-62430670D01*
X71003499Y-62434971D01*
X71004917Y-62439645D01*
X71006000Y-62450641D01*
X71006000Y-62739359D01*
X71004917Y-62750355D01*
X71003499Y-62755029D01*
X71001200Y-62759331D01*
X70998104Y-62763103D01*
X70992540Y-62767669D01*
X70975213Y-62784996D01*
X70961599Y-62805370D01*
X70952221Y-62828008D01*
X70947440Y-62852042D01*
X70947440Y-62876546D01*
X70952220Y-62900579D01*
X70961597Y-62923218D01*
X70975210Y-62943593D01*
X70983449Y-62952684D01*
X70984573Y-62953808D01*
X70995071Y-62969520D01*
X70996765Y-62973610D01*
X70996770Y-62973619D01*
X71000617Y-62982907D01*
X71000619Y-62982915D01*
X71002314Y-62987006D01*
X71006314Y-63007120D01*
X71006852Y-63018061D01*
X71006852Y-63171939D01*
X71006314Y-63182880D01*
X71002314Y-63202994D01*
X71000619Y-63207085D01*
X71000617Y-63207093D01*
X70996770Y-63216381D01*
X70996765Y-63216390D01*
X70995071Y-63220480D01*
X70984573Y-63236192D01*
X70971192Y-63249573D01*
X70955480Y-63260071D01*
X70951390Y-63261765D01*
X70951381Y-63261770D01*
X70942093Y-63265617D01*
X70942085Y-63265619D01*
X70937994Y-63267314D01*
X70917880Y-63271314D01*
X70906939Y-63271852D01*
X70381851Y-63271852D01*
X70357465Y-63274254D01*
X70334016Y-63281367D01*
X70312405Y-63292918D01*
X70293463Y-63308463D01*
X70277918Y-63327405D01*
X70266367Y-63349016D01*
X70259254Y-63372465D01*
X70256852Y-63396851D01*
X70256852Y-63921939D01*
X70256314Y-63932880D01*
X70252314Y-63952994D01*
X70250619Y-63957085D01*
X70250617Y-63957093D01*
X70246770Y-63966381D01*
X70246765Y-63966390D01*
X70245071Y-63970480D01*
X70234573Y-63986192D01*
X70221192Y-63999573D01*
X70205480Y-64010071D01*
X70201390Y-64011765D01*
X70201381Y-64011770D01*
X70192093Y-64015617D01*
X70192085Y-64015619D01*
X70187994Y-64017314D01*
X70167880Y-64021314D01*
X70156939Y-64021852D01*
X70003061Y-64021852D01*
X69992120Y-64021314D01*
X69972006Y-64017314D01*
X69967915Y-64015619D01*
X69967907Y-64015617D01*
X69958619Y-64011770D01*
X69958610Y-64011765D01*
X69954520Y-64010071D01*
X69938808Y-63999573D01*
X69937684Y-63998449D01*
X69918742Y-63982904D01*
X69897131Y-63971353D01*
X69873682Y-63964240D01*
X69849296Y-63961838D01*
X69824910Y-63964240D01*
X69801461Y-63971353D01*
X69779850Y-63982904D01*
X69760908Y-63998449D01*
X69752669Y-64007540D01*
X69748103Y-64013104D01*
X69744331Y-64016200D01*
X69740029Y-64018499D01*
X69735355Y-64019917D01*
X69724359Y-64021000D01*
X69435641Y-64021000D01*
X69424645Y-64019917D01*
X69419971Y-64018499D01*
X69415670Y-64016200D01*
X69409298Y-64010971D01*
X69388924Y-63997357D01*
X69366285Y-63987980D01*
X69342251Y-63983200D01*
X69317747Y-63983200D01*
X69293714Y-63987981D01*
X69271075Y-63997358D01*
X69250702Y-64010971D01*
X69244330Y-64016200D01*
X69240029Y-64018499D01*
X69235355Y-64019917D01*
X69224359Y-64021000D01*
X68935641Y-64021000D01*
X68924645Y-64019917D01*
X68919971Y-64018499D01*
X68915670Y-64016200D01*
X68909298Y-64010971D01*
X68888924Y-63997357D01*
X68866285Y-63987980D01*
X68842251Y-63983200D01*
X68817747Y-63983200D01*
X68793714Y-63987981D01*
X68771075Y-63997358D01*
X68750702Y-64010971D01*
X68744330Y-64016200D01*
X68740029Y-64018499D01*
X68735355Y-64019917D01*
X68724359Y-64021000D01*
X68435641Y-64021000D01*
X68424645Y-64019917D01*
X68419971Y-64018499D01*
X68415670Y-64016200D01*
X68409298Y-64010971D01*
X68388924Y-63997357D01*
X68366285Y-63987980D01*
X68342251Y-63983200D01*
X68317747Y-63983200D01*
X68293714Y-63987981D01*
X68271075Y-63997358D01*
X68250702Y-64010971D01*
X68244330Y-64016200D01*
X68240029Y-64018499D01*
X68235355Y-64019917D01*
X68224359Y-64021000D01*
X67935641Y-64021000D01*
X67924645Y-64019917D01*
X67919971Y-64018499D01*
X67915670Y-64016200D01*
X67909298Y-64010971D01*
X67888924Y-63997357D01*
X67866285Y-63987980D01*
X67842251Y-63983200D01*
X67817747Y-63983200D01*
X67793714Y-63987981D01*
X67771075Y-63997358D01*
X67750702Y-64010971D01*
X67744330Y-64016200D01*
X67740029Y-64018499D01*
X67735355Y-64019917D01*
X67724359Y-64021000D01*
X67435641Y-64021000D01*
X67424645Y-64019917D01*
X67419971Y-64018499D01*
X67415669Y-64016200D01*
X67411897Y-64013104D01*
X67407331Y-64007540D01*
X67390004Y-63990213D01*
X67369630Y-63976599D01*
X67346992Y-63967221D01*
X67322958Y-63962440D01*
X67298454Y-63962440D01*
X67274421Y-63967220D01*
X67251782Y-63976597D01*
X67231407Y-63990210D01*
X67222316Y-63998449D01*
X67221192Y-63999573D01*
X67205480Y-64010071D01*
X67201390Y-64011765D01*
X67201381Y-64011770D01*
X67192093Y-64015617D01*
X67192085Y-64015619D01*
X67187994Y-64017314D01*
X67167880Y-64021314D01*
X67156939Y-64021852D01*
X67003061Y-64021852D01*
X66992120Y-64021314D01*
X66972006Y-64017314D01*
X66967915Y-64015619D01*
X66967907Y-64015617D01*
X66958619Y-64011770D01*
X66958610Y-64011765D01*
X66954520Y-64010071D01*
X66938808Y-63999573D01*
X66925427Y-63986192D01*
X66914929Y-63970480D01*
X66913235Y-63966390D01*
X66913230Y-63966381D01*
X66909383Y-63957093D01*
X66909381Y-63957085D01*
X66907686Y-63952994D01*
X66903686Y-63932880D01*
X66903148Y-63921939D01*
X66903148Y-63396851D01*
X66900746Y-63372465D01*
X66893633Y-63349016D01*
X66882082Y-63327405D01*
X66866537Y-63308463D01*
X66847595Y-63292918D01*
X66825984Y-63281367D01*
X66802535Y-63274254D01*
X66778149Y-63271852D01*
X66253061Y-63271852D01*
X66242120Y-63271314D01*
X66222006Y-63267314D01*
X66217915Y-63265619D01*
X66217907Y-63265617D01*
X66208619Y-63261770D01*
X66208610Y-63261765D01*
X66204520Y-63260071D01*
X66188808Y-63249573D01*
X66175427Y-63236192D01*
X66164929Y-63220480D01*
X66163235Y-63216390D01*
X66163230Y-63216381D01*
X66159383Y-63207093D01*
X66159381Y-63207085D01*
X66157686Y-63202994D01*
X66153686Y-63182880D01*
X66153148Y-63171939D01*
X66153148Y-63018061D01*
X66153686Y-63007120D01*
X66157686Y-62987006D01*
X66159381Y-62982915D01*
X66159383Y-62982907D01*
X66163230Y-62973619D01*
X66163235Y-62973610D01*
X66164929Y-62969520D01*
X66175427Y-62953808D01*
X66176551Y-62952684D01*
X66192096Y-62933742D01*
X66203647Y-62912131D01*
X66210760Y-62888682D01*
X66213162Y-62864296D01*
X66210760Y-62839910D01*
X66203647Y-62816461D01*
X66192096Y-62794850D01*
X66176551Y-62775908D01*
X66167460Y-62767669D01*
X66161896Y-62763103D01*
X66158800Y-62759331D01*
X66156501Y-62755029D01*
X66155083Y-62750355D01*
X66154000Y-62739359D01*
X66154000Y-62450641D01*
X66155083Y-62439645D01*
X66156501Y-62434971D01*
X66158800Y-62430670D01*
X66164029Y-62424298D01*
X66177643Y-62403924D01*
X66187020Y-62381285D01*
X66191800Y-62357251D01*
X66191800Y-62332747D01*
X66187019Y-62308714D01*
X66177642Y-62286075D01*
X66164029Y-62265702D01*
X66158800Y-62259330D01*
X66156501Y-62255029D01*
X66155083Y-62250355D01*
X66154000Y-62239359D01*
X66154000Y-61950641D01*
X66155083Y-61939645D01*
X66156501Y-61934971D01*
X66158800Y-61930670D01*
X66164029Y-61924298D01*
X66177643Y-61903924D01*
X66187020Y-61881285D01*
X66191800Y-61857251D01*
X66191800Y-61832747D01*
X66187019Y-61808714D01*
X66177642Y-61786075D01*
X66164029Y-61765702D01*
X66158800Y-61759330D01*
X66156501Y-61755029D01*
X66155083Y-61750355D01*
X66154000Y-61739359D01*
X66154000Y-61450641D01*
X66155083Y-61439645D01*
X66156501Y-61434971D01*
X66158800Y-61430670D01*
X66164029Y-61424298D01*
X66177643Y-61403924D01*
X66187020Y-61381285D01*
X66191800Y-61357251D01*
X66191800Y-61332747D01*
X66187019Y-61308714D01*
X66177642Y-61286075D01*
X66164029Y-61265702D01*
X66158800Y-61259330D01*
X66156501Y-61255029D01*
X66155083Y-61250355D01*
X66154000Y-61239359D01*
X66154000Y-60950641D01*
X66155083Y-60939645D01*
X66156501Y-60934971D01*
X66158800Y-60930670D01*
X66164029Y-60924298D01*
X66177643Y-60903924D01*
X66187020Y-60881285D01*
X66191800Y-60857251D01*
X66191800Y-60832747D01*
X66187019Y-60808714D01*
X66177642Y-60786075D01*
X66164029Y-60765702D01*
X66158800Y-60759330D01*
X66156501Y-60755029D01*
X66155083Y-60750355D01*
X66154000Y-60739359D01*
X66154000Y-60450641D01*
X66155083Y-60439645D01*
X66156501Y-60434971D01*
X66158800Y-60430669D01*
X66161896Y-60426897D01*
X66167460Y-60422331D01*
X66184787Y-60405004D01*
X66198401Y-60384630D01*
X66207779Y-60361992D01*
X66212560Y-60337958D01*
X66212560Y-60313454D01*
X66208692Y-60294004D01*
X66976282Y-60294004D01*
X66978684Y-60318390D01*
X66985798Y-60341839D01*
X66997350Y-60363449D01*
X67012896Y-60382391D01*
X67031838Y-60397936D01*
X67053449Y-60409486D01*
X67076898Y-60416599D01*
X67093265Y-60418211D01*
X67093247Y-60418398D01*
X67110355Y-60420083D01*
X67115029Y-60421501D01*
X67119331Y-60423800D01*
X67123104Y-60426896D01*
X67126200Y-60430669D01*
X67128499Y-60434971D01*
X67129917Y-60439645D01*
X67131000Y-60450641D01*
X67131000Y-60739359D01*
X67129917Y-60750355D01*
X67128499Y-60755029D01*
X67126200Y-60759330D01*
X67120971Y-60765702D01*
X67107357Y-60786076D01*
X67097980Y-60808715D01*
X67093200Y-60832749D01*
X67093200Y-60857253D01*
X67097981Y-60881286D01*
X67107358Y-60903925D01*
X67120971Y-60924298D01*
X67126200Y-60930670D01*
X67128499Y-60934971D01*
X67129917Y-60939645D01*
X67131000Y-60950641D01*
X67131000Y-61239359D01*
X67129917Y-61250355D01*
X67128499Y-61255029D01*
X67126200Y-61259330D01*
X67120971Y-61265702D01*
X67107357Y-61286076D01*
X67097980Y-61308715D01*
X67093200Y-61332749D01*
X67093200Y-61357253D01*
X67097981Y-61381286D01*
X67107358Y-61403925D01*
X67120971Y-61424298D01*
X67126200Y-61430670D01*
X67128499Y-61434971D01*
X67129917Y-61439645D01*
X67131000Y-61450641D01*
X67131000Y-61739359D01*
X67129917Y-61750355D01*
X67128499Y-61755029D01*
X67126200Y-61759330D01*
X67120971Y-61765702D01*
X67107357Y-61786076D01*
X67097980Y-61808715D01*
X67093200Y-61832749D01*
X67093200Y-61857253D01*
X67097981Y-61881286D01*
X67107358Y-61903925D01*
X67120971Y-61924298D01*
X67126200Y-61930670D01*
X67128499Y-61934971D01*
X67129917Y-61939645D01*
X67131000Y-61950641D01*
X67131000Y-62239359D01*
X67129917Y-62250355D01*
X67128499Y-62255029D01*
X67126200Y-62259330D01*
X67120971Y-62265702D01*
X67107357Y-62286076D01*
X67097980Y-62308715D01*
X67093200Y-62332749D01*
X67093200Y-62357253D01*
X67097981Y-62381286D01*
X67107358Y-62403925D01*
X67120971Y-62424298D01*
X67126200Y-62430670D01*
X67128499Y-62434971D01*
X67129917Y-62439645D01*
X67131000Y-62450641D01*
X67131000Y-62739359D01*
X67129917Y-62750355D01*
X67128499Y-62755029D01*
X67126200Y-62759331D01*
X67123104Y-62763104D01*
X67119331Y-62766200D01*
X67115029Y-62768499D01*
X67110355Y-62769917D01*
X67093247Y-62771602D01*
X67093265Y-62771790D01*
X67076895Y-62773402D01*
X67053446Y-62780515D01*
X67031835Y-62792066D01*
X67012893Y-62807611D01*
X66997348Y-62826553D01*
X66985797Y-62848164D01*
X66978684Y-62871613D01*
X66976282Y-62895999D01*
X66978684Y-62920385D01*
X66985797Y-62943834D01*
X66997346Y-62965442D01*
X67000072Y-62969522D01*
X67001766Y-62973611D01*
X67001770Y-62973619D01*
X67005617Y-62982907D01*
X67005619Y-62982915D01*
X67007314Y-62987006D01*
X67011314Y-63007120D01*
X67011852Y-63018061D01*
X67011852Y-63038149D01*
X67014254Y-63062535D01*
X67021367Y-63085984D01*
X67032918Y-63107595D01*
X67048463Y-63126537D01*
X67067405Y-63142082D01*
X67089016Y-63153633D01*
X67112465Y-63160746D01*
X67136851Y-63163148D01*
X67156939Y-63163148D01*
X67167880Y-63163686D01*
X67187994Y-63167686D01*
X67192085Y-63169381D01*
X67192093Y-63169383D01*
X67201381Y-63173230D01*
X67201389Y-63173234D01*
X67205478Y-63174928D01*
X67209558Y-63177654D01*
X67231169Y-63189204D01*
X67254618Y-63196317D01*
X67279004Y-63198718D01*
X67303390Y-63196316D01*
X67326839Y-63189202D01*
X67348449Y-63177650D01*
X67367391Y-63162104D01*
X67382936Y-63143162D01*
X67394486Y-63121551D01*
X67401599Y-63098102D01*
X67403211Y-63081735D01*
X67403398Y-63081753D01*
X67405083Y-63064645D01*
X67406501Y-63059971D01*
X67408800Y-63055669D01*
X67411896Y-63051896D01*
X67415669Y-63048800D01*
X67419971Y-63046501D01*
X67424645Y-63045083D01*
X67435641Y-63044000D01*
X67724359Y-63044000D01*
X67735355Y-63045083D01*
X67740029Y-63046501D01*
X67744330Y-63048800D01*
X67750702Y-63054029D01*
X67771076Y-63067643D01*
X67793715Y-63077020D01*
X67817749Y-63081800D01*
X67842253Y-63081800D01*
X67866286Y-63077019D01*
X67888925Y-63067642D01*
X67909298Y-63054029D01*
X67915670Y-63048800D01*
X67919971Y-63046501D01*
X67924645Y-63045083D01*
X67935641Y-63044000D01*
X68224359Y-63044000D01*
X68235355Y-63045083D01*
X68240029Y-63046501D01*
X68244330Y-63048800D01*
X68250702Y-63054029D01*
X68271076Y-63067643D01*
X68293715Y-63077020D01*
X68317749Y-63081800D01*
X68342253Y-63081800D01*
X68366286Y-63077019D01*
X68388925Y-63067642D01*
X68409298Y-63054029D01*
X68415670Y-63048800D01*
X68419971Y-63046501D01*
X68424645Y-63045083D01*
X68435641Y-63044000D01*
X68724359Y-63044000D01*
X68735355Y-63045083D01*
X68740029Y-63046501D01*
X68744330Y-63048800D01*
X68750702Y-63054029D01*
X68771076Y-63067643D01*
X68793715Y-63077020D01*
X68817749Y-63081800D01*
X68842253Y-63081800D01*
X68866286Y-63077019D01*
X68888925Y-63067642D01*
X68909298Y-63054029D01*
X68915670Y-63048800D01*
X68919971Y-63046501D01*
X68924645Y-63045083D01*
X68935641Y-63044000D01*
X69224359Y-63044000D01*
X69235355Y-63045083D01*
X69240029Y-63046501D01*
X69244330Y-63048800D01*
X69250702Y-63054029D01*
X69271076Y-63067643D01*
X69293715Y-63077020D01*
X69317749Y-63081800D01*
X69342253Y-63081800D01*
X69366286Y-63077019D01*
X69388925Y-63067642D01*
X69409298Y-63054029D01*
X69415670Y-63048800D01*
X69419971Y-63046501D01*
X69424645Y-63045083D01*
X69435641Y-63044000D01*
X69724359Y-63044000D01*
X69735355Y-63045083D01*
X69740029Y-63046501D01*
X69744331Y-63048800D01*
X69748104Y-63051896D01*
X69751200Y-63055669D01*
X69753499Y-63059971D01*
X69754917Y-63064645D01*
X69756602Y-63081753D01*
X69756790Y-63081735D01*
X69758402Y-63098105D01*
X69765515Y-63121554D01*
X69777066Y-63143165D01*
X69792611Y-63162107D01*
X69811553Y-63177652D01*
X69833164Y-63189203D01*
X69856613Y-63196316D01*
X69880999Y-63198718D01*
X69905385Y-63196316D01*
X69928834Y-63189203D01*
X69950442Y-63177654D01*
X69954522Y-63174928D01*
X69958611Y-63173234D01*
X69958619Y-63173230D01*
X69967907Y-63169383D01*
X69967915Y-63169381D01*
X69972006Y-63167686D01*
X69992120Y-63163686D01*
X70003061Y-63163148D01*
X70023149Y-63163148D01*
X70047535Y-63160746D01*
X70070984Y-63153633D01*
X70092595Y-63142082D01*
X70111537Y-63126537D01*
X70127082Y-63107595D01*
X70138633Y-63085984D01*
X70145746Y-63062535D01*
X70148148Y-63038149D01*
X70148148Y-63018061D01*
X70148686Y-63007120D01*
X70152686Y-62987006D01*
X70154381Y-62982915D01*
X70154383Y-62982907D01*
X70158230Y-62973619D01*
X70158234Y-62973611D01*
X70159928Y-62969522D01*
X70162654Y-62965442D01*
X70174204Y-62943831D01*
X70181317Y-62920382D01*
X70183718Y-62895996D01*
X70181316Y-62871610D01*
X70174202Y-62848161D01*
X70162650Y-62826551D01*
X70147104Y-62807609D01*
X70128162Y-62792064D01*
X70106551Y-62780514D01*
X70083102Y-62773401D01*
X70066735Y-62771789D01*
X70066753Y-62771602D01*
X70049645Y-62769917D01*
X70044971Y-62768499D01*
X70040669Y-62766200D01*
X70036896Y-62763104D01*
X70033800Y-62759331D01*
X70031501Y-62755029D01*
X70030083Y-62750355D01*
X70029000Y-62739359D01*
X70029000Y-62450641D01*
X70030083Y-62439645D01*
X70031501Y-62434971D01*
X70033800Y-62430670D01*
X70039029Y-62424298D01*
X70052643Y-62403924D01*
X70062020Y-62381285D01*
X70066800Y-62357251D01*
X70066800Y-62332747D01*
X70062019Y-62308714D01*
X70052642Y-62286075D01*
X70039029Y-62265702D01*
X70033800Y-62259330D01*
X70031501Y-62255029D01*
X70030083Y-62250355D01*
X70029000Y-62239359D01*
X70029000Y-61950641D01*
X70030083Y-61939645D01*
X70031501Y-61934971D01*
X70033800Y-61930670D01*
X70039029Y-61924298D01*
X70052643Y-61903924D01*
X70062020Y-61881285D01*
X70066800Y-61857251D01*
X70066800Y-61832747D01*
X70062019Y-61808714D01*
X70052642Y-61786075D01*
X70039029Y-61765702D01*
X70033800Y-61759330D01*
X70031501Y-61755029D01*
X70030083Y-61750355D01*
X70029000Y-61739359D01*
X70029000Y-61450641D01*
X70030083Y-61439645D01*
X70031501Y-61434971D01*
X70033800Y-61430670D01*
X70039029Y-61424298D01*
X70052643Y-61403924D01*
X70062020Y-61381285D01*
X70066800Y-61357251D01*
X70066800Y-61332747D01*
X70062019Y-61308714D01*
X70052642Y-61286075D01*
X70039029Y-61265702D01*
X70033800Y-61259330D01*
X70031501Y-61255029D01*
X70030083Y-61250355D01*
X70029000Y-61239359D01*
X70029000Y-60950641D01*
X70030083Y-60939645D01*
X70031501Y-60934971D01*
X70033800Y-60930670D01*
X70039029Y-60924298D01*
X70052643Y-60903924D01*
X70062020Y-60881285D01*
X70066800Y-60857251D01*
X70066800Y-60832747D01*
X70062019Y-60808714D01*
X70052642Y-60786075D01*
X70039029Y-60765702D01*
X70033800Y-60759330D01*
X70031501Y-60755029D01*
X70030083Y-60750355D01*
X70029000Y-60739359D01*
X70029000Y-60450641D01*
X70030083Y-60439645D01*
X70031501Y-60434971D01*
X70033800Y-60430669D01*
X70036896Y-60426896D01*
X70040669Y-60423800D01*
X70044971Y-60421501D01*
X70049645Y-60420083D01*
X70066753Y-60418398D01*
X70066735Y-60418210D01*
X70083105Y-60416598D01*
X70106554Y-60409485D01*
X70128165Y-60397934D01*
X70147107Y-60382389D01*
X70162652Y-60363447D01*
X70174203Y-60341836D01*
X70181316Y-60318387D01*
X70183718Y-60294001D01*
X70181316Y-60269615D01*
X70174203Y-60246166D01*
X70162654Y-60224558D01*
X70159928Y-60220478D01*
X70158234Y-60216389D01*
X70158230Y-60216381D01*
X70154383Y-60207093D01*
X70154381Y-60207085D01*
X70152686Y-60202994D01*
X70148686Y-60182880D01*
X70148148Y-60171939D01*
X70148148Y-60151851D01*
X70145746Y-60127465D01*
X70138633Y-60104016D01*
X70127082Y-60082405D01*
X70111537Y-60063463D01*
X70092595Y-60047918D01*
X70070984Y-60036367D01*
X70047535Y-60029254D01*
X70023149Y-60026852D01*
X70003061Y-60026852D01*
X69992120Y-60026314D01*
X69972006Y-60022314D01*
X69967915Y-60020619D01*
X69967907Y-60020617D01*
X69958619Y-60016770D01*
X69958611Y-60016766D01*
X69954522Y-60015072D01*
X69950442Y-60012346D01*
X69928831Y-60000796D01*
X69905382Y-59993683D01*
X69880996Y-59991282D01*
X69856610Y-59993684D01*
X69833161Y-60000798D01*
X69811551Y-60012350D01*
X69792609Y-60027896D01*
X69777064Y-60046838D01*
X69765514Y-60068449D01*
X69758401Y-60091898D01*
X69756789Y-60108265D01*
X69756602Y-60108247D01*
X69754917Y-60125355D01*
X69753499Y-60130029D01*
X69751200Y-60134331D01*
X69748104Y-60138104D01*
X69744331Y-60141200D01*
X69740029Y-60143499D01*
X69735355Y-60144917D01*
X69724359Y-60146000D01*
X69435641Y-60146000D01*
X69424645Y-60144917D01*
X69419971Y-60143499D01*
X69415670Y-60141200D01*
X69409298Y-60135971D01*
X69388924Y-60122357D01*
X69366285Y-60112980D01*
X69342251Y-60108200D01*
X69317747Y-60108200D01*
X69293714Y-60112981D01*
X69271075Y-60122358D01*
X69250702Y-60135971D01*
X69244330Y-60141200D01*
X69240029Y-60143499D01*
X69235355Y-60144917D01*
X69224359Y-60146000D01*
X68935641Y-60146000D01*
X68924645Y-60144917D01*
X68919971Y-60143499D01*
X68915670Y-60141200D01*
X68909298Y-60135971D01*
X68888924Y-60122357D01*
X68866285Y-60112980D01*
X68842251Y-60108200D01*
X68817747Y-60108200D01*
X68793714Y-60112981D01*
X68771075Y-60122358D01*
X68750702Y-60135971D01*
X68744330Y-60141200D01*
X68740029Y-60143499D01*
X68735355Y-60144917D01*
X68724359Y-60146000D01*
X68435641Y-60146000D01*
X68424645Y-60144917D01*
X68419971Y-60143499D01*
X68415670Y-60141200D01*
X68409298Y-60135971D01*
X68388924Y-60122357D01*
X68366285Y-60112980D01*
X68342251Y-60108200D01*
X68317747Y-60108200D01*
X68293714Y-60112981D01*
X68271075Y-60122358D01*
X68250702Y-60135971D01*
X68244330Y-60141200D01*
X68240029Y-60143499D01*
X68235355Y-60144917D01*
X68224359Y-60146000D01*
X67935641Y-60146000D01*
X67924645Y-60144917D01*
X67919971Y-60143499D01*
X67915670Y-60141200D01*
X67909298Y-60135971D01*
X67888924Y-60122357D01*
X67866285Y-60112980D01*
X67842251Y-60108200D01*
X67817747Y-60108200D01*
X67793714Y-60112981D01*
X67771075Y-60122358D01*
X67750702Y-60135971D01*
X67744330Y-60141200D01*
X67740029Y-60143499D01*
X67735355Y-60144917D01*
X67724359Y-60146000D01*
X67435641Y-60146000D01*
X67424645Y-60144917D01*
X67419971Y-60143499D01*
X67415669Y-60141200D01*
X67411896Y-60138104D01*
X67408800Y-60134331D01*
X67406501Y-60130029D01*
X67405083Y-60125355D01*
X67403398Y-60108247D01*
X67403210Y-60108265D01*
X67401598Y-60091895D01*
X67394485Y-60068446D01*
X67382934Y-60046835D01*
X67367389Y-60027893D01*
X67348447Y-60012348D01*
X67326836Y-60000797D01*
X67303387Y-59993684D01*
X67279001Y-59991282D01*
X67254615Y-59993684D01*
X67231166Y-60000797D01*
X67209558Y-60012346D01*
X67205478Y-60015072D01*
X67201389Y-60016766D01*
X67201381Y-60016770D01*
X67192093Y-60020617D01*
X67192085Y-60020619D01*
X67187994Y-60022314D01*
X67167880Y-60026314D01*
X67156939Y-60026852D01*
X67136851Y-60026852D01*
X67112465Y-60029254D01*
X67089016Y-60036367D01*
X67067405Y-60047918D01*
X67048463Y-60063463D01*
X67032918Y-60082405D01*
X67021367Y-60104016D01*
X67014254Y-60127465D01*
X67011852Y-60151851D01*
X67011852Y-60171939D01*
X67011314Y-60182880D01*
X67007314Y-60202994D01*
X67005619Y-60207085D01*
X67005617Y-60207093D01*
X67001770Y-60216381D01*
X67001766Y-60216389D01*
X67000072Y-60220478D01*
X66997346Y-60224558D01*
X66985796Y-60246169D01*
X66978683Y-60269618D01*
X66976282Y-60294004D01*
X66208692Y-60294004D01*
X66207780Y-60289421D01*
X66198403Y-60266782D01*
X66184790Y-60246407D01*
X66176551Y-60237316D01*
X66175427Y-60236192D01*
X66164929Y-60220480D01*
X66163235Y-60216390D01*
X66163230Y-60216381D01*
X66159383Y-60207093D01*
X66159381Y-60207085D01*
X66157686Y-60202994D01*
X66153686Y-60182880D01*
X66153148Y-60171939D01*
X66153148Y-60018061D01*
X66153686Y-60007120D01*
X66157686Y-59987006D01*
X66159381Y-59982915D01*
X66159383Y-59982907D01*
X66163230Y-59973619D01*
X66163235Y-59973610D01*
X66164929Y-59969520D01*
X66175427Y-59953808D01*
X66188808Y-59940427D01*
X66204520Y-59929929D01*
X66208610Y-59928235D01*
X66208619Y-59928230D01*
X66217907Y-59924383D01*
X66217915Y-59924381D01*
X66222006Y-59922686D01*
X66242120Y-59918686D01*
X66253061Y-59918148D01*
X66778149Y-59918148D01*
X66802535Y-59915746D01*
X66825984Y-59908633D01*
X66847595Y-59897082D01*
X66866537Y-59881537D01*
X66882082Y-59862595D01*
X66893633Y-59840984D01*
X66900746Y-59817535D01*
X66903148Y-59793149D01*
X66903148Y-59268061D01*
X66903686Y-59257120D01*
X66907686Y-59237006D01*
X66909381Y-59232915D01*
X66909383Y-59232907D01*
X66913230Y-59223619D01*
X66913235Y-59223610D01*
X66914929Y-59219520D01*
X66925427Y-59203808D01*
X66938808Y-59190427D01*
X66954520Y-59179929D01*
X66958610Y-59178235D01*
X66958619Y-59178230D01*
X66967907Y-59174383D01*
X66967915Y-59174381D01*
X66972006Y-59172686D01*
X66992120Y-59168686D01*
X67003061Y-59168148D01*
X67156939Y-59168148D01*
X67167880Y-59168686D01*
X67167880Y-59168686D01*
G37*
G36*
X55461000Y-63516000D02*
G01*
X53759000Y-63516000D01*
X53759000Y-61234000D01*
X55461000Y-61234000D01*
X55461000Y-63516000D01*
X55461000Y-63516000D01*
G37*
G36*
X82503674Y-61998465D02*
G01*
X82541367Y-62009899D01*
X82576103Y-62028466D01*
X82606548Y-62053452D01*
X82631534Y-62083897D01*
X82650101Y-62118633D01*
X82661535Y-62156326D01*
X82666000Y-62201661D01*
X82666000Y-63038339D01*
X82661535Y-63083674D01*
X82650101Y-63121367D01*
X82631534Y-63156103D01*
X82606548Y-63186548D01*
X82576103Y-63211534D01*
X82541367Y-63230101D01*
X82503674Y-63241535D01*
X82458339Y-63246000D01*
X81371661Y-63246000D01*
X81326326Y-63241535D01*
X81288633Y-63230101D01*
X81253897Y-63211534D01*
X81223452Y-63186548D01*
X81198466Y-63156103D01*
X81179899Y-63121367D01*
X81168465Y-63083674D01*
X81164000Y-63038339D01*
X81164000Y-62201661D01*
X81168465Y-62156326D01*
X81179899Y-62118633D01*
X81198466Y-62083897D01*
X81223452Y-62053452D01*
X81253897Y-62028466D01*
X81288633Y-62009899D01*
X81326326Y-61998465D01*
X81371661Y-61994000D01*
X82458339Y-61994000D01*
X82503674Y-61998465D01*
X82503674Y-61998465D01*
G37*
G36*
X74883674Y-61998465D02*
G01*
X74921367Y-62009899D01*
X74956103Y-62028466D01*
X74986548Y-62053452D01*
X75011534Y-62083897D01*
X75030101Y-62118633D01*
X75041535Y-62156326D01*
X75046000Y-62201661D01*
X75046000Y-63038339D01*
X75041535Y-63083674D01*
X75030101Y-63121367D01*
X75011534Y-63156103D01*
X74986548Y-63186548D01*
X74956103Y-63211534D01*
X74921367Y-63230101D01*
X74883674Y-63241535D01*
X74838339Y-63246000D01*
X73751661Y-63246000D01*
X73706326Y-63241535D01*
X73668633Y-63230101D01*
X73633897Y-63211534D01*
X73603452Y-63186548D01*
X73578466Y-63156103D01*
X73559899Y-63121367D01*
X73548465Y-63083674D01*
X73544000Y-63038339D01*
X73544000Y-62201661D01*
X73548465Y-62156326D01*
X73559899Y-62118633D01*
X73578466Y-62083897D01*
X73603452Y-62053452D01*
X73633897Y-62028466D01*
X73668633Y-62009899D01*
X73706326Y-61998465D01*
X73751661Y-61994000D01*
X74838339Y-61994000D01*
X74883674Y-61998465D01*
X74883674Y-61998465D01*
G37*
G36*
X77586000Y-62921000D02*
G01*
X75924000Y-62921000D01*
X75924000Y-60269000D01*
X77586000Y-60269000D01*
X77586000Y-62921000D01*
X77586000Y-62921000D01*
G37*
G36*
X80286000Y-62921000D02*
G01*
X78624000Y-62921000D01*
X78624000Y-62169000D01*
X80286000Y-62169000D01*
X80286000Y-62921000D01*
X80286000Y-62921000D01*
G37*
G36*
X85991000Y-61226000D02*
G01*
X84189000Y-61226000D01*
X84189000Y-59424000D01*
X85991000Y-59424000D01*
X85991000Y-61226000D01*
X85991000Y-61226000D01*
G37*
G36*
X62496000Y-61226000D02*
G01*
X60694000Y-61226000D01*
X60694000Y-59424000D01*
X62496000Y-59424000D01*
X62496000Y-61226000D01*
X62496000Y-61226000D01*
G37*
G36*
X74883674Y-59948465D02*
G01*
X74921367Y-59959899D01*
X74956103Y-59978466D01*
X74986548Y-60003452D01*
X75011534Y-60033897D01*
X75030101Y-60068633D01*
X75041535Y-60106326D01*
X75046000Y-60151661D01*
X75046000Y-60988339D01*
X75041535Y-61033674D01*
X75030101Y-61071367D01*
X75011534Y-61106103D01*
X74986548Y-61136548D01*
X74956103Y-61161534D01*
X74921367Y-61180101D01*
X74883674Y-61191535D01*
X74838339Y-61196000D01*
X73751661Y-61196000D01*
X73706326Y-61191535D01*
X73668633Y-61180101D01*
X73633897Y-61161534D01*
X73603452Y-61136548D01*
X73578466Y-61106103D01*
X73559899Y-61071367D01*
X73548465Y-61033674D01*
X73544000Y-60988339D01*
X73544000Y-60151661D01*
X73548465Y-60106326D01*
X73559899Y-60068633D01*
X73578466Y-60033897D01*
X73603452Y-60003452D01*
X73633897Y-59978466D01*
X73668633Y-59959899D01*
X73706326Y-59948465D01*
X73751661Y-59944000D01*
X74838339Y-59944000D01*
X74883674Y-59948465D01*
X74883674Y-59948465D01*
G37*
G36*
X82503674Y-59948465D02*
G01*
X82541367Y-59959899D01*
X82576103Y-59978466D01*
X82606548Y-60003452D01*
X82631534Y-60033897D01*
X82650101Y-60068633D01*
X82661535Y-60106326D01*
X82666000Y-60151661D01*
X82666000Y-60988339D01*
X82661535Y-61033674D01*
X82650101Y-61071367D01*
X82631534Y-61106103D01*
X82606548Y-61136548D01*
X82576103Y-61161534D01*
X82541367Y-61180101D01*
X82503674Y-61191535D01*
X82458339Y-61196000D01*
X81371661Y-61196000D01*
X81326326Y-61191535D01*
X81288633Y-61180101D01*
X81253897Y-61161534D01*
X81223452Y-61136548D01*
X81198466Y-61106103D01*
X81179899Y-61071367D01*
X81168465Y-61033674D01*
X81164000Y-60988339D01*
X81164000Y-60151661D01*
X81168465Y-60106326D01*
X81179899Y-60068633D01*
X81198466Y-60033897D01*
X81223452Y-60003452D01*
X81253897Y-59978466D01*
X81288633Y-59959899D01*
X81326326Y-59948465D01*
X81371661Y-59944000D01*
X82458339Y-59944000D01*
X82503674Y-59948465D01*
X82503674Y-59948465D01*
G37*
G36*
X80286000Y-61021000D02*
G01*
X78624000Y-61021000D01*
X78624000Y-60269000D01*
X80286000Y-60269000D01*
X80286000Y-61021000D01*
X80286000Y-61021000D01*
G37*
G36*
X59419499Y-58088445D02*
G01*
X59456995Y-58099820D01*
X59491554Y-58118292D01*
X59521847Y-58143153D01*
X59546708Y-58173446D01*
X59565180Y-58208005D01*
X59576555Y-58245501D01*
X59581000Y-58290638D01*
X59581000Y-59029362D01*
X59576555Y-59074499D01*
X59565180Y-59111995D01*
X59546708Y-59146554D01*
X59521847Y-59176847D01*
X59491554Y-59201708D01*
X59456995Y-59220180D01*
X59419499Y-59231555D01*
X59374362Y-59236000D01*
X58735638Y-59236000D01*
X58690501Y-59231555D01*
X58653005Y-59220180D01*
X58618446Y-59201708D01*
X58588153Y-59176847D01*
X58563292Y-59146554D01*
X58544820Y-59111995D01*
X58533445Y-59074499D01*
X58529000Y-59029362D01*
X58529000Y-58290638D01*
X58533445Y-58245501D01*
X58544820Y-58208005D01*
X58563292Y-58173446D01*
X58588153Y-58143153D01*
X58618446Y-58118292D01*
X58653005Y-58099820D01*
X58690501Y-58088445D01*
X58735638Y-58084000D01*
X59374362Y-58084000D01*
X59419499Y-58088445D01*
X59419499Y-58088445D01*
G37*
G36*
X61705442Y-56890518D02*
G01*
X61771627Y-56897037D01*
X61941466Y-56948557D01*
X62097991Y-57032222D01*
X62133729Y-57061552D01*
X62235186Y-57144814D01*
X62318448Y-57246271D01*
X62347778Y-57282009D01*
X62431443Y-57438534D01*
X62482963Y-57608373D01*
X62500359Y-57785000D01*
X62482963Y-57961627D01*
X62431443Y-58131466D01*
X62347778Y-58287991D01*
X62318448Y-58323729D01*
X62235186Y-58425186D01*
X62133729Y-58508448D01*
X62097991Y-58537778D01*
X61941466Y-58621443D01*
X61771627Y-58672963D01*
X61705442Y-58679482D01*
X61639260Y-58686000D01*
X61550740Y-58686000D01*
X61484558Y-58679482D01*
X61418373Y-58672963D01*
X61248534Y-58621443D01*
X61092009Y-58537778D01*
X61056271Y-58508448D01*
X60954814Y-58425186D01*
X60871552Y-58323729D01*
X60842222Y-58287991D01*
X60758557Y-58131466D01*
X60707037Y-57961627D01*
X60689641Y-57785000D01*
X60707037Y-57608373D01*
X60758557Y-57438534D01*
X60842222Y-57282009D01*
X60871552Y-57246271D01*
X60954814Y-57144814D01*
X61056271Y-57061552D01*
X61092009Y-57032222D01*
X61248534Y-56948557D01*
X61418373Y-56897037D01*
X61484558Y-56890518D01*
X61550740Y-56884000D01*
X61639260Y-56884000D01*
X61705442Y-56890518D01*
X61705442Y-56890518D01*
G37*
G36*
X85200442Y-56890518D02*
G01*
X85266627Y-56897037D01*
X85436466Y-56948557D01*
X85592991Y-57032222D01*
X85628729Y-57061552D01*
X85730186Y-57144814D01*
X85813448Y-57246271D01*
X85842778Y-57282009D01*
X85926443Y-57438534D01*
X85977963Y-57608373D01*
X85995359Y-57785000D01*
X85977963Y-57961627D01*
X85926443Y-58131466D01*
X85842778Y-58287991D01*
X85813448Y-58323729D01*
X85730186Y-58425186D01*
X85628729Y-58508448D01*
X85592991Y-58537778D01*
X85436466Y-58621443D01*
X85266627Y-58672963D01*
X85200442Y-58679482D01*
X85134260Y-58686000D01*
X85045740Y-58686000D01*
X84979558Y-58679482D01*
X84913373Y-58672963D01*
X84743534Y-58621443D01*
X84587009Y-58537778D01*
X84551271Y-58508448D01*
X84449814Y-58425186D01*
X84366552Y-58323729D01*
X84337222Y-58287991D01*
X84253557Y-58131466D01*
X84202037Y-57961627D01*
X84184641Y-57785000D01*
X84202037Y-57608373D01*
X84253557Y-57438534D01*
X84337222Y-57282009D01*
X84366552Y-57246271D01*
X84449814Y-57144814D01*
X84551271Y-57061552D01*
X84587009Y-57032222D01*
X84743534Y-56948557D01*
X84913373Y-56897037D01*
X84979558Y-56890518D01*
X85045740Y-56884000D01*
X85134260Y-56884000D01*
X85200442Y-56890518D01*
X85200442Y-56890518D01*
G37*
G36*
X65579499Y-56628445D02*
G01*
X65616995Y-56639820D01*
X65651554Y-56658292D01*
X65681847Y-56683153D01*
X65706708Y-56713446D01*
X65725180Y-56748005D01*
X65736555Y-56785501D01*
X65741000Y-56830638D01*
X65741000Y-57469362D01*
X65736555Y-57514499D01*
X65725180Y-57551995D01*
X65706708Y-57586554D01*
X65681847Y-57616847D01*
X65651554Y-57641708D01*
X65616995Y-57660180D01*
X65579499Y-57671555D01*
X65534362Y-57676000D01*
X64795638Y-57676000D01*
X64750501Y-57671555D01*
X64713005Y-57660180D01*
X64678446Y-57641708D01*
X64648153Y-57616847D01*
X64623292Y-57586554D01*
X64604820Y-57551995D01*
X64593445Y-57514499D01*
X64589000Y-57469362D01*
X64589000Y-56830638D01*
X64593445Y-56785501D01*
X64604820Y-56748005D01*
X64623292Y-56713446D01*
X64648153Y-56683153D01*
X64678446Y-56658292D01*
X64713005Y-56639820D01*
X64750501Y-56628445D01*
X64795638Y-56624000D01*
X65534362Y-56624000D01*
X65579499Y-56628445D01*
X65579499Y-56628445D01*
G37*
G36*
X67329499Y-56628445D02*
G01*
X67366995Y-56639820D01*
X67401554Y-56658292D01*
X67431847Y-56683153D01*
X67456708Y-56713446D01*
X67475180Y-56748005D01*
X67486555Y-56785501D01*
X67491000Y-56830638D01*
X67491000Y-57469362D01*
X67486555Y-57514499D01*
X67475180Y-57551995D01*
X67456708Y-57586554D01*
X67431847Y-57616847D01*
X67401554Y-57641708D01*
X67366995Y-57660180D01*
X67329499Y-57671555D01*
X67284362Y-57676000D01*
X66545638Y-57676000D01*
X66500501Y-57671555D01*
X66463005Y-57660180D01*
X66428446Y-57641708D01*
X66398153Y-57616847D01*
X66373292Y-57586554D01*
X66354820Y-57551995D01*
X66343445Y-57514499D01*
X66339000Y-57469362D01*
X66339000Y-56830638D01*
X66343445Y-56785501D01*
X66354820Y-56748005D01*
X66373292Y-56713446D01*
X66398153Y-56683153D01*
X66428446Y-56658292D01*
X66463005Y-56639820D01*
X66500501Y-56628445D01*
X66545638Y-56624000D01*
X67284362Y-56624000D01*
X67329499Y-56628445D01*
X67329499Y-56628445D01*
G37*
G36*
X59419499Y-56338445D02*
G01*
X59456995Y-56349820D01*
X59491554Y-56368292D01*
X59521847Y-56393153D01*
X59546708Y-56423446D01*
X59565180Y-56458005D01*
X59576555Y-56495501D01*
X59581000Y-56540638D01*
X59581000Y-57279362D01*
X59576555Y-57324499D01*
X59565180Y-57361995D01*
X59546708Y-57396554D01*
X59521847Y-57426847D01*
X59491554Y-57451708D01*
X59456995Y-57470180D01*
X59419499Y-57481555D01*
X59374362Y-57486000D01*
X58735638Y-57486000D01*
X58690501Y-57481555D01*
X58653005Y-57470180D01*
X58618446Y-57451708D01*
X58588153Y-57426847D01*
X58563292Y-57396554D01*
X58544820Y-57361995D01*
X58533445Y-57324499D01*
X58529000Y-57279362D01*
X58529000Y-56540638D01*
X58533445Y-56495501D01*
X58544820Y-56458005D01*
X58563292Y-56423446D01*
X58588153Y-56393153D01*
X58618446Y-56368292D01*
X58653005Y-56349820D01*
X58690501Y-56338445D01*
X58735638Y-56334000D01*
X59374362Y-56334000D01*
X59419499Y-56338445D01*
X59419499Y-56338445D01*
G37*
G36*
X61705442Y-54350518D02*
G01*
X61771627Y-54357037D01*
X61941466Y-54408557D01*
X62097991Y-54492222D01*
X62133729Y-54521552D01*
X62235186Y-54604814D01*
X62304594Y-54689389D01*
X62347778Y-54742009D01*
X62431443Y-54898534D01*
X62482963Y-55068373D01*
X62500359Y-55245000D01*
X62482963Y-55421627D01*
X62431443Y-55591466D01*
X62347778Y-55747991D01*
X62318448Y-55783729D01*
X62235186Y-55885186D01*
X62133729Y-55968448D01*
X62097991Y-55997778D01*
X61941466Y-56081443D01*
X61771627Y-56132963D01*
X61705443Y-56139481D01*
X61639260Y-56146000D01*
X61550740Y-56146000D01*
X61484557Y-56139481D01*
X61418373Y-56132963D01*
X61248534Y-56081443D01*
X61092009Y-55997778D01*
X61056271Y-55968448D01*
X60954814Y-55885186D01*
X60871552Y-55783729D01*
X60842222Y-55747991D01*
X60758557Y-55591466D01*
X60707037Y-55421627D01*
X60689641Y-55245000D01*
X60707037Y-55068373D01*
X60758557Y-54898534D01*
X60842222Y-54742009D01*
X60885406Y-54689389D01*
X60954814Y-54604814D01*
X61056271Y-54521552D01*
X61092009Y-54492222D01*
X61248534Y-54408557D01*
X61418373Y-54357037D01*
X61484558Y-54350518D01*
X61550740Y-54344000D01*
X61639260Y-54344000D01*
X61705442Y-54350518D01*
X61705442Y-54350518D01*
G37*
G36*
X85200442Y-54350518D02*
G01*
X85266627Y-54357037D01*
X85436466Y-54408557D01*
X85592991Y-54492222D01*
X85628729Y-54521552D01*
X85730186Y-54604814D01*
X85799594Y-54689389D01*
X85842778Y-54742009D01*
X85926443Y-54898534D01*
X85977963Y-55068373D01*
X85995359Y-55245000D01*
X85977963Y-55421627D01*
X85926443Y-55591466D01*
X85842778Y-55747991D01*
X85813448Y-55783729D01*
X85730186Y-55885186D01*
X85628729Y-55968448D01*
X85592991Y-55997778D01*
X85436466Y-56081443D01*
X85266627Y-56132963D01*
X85200443Y-56139481D01*
X85134260Y-56146000D01*
X85045740Y-56146000D01*
X84979557Y-56139481D01*
X84913373Y-56132963D01*
X84743534Y-56081443D01*
X84587009Y-55997778D01*
X84551271Y-55968448D01*
X84449814Y-55885186D01*
X84366552Y-55783729D01*
X84337222Y-55747991D01*
X84253557Y-55591466D01*
X84202037Y-55421627D01*
X84184641Y-55245000D01*
X84202037Y-55068373D01*
X84253557Y-54898534D01*
X84337222Y-54742009D01*
X84380406Y-54689389D01*
X84449814Y-54604814D01*
X84551271Y-54521552D01*
X84587009Y-54492222D01*
X84743534Y-54408557D01*
X84913373Y-54357037D01*
X84979558Y-54350518D01*
X85045740Y-54344000D01*
X85134260Y-54344000D01*
X85200442Y-54350518D01*
X85200442Y-54350518D01*
G37*
G36*
X66306348Y-54183320D02*
G01*
X66306350Y-54183321D01*
X66306351Y-54183321D01*
X66447574Y-54241817D01*
X66447577Y-54241819D01*
X66574669Y-54326739D01*
X66682761Y-54434831D01*
X66721108Y-54492222D01*
X66767683Y-54561926D01*
X66785448Y-54604815D01*
X66788517Y-54612225D01*
X66800068Y-54633836D01*
X66815614Y-54652778D01*
X66834556Y-54668323D01*
X66856166Y-54679874D01*
X66879615Y-54686987D01*
X66904001Y-54689389D01*
X66928387Y-54686987D01*
X66951836Y-54679874D01*
X66973447Y-54668323D01*
X66992389Y-54652777D01*
X67007934Y-54633835D01*
X67019485Y-54612225D01*
X67026598Y-54588776D01*
X67029000Y-54564390D01*
X67029000Y-54203500D01*
X70131000Y-54203500D01*
X70131000Y-54564390D01*
X70133402Y-54588776D01*
X70140515Y-54612225D01*
X70152066Y-54633836D01*
X70167611Y-54652778D01*
X70186553Y-54668323D01*
X70208164Y-54679874D01*
X70231613Y-54686987D01*
X70255999Y-54689389D01*
X70280385Y-54686987D01*
X70303834Y-54679874D01*
X70325445Y-54668323D01*
X70344387Y-54652778D01*
X70359932Y-54633836D01*
X70371483Y-54612225D01*
X70374552Y-54604815D01*
X70392317Y-54561926D01*
X70438892Y-54492222D01*
X70477239Y-54434831D01*
X70585331Y-54326739D01*
X70712423Y-54241819D01*
X70712426Y-54241817D01*
X70853649Y-54183321D01*
X70853650Y-54183321D01*
X70853652Y-54183320D01*
X71003569Y-54153500D01*
X71156431Y-54153500D01*
X71306348Y-54183320D01*
X71306350Y-54183321D01*
X71306351Y-54183321D01*
X71447574Y-54241817D01*
X71447577Y-54241819D01*
X71574669Y-54326739D01*
X71682761Y-54434831D01*
X71721108Y-54492222D01*
X71767683Y-54561926D01*
X71820479Y-54689389D01*
X71826180Y-54703152D01*
X71856000Y-54853069D01*
X71856000Y-55005931D01*
X71843580Y-55068373D01*
X71826179Y-55155851D01*
X71767683Y-55297074D01*
X71767682Y-55297075D01*
X71767681Y-55297077D01*
X71682761Y-55424169D01*
X71574669Y-55532261D01*
X71486062Y-55591466D01*
X71447574Y-55617183D01*
X71306351Y-55675679D01*
X71306350Y-55675679D01*
X71306348Y-55675680D01*
X71156431Y-55705500D01*
X71003569Y-55705500D01*
X70853652Y-55675680D01*
X70853650Y-55675679D01*
X70853649Y-55675679D01*
X70712426Y-55617183D01*
X70673938Y-55591466D01*
X70585331Y-55532261D01*
X70477239Y-55424169D01*
X70392318Y-55297075D01*
X70392317Y-55297074D01*
X70371481Y-55246772D01*
X70359932Y-55225164D01*
X70344386Y-55206222D01*
X70325444Y-55190677D01*
X70303834Y-55179126D01*
X70280385Y-55172013D01*
X70255999Y-55169611D01*
X70231613Y-55172013D01*
X70208164Y-55179126D01*
X70186553Y-55190677D01*
X70167611Y-55206223D01*
X70152066Y-55225165D01*
X70140515Y-55246775D01*
X70133402Y-55270224D01*
X70131000Y-55294610D01*
X70131000Y-55655500D01*
X67029000Y-55655500D01*
X67029000Y-55294610D01*
X67026598Y-55270224D01*
X67019485Y-55246775D01*
X67007934Y-55225164D01*
X66992389Y-55206222D01*
X66973447Y-55190677D01*
X66951836Y-55179126D01*
X66928387Y-55172013D01*
X66904001Y-55169611D01*
X66879615Y-55172013D01*
X66856166Y-55179126D01*
X66834555Y-55190677D01*
X66815613Y-55206222D01*
X66800068Y-55225164D01*
X66788519Y-55246772D01*
X66767683Y-55297074D01*
X66767682Y-55297075D01*
X66682761Y-55424169D01*
X66574669Y-55532261D01*
X66486062Y-55591466D01*
X66447574Y-55617183D01*
X66306351Y-55675679D01*
X66306350Y-55675679D01*
X66306348Y-55675680D01*
X66156431Y-55705500D01*
X66003569Y-55705500D01*
X65853652Y-55675680D01*
X65853650Y-55675679D01*
X65853649Y-55675679D01*
X65712426Y-55617183D01*
X65673938Y-55591466D01*
X65585331Y-55532261D01*
X65477239Y-55424169D01*
X65392319Y-55297077D01*
X65392318Y-55297075D01*
X65392317Y-55297074D01*
X65333821Y-55155851D01*
X65316421Y-55068373D01*
X65304000Y-55005931D01*
X65304000Y-54853069D01*
X65333820Y-54703152D01*
X65339521Y-54689389D01*
X65392317Y-54561926D01*
X65438892Y-54492222D01*
X65477239Y-54434831D01*
X65585331Y-54326739D01*
X65712423Y-54241819D01*
X65712426Y-54241817D01*
X65853649Y-54183321D01*
X65853650Y-54183321D01*
X65853652Y-54183320D01*
X66003569Y-54153500D01*
X66156431Y-54153500D01*
X66306348Y-54183320D01*
X66306348Y-54183320D01*
G37*
G36*
X55461000Y-54336000D02*
G01*
X53759000Y-54336000D01*
X53759000Y-52054000D01*
X55461000Y-52054000D01*
X55461000Y-54336000D01*
X55461000Y-54336000D01*
G37*
G36*
X77580442Y-51810518D02*
G01*
X77646627Y-51817037D01*
X77816466Y-51868557D01*
X77972991Y-51952222D01*
X78008729Y-51981552D01*
X78110186Y-52064814D01*
X78193448Y-52166271D01*
X78222778Y-52202009D01*
X78306443Y-52358534D01*
X78357963Y-52528373D01*
X78375359Y-52705000D01*
X78357963Y-52881627D01*
X78306443Y-53051466D01*
X78222778Y-53207991D01*
X78212036Y-53221080D01*
X78110186Y-53345186D01*
X78008729Y-53428448D01*
X77972991Y-53457778D01*
X77816466Y-53541443D01*
X77646627Y-53592963D01*
X77580442Y-53599482D01*
X77514260Y-53606000D01*
X77425740Y-53606000D01*
X77359558Y-53599482D01*
X77293373Y-53592963D01*
X77123534Y-53541443D01*
X76967009Y-53457778D01*
X76931271Y-53428448D01*
X76829814Y-53345186D01*
X76727964Y-53221080D01*
X76717222Y-53207991D01*
X76633557Y-53051466D01*
X76582037Y-52881627D01*
X76564641Y-52705000D01*
X76582037Y-52528373D01*
X76633557Y-52358534D01*
X76717222Y-52202009D01*
X76746552Y-52166271D01*
X76829814Y-52064814D01*
X76931271Y-51981552D01*
X76967009Y-51952222D01*
X77123534Y-51868557D01*
X77293373Y-51817037D01*
X77359558Y-51810518D01*
X77425740Y-51804000D01*
X77514260Y-51804000D01*
X77580442Y-51810518D01*
X77580442Y-51810518D01*
G37*
G36*
X80120442Y-51810518D02*
G01*
X80186627Y-51817037D01*
X80356466Y-51868557D01*
X80512991Y-51952222D01*
X80548729Y-51981552D01*
X80650186Y-52064814D01*
X80733448Y-52166271D01*
X80762778Y-52202009D01*
X80846443Y-52358534D01*
X80897963Y-52528373D01*
X80915359Y-52705000D01*
X80897963Y-52881627D01*
X80846443Y-53051466D01*
X80762778Y-53207991D01*
X80752036Y-53221080D01*
X80650186Y-53345186D01*
X80548729Y-53428448D01*
X80512991Y-53457778D01*
X80356466Y-53541443D01*
X80186627Y-53592963D01*
X80120442Y-53599482D01*
X80054260Y-53606000D01*
X79965740Y-53606000D01*
X79899558Y-53599482D01*
X79833373Y-53592963D01*
X79663534Y-53541443D01*
X79507009Y-53457778D01*
X79471271Y-53428448D01*
X79369814Y-53345186D01*
X79267964Y-53221080D01*
X79257222Y-53207991D01*
X79173557Y-53051466D01*
X79122037Y-52881627D01*
X79104641Y-52705000D01*
X79122037Y-52528373D01*
X79173557Y-52358534D01*
X79257222Y-52202009D01*
X79286552Y-52166271D01*
X79369814Y-52064814D01*
X79471271Y-51981552D01*
X79507009Y-51952222D01*
X79663534Y-51868557D01*
X79833373Y-51817037D01*
X79899558Y-51810518D01*
X79965740Y-51804000D01*
X80054260Y-51804000D01*
X80120442Y-51810518D01*
X80120442Y-51810518D01*
G37*
G36*
X83451000Y-53606000D02*
G01*
X81649000Y-53606000D01*
X81649000Y-51804000D01*
X83451000Y-51804000D01*
X83451000Y-53606000D01*
X83451000Y-53606000D01*
G37*
G36*
X85200442Y-51810518D02*
G01*
X85266627Y-51817037D01*
X85436466Y-51868557D01*
X85592991Y-51952222D01*
X85628729Y-51981552D01*
X85730186Y-52064814D01*
X85813448Y-52166271D01*
X85842778Y-52202009D01*
X85926443Y-52358534D01*
X85977963Y-52528373D01*
X85995359Y-52705000D01*
X85977963Y-52881627D01*
X85926443Y-53051466D01*
X85842778Y-53207991D01*
X85832036Y-53221080D01*
X85730186Y-53345186D01*
X85628729Y-53428448D01*
X85592991Y-53457778D01*
X85436466Y-53541443D01*
X85266627Y-53592963D01*
X85200442Y-53599482D01*
X85134260Y-53606000D01*
X85045740Y-53606000D01*
X84979558Y-53599482D01*
X84913373Y-53592963D01*
X84743534Y-53541443D01*
X84587009Y-53457778D01*
X84551271Y-53428448D01*
X84449814Y-53345186D01*
X84347964Y-53221080D01*
X84337222Y-53207991D01*
X84253557Y-53051466D01*
X84202037Y-52881627D01*
X84184641Y-52705000D01*
X84202037Y-52528373D01*
X84253557Y-52358534D01*
X84337222Y-52202009D01*
X84366552Y-52166271D01*
X84449814Y-52064814D01*
X84551271Y-51981552D01*
X84587009Y-51952222D01*
X84743534Y-51868557D01*
X84913373Y-51817037D01*
X84979558Y-51810518D01*
X85045740Y-51804000D01*
X85134260Y-51804000D01*
X85200442Y-51810518D01*
X85200442Y-51810518D01*
G37*
G36*
X75040442Y-51810518D02*
G01*
X75106627Y-51817037D01*
X75276466Y-51868557D01*
X75432991Y-51952222D01*
X75468729Y-51981552D01*
X75570186Y-52064814D01*
X75653448Y-52166271D01*
X75682778Y-52202009D01*
X75766443Y-52358534D01*
X75817963Y-52528373D01*
X75835359Y-52705000D01*
X75817963Y-52881627D01*
X75766443Y-53051466D01*
X75682778Y-53207991D01*
X75672036Y-53221080D01*
X75570186Y-53345186D01*
X75468729Y-53428448D01*
X75432991Y-53457778D01*
X75276466Y-53541443D01*
X75106627Y-53592963D01*
X75040442Y-53599482D01*
X74974260Y-53606000D01*
X74885740Y-53606000D01*
X74819558Y-53599482D01*
X74753373Y-53592963D01*
X74583534Y-53541443D01*
X74427009Y-53457778D01*
X74391271Y-53428448D01*
X74289814Y-53345186D01*
X74187964Y-53221080D01*
X74177222Y-53207991D01*
X74093557Y-53051466D01*
X74042037Y-52881627D01*
X74024641Y-52705000D01*
X74042037Y-52528373D01*
X74093557Y-52358534D01*
X74177222Y-52202009D01*
X74206552Y-52166271D01*
X74289814Y-52064814D01*
X74391271Y-51981552D01*
X74427009Y-51952222D01*
X74583534Y-51868557D01*
X74753373Y-51817037D01*
X74819558Y-51810518D01*
X74885740Y-51804000D01*
X74974260Y-51804000D01*
X75040442Y-51810518D01*
X75040442Y-51810518D01*
G37*
G36*
X61705442Y-51810518D02*
G01*
X61771627Y-51817037D01*
X61941466Y-51868557D01*
X62097991Y-51952222D01*
X62133729Y-51981552D01*
X62235186Y-52064814D01*
X62318448Y-52166271D01*
X62347778Y-52202009D01*
X62431443Y-52358534D01*
X62482963Y-52528373D01*
X62500359Y-52705000D01*
X62482963Y-52881627D01*
X62431443Y-53051466D01*
X62347778Y-53207991D01*
X62337036Y-53221080D01*
X62235186Y-53345186D01*
X62133729Y-53428448D01*
X62097991Y-53457778D01*
X61941466Y-53541443D01*
X61771627Y-53592963D01*
X61705442Y-53599482D01*
X61639260Y-53606000D01*
X61550740Y-53606000D01*
X61484558Y-53599482D01*
X61418373Y-53592963D01*
X61248534Y-53541443D01*
X61092009Y-53457778D01*
X61056271Y-53428448D01*
X60954814Y-53345186D01*
X60852964Y-53221080D01*
X60842222Y-53207991D01*
X60758557Y-53051466D01*
X60707037Y-52881627D01*
X60689641Y-52705000D01*
X60707037Y-52528373D01*
X60758557Y-52358534D01*
X60842222Y-52202009D01*
X60871552Y-52166271D01*
X60954814Y-52064814D01*
X61056271Y-51981552D01*
X61092009Y-51952222D01*
X61248534Y-51868557D01*
X61418373Y-51817037D01*
X61484558Y-51810518D01*
X61550740Y-51804000D01*
X61639260Y-51804000D01*
X61705442Y-51810518D01*
X61705442Y-51810518D01*
G37*
G36*
X65105862Y-51227898D02*
G01*
X65118114Y-51228500D01*
X66331000Y-51228500D01*
X66331000Y-53230500D01*
X65118114Y-53230500D01*
X65105862Y-53231102D01*
X65080000Y-53233649D01*
X65054138Y-53231102D01*
X65041886Y-53230500D01*
X64968594Y-53230500D01*
X64951836Y-53221543D01*
X64940299Y-53217415D01*
X64855307Y-53191632D01*
X64829664Y-53183854D01*
X64716575Y-53123406D01*
X64617447Y-53042054D01*
X64536094Y-52942924D01*
X64475646Y-52829835D01*
X64465960Y-52797903D01*
X64438420Y-52707117D01*
X64429000Y-52611472D01*
X64429000Y-51847527D01*
X64438420Y-51751882D01*
X64475645Y-51629168D01*
X64536096Y-51516074D01*
X64617447Y-51416946D01*
X64716576Y-51335594D01*
X64829666Y-51275146D01*
X64829669Y-51275145D01*
X64940290Y-51241588D01*
X64962925Y-51232212D01*
X64968481Y-51228500D01*
X65041886Y-51228500D01*
X65054138Y-51227898D01*
X65080000Y-51225351D01*
X65105862Y-51227898D01*
X65105862Y-51227898D01*
G37*
G36*
X72105862Y-51227898D02*
G01*
X72118114Y-51228500D01*
X72191406Y-51228500D01*
X72208164Y-51237457D01*
X72219707Y-51241587D01*
X72330331Y-51275145D01*
X72330334Y-51275146D01*
X72443424Y-51335594D01*
X72542554Y-51416947D01*
X72623906Y-51516075D01*
X72684354Y-51629164D01*
X72694040Y-51661096D01*
X72721580Y-51751882D01*
X72731000Y-51847527D01*
X72731000Y-52611473D01*
X72721580Y-52707118D01*
X72694040Y-52797904D01*
X72684354Y-52829836D01*
X72623906Y-52942925D01*
X72542554Y-53042054D01*
X72443425Y-53123406D01*
X72330336Y-53183854D01*
X72304693Y-53191632D01*
X72219708Y-53217413D01*
X72197075Y-53226787D01*
X72191518Y-53230500D01*
X72118114Y-53230500D01*
X72105862Y-53231102D01*
X72080000Y-53233649D01*
X72054138Y-53231102D01*
X72041886Y-53230500D01*
X70829000Y-53230500D01*
X70829000Y-51228500D01*
X72041886Y-51228500D01*
X72054138Y-51227898D01*
X72080000Y-51225351D01*
X72105862Y-51227898D01*
X72105862Y-51227898D01*
G37*
G36*
X70381000Y-53230500D02*
G01*
X68779000Y-53230500D01*
X68779000Y-51228500D01*
X70381000Y-51228500D01*
X70381000Y-53230500D01*
X70381000Y-53230500D01*
G37*
G36*
X68381000Y-53230500D02*
G01*
X66779000Y-53230500D01*
X66779000Y-51228500D01*
X68381000Y-51228500D01*
X68381000Y-53230500D01*
X68381000Y-53230500D01*
G37*
M02*
