G04 #@! TF.GenerationSoftware,KiCad,Pcbnew,5.1.2-f72e74a~84~ubuntu16.04.1*
G04 #@! TF.CreationDate,2019-07-14T12:51:28-04:00*
G04 #@! TF.ProjectId,radiance_controller,72616469-616e-4636-955f-636f6e74726f,rev?*
G04 #@! TF.SameCoordinates,Original*
G04 #@! TF.FileFunction,Legend,Top*
G04 #@! TF.FilePolarity,Positive*
%FSLAX46Y46*%
G04 Gerber Fmt 4.6, Leading zero omitted, Abs format (unit mm)*
G04 Created by KiCad (PCBNEW 5.1.2-f72e74a~84~ubuntu16.04.1) date 2019-07-14 12:51:28*
%MOMM*%
%LPD*%
G04 APERTURE LIST*
%ADD10C,0.508000*%
%ADD11C,0.203200*%
%ADD12C,0.100000*%
%ADD13C,0.120000*%
%ADD14C,0.150000*%
G04 APERTURE END LIST*
D10*
X59690000Y-56515000D02*
X58420000Y-57785000D01*
X59690000Y-56515000D02*
X58420000Y-55245000D01*
X59690000Y-56515000D02*
X51435000Y-56515000D01*
D11*
X76402857Y-54756857D02*
X76902857Y-54756857D01*
X77117142Y-55542571D02*
X76402857Y-55542571D01*
X76402857Y-54042571D01*
X77117142Y-54042571D01*
X78260000Y-54756857D02*
X77760000Y-54756857D01*
X77760000Y-55542571D02*
X77760000Y-54042571D01*
X78474285Y-54042571D01*
X79545714Y-54756857D02*
X79045714Y-54756857D01*
X79045714Y-55542571D02*
X79045714Y-54042571D01*
X79760000Y-54042571D01*
X80331428Y-54756857D02*
X80831428Y-54756857D01*
X81045714Y-55542571D02*
X80331428Y-55542571D01*
X80331428Y-54042571D01*
X81045714Y-54042571D01*
X82545714Y-55399714D02*
X82474285Y-55471142D01*
X82260000Y-55542571D01*
X82117142Y-55542571D01*
X81902857Y-55471142D01*
X81760000Y-55328285D01*
X81688571Y-55185428D01*
X81617142Y-54899714D01*
X81617142Y-54685428D01*
X81688571Y-54399714D01*
X81760000Y-54256857D01*
X81902857Y-54114000D01*
X82117142Y-54042571D01*
X82260000Y-54042571D01*
X82474285Y-54114000D01*
X82545714Y-54185428D01*
X82974285Y-54042571D02*
X83831428Y-54042571D01*
X83402857Y-55542571D02*
X83402857Y-54042571D01*
D12*
G36*
X83820000Y-63500000D02*
G01*
X62865000Y-63500000D01*
X62865000Y-55880000D01*
X83820000Y-55880000D01*
X83820000Y-63500000D01*
G37*
X83820000Y-63500000D02*
X62865000Y-63500000D01*
X62865000Y-55880000D01*
X83820000Y-55880000D01*
X83820000Y-63500000D01*
D11*
X63599857Y-75735571D02*
X63599857Y-74235571D01*
X64314142Y-75735571D02*
X64314142Y-74235571D01*
X65171285Y-75735571D01*
X65171285Y-74235571D01*
X65671285Y-74235571D02*
X66528428Y-74235571D01*
X66099857Y-75735571D02*
X66099857Y-74235571D01*
X67028428Y-74949857D02*
X67528428Y-74949857D01*
X67742714Y-75735571D02*
X67028428Y-75735571D01*
X67028428Y-74235571D01*
X67742714Y-74235571D01*
X68385571Y-75735571D02*
X68385571Y-74235571D01*
X69242714Y-75735571D01*
X69242714Y-74235571D01*
X69885571Y-75664142D02*
X70099857Y-75735571D01*
X70457000Y-75735571D01*
X70599857Y-75664142D01*
X70671285Y-75592714D01*
X70742714Y-75449857D01*
X70742714Y-75307000D01*
X70671285Y-75164142D01*
X70599857Y-75092714D01*
X70457000Y-75021285D01*
X70171285Y-74949857D01*
X70028428Y-74878428D01*
X69957000Y-74807000D01*
X69885571Y-74664142D01*
X69885571Y-74521285D01*
X69957000Y-74378428D01*
X70028428Y-74307000D01*
X70171285Y-74235571D01*
X70528428Y-74235571D01*
X70742714Y-74307000D01*
X71385571Y-75735571D02*
X71385571Y-74235571D01*
X71885571Y-74235571D02*
X72742714Y-74235571D01*
X72314142Y-75735571D02*
X72314142Y-74235571D01*
X73528428Y-75021285D02*
X73528428Y-75735571D01*
X73028428Y-74235571D02*
X73528428Y-75021285D01*
X74028428Y-74235571D01*
X76510000Y-68520571D02*
X77367142Y-68520571D01*
X76938571Y-70020571D02*
X76938571Y-68520571D01*
X77867142Y-69234857D02*
X78367142Y-69234857D01*
X78581428Y-70020571D02*
X77867142Y-70020571D01*
X77867142Y-68520571D01*
X78581428Y-68520571D01*
X79224285Y-70020571D02*
X79224285Y-68520571D01*
X79724285Y-69592000D01*
X80224285Y-68520571D01*
X80224285Y-70020571D01*
X80938571Y-70020571D02*
X80938571Y-68520571D01*
X81510000Y-68520571D01*
X81652857Y-68592000D01*
X81724285Y-68663428D01*
X81795714Y-68806285D01*
X81795714Y-69020571D01*
X81724285Y-69163428D01*
X81652857Y-69234857D01*
X81510000Y-69306285D01*
X80938571Y-69306285D01*
X82724285Y-68520571D02*
X83010000Y-68520571D01*
X83152857Y-68592000D01*
X83295714Y-68734857D01*
X83367142Y-69020571D01*
X83367142Y-69520571D01*
X83295714Y-69806285D01*
X83152857Y-69949142D01*
X83010000Y-70020571D01*
X82724285Y-70020571D01*
X82581428Y-69949142D01*
X82438571Y-69806285D01*
X82367142Y-69520571D01*
X82367142Y-69020571D01*
X82438571Y-68734857D01*
X82581428Y-68592000D01*
X82724285Y-68520571D01*
D13*
X60552071Y-65025000D02*
X60155000Y-65025000D01*
X60552071Y-65785000D02*
X60155000Y-65785000D01*
X60552071Y-67565000D02*
X60155000Y-67565000D01*
X60552071Y-68325000D02*
X60155000Y-68325000D01*
X60552071Y-70105000D02*
X60155000Y-70105000D01*
X60552071Y-70865000D02*
X60155000Y-70865000D01*
X60485000Y-72645000D02*
X60155000Y-72645000D01*
X60485000Y-73405000D02*
X60155000Y-73405000D01*
X60552071Y-52325000D02*
X60155000Y-52325000D01*
X60552071Y-53085000D02*
X60155000Y-53085000D01*
X60552071Y-54865000D02*
X60155000Y-54865000D01*
X60552071Y-55625000D02*
X60155000Y-55625000D01*
X60552071Y-57405000D02*
X60155000Y-57405000D01*
X60552071Y-58165000D02*
X60155000Y-58165000D01*
X60485000Y-59945000D02*
X60155000Y-59945000D01*
X60485000Y-60705000D02*
X60155000Y-60705000D01*
D14*
X51080000Y-76145000D02*
X86080000Y-76145000D01*
X51080000Y-85145000D02*
X51080000Y-76145000D01*
X86080000Y-85145000D02*
X51080000Y-85145000D01*
X86080000Y-76145000D02*
X86080000Y-85145000D01*
D13*
X76950000Y-74200000D02*
X76950000Y-70580000D01*
X83070000Y-74200000D02*
X76950000Y-74200000D01*
X83070000Y-70580000D02*
X83070000Y-74200000D01*
X76950000Y-70580000D02*
X83070000Y-70580000D01*
X76950000Y-67850000D02*
X76950000Y-64230000D01*
X83070000Y-67850000D02*
X76950000Y-67850000D01*
X83070000Y-64230000D02*
X83070000Y-67850000D01*
X76950000Y-64230000D02*
X83070000Y-64230000D01*
X72230000Y-71965000D02*
X72230000Y-70815000D01*
X64930000Y-71965000D02*
X72230000Y-71965000D01*
X64930000Y-66465000D02*
X72230000Y-66465000D01*
D14*
X67984761Y-81597380D02*
X67651428Y-81121190D01*
X67413333Y-81597380D02*
X67413333Y-80597380D01*
X67794285Y-80597380D01*
X67889523Y-80645000D01*
X67937142Y-80692619D01*
X67984761Y-80787857D01*
X67984761Y-80930714D01*
X67937142Y-81025952D01*
X67889523Y-81073571D01*
X67794285Y-81121190D01*
X67413333Y-81121190D01*
X68270476Y-80597380D02*
X68603809Y-81597380D01*
X68937142Y-80597380D01*
X69794285Y-81597380D02*
X69222857Y-81597380D01*
X69508571Y-81597380D02*
X69508571Y-80597380D01*
X69413333Y-80740238D01*
X69318095Y-80835476D01*
X69222857Y-80883095D01*
X78676666Y-72794761D02*
X78819523Y-72842380D01*
X79057619Y-72842380D01*
X79152857Y-72794761D01*
X79200476Y-72747142D01*
X79248095Y-72651904D01*
X79248095Y-72556666D01*
X79200476Y-72461428D01*
X79152857Y-72413809D01*
X79057619Y-72366190D01*
X78867142Y-72318571D01*
X78771904Y-72270952D01*
X78724285Y-72223333D01*
X78676666Y-72128095D01*
X78676666Y-72032857D01*
X78724285Y-71937619D01*
X78771904Y-71890000D01*
X78867142Y-71842380D01*
X79105238Y-71842380D01*
X79248095Y-71890000D01*
X79581428Y-71842380D02*
X79819523Y-72842380D01*
X80010000Y-72128095D01*
X80200476Y-72842380D01*
X80438571Y-71842380D01*
X80724285Y-71842380D02*
X81343333Y-71842380D01*
X81010000Y-72223333D01*
X81152857Y-72223333D01*
X81248095Y-72270952D01*
X81295714Y-72318571D01*
X81343333Y-72413809D01*
X81343333Y-72651904D01*
X81295714Y-72747142D01*
X81248095Y-72794761D01*
X81152857Y-72842380D01*
X80867142Y-72842380D01*
X80771904Y-72794761D01*
X80724285Y-72747142D01*
X78676666Y-66444761D02*
X78819523Y-66492380D01*
X79057619Y-66492380D01*
X79152857Y-66444761D01*
X79200476Y-66397142D01*
X79248095Y-66301904D01*
X79248095Y-66206666D01*
X79200476Y-66111428D01*
X79152857Y-66063809D01*
X79057619Y-66016190D01*
X78867142Y-65968571D01*
X78771904Y-65920952D01*
X78724285Y-65873333D01*
X78676666Y-65778095D01*
X78676666Y-65682857D01*
X78724285Y-65587619D01*
X78771904Y-65540000D01*
X78867142Y-65492380D01*
X79105238Y-65492380D01*
X79248095Y-65540000D01*
X79581428Y-65492380D02*
X79819523Y-66492380D01*
X80010000Y-65778095D01*
X80200476Y-66492380D01*
X80438571Y-65492380D01*
X80771904Y-65587619D02*
X80819523Y-65540000D01*
X80914761Y-65492380D01*
X81152857Y-65492380D01*
X81248095Y-65540000D01*
X81295714Y-65587619D01*
X81343333Y-65682857D01*
X81343333Y-65778095D01*
X81295714Y-65920952D01*
X80724285Y-66492380D01*
X81343333Y-66492380D01*
X67841904Y-69667380D02*
X67841904Y-68667380D01*
X68080000Y-68667380D01*
X68222857Y-68715000D01*
X68318095Y-68810238D01*
X68365714Y-68905476D01*
X68413333Y-69095952D01*
X68413333Y-69238809D01*
X68365714Y-69429285D01*
X68318095Y-69524523D01*
X68222857Y-69619761D01*
X68080000Y-69667380D01*
X67841904Y-69667380D01*
X69365714Y-69667380D02*
X68794285Y-69667380D01*
X69080000Y-69667380D02*
X69080000Y-68667380D01*
X68984761Y-68810238D01*
X68889523Y-68905476D01*
X68794285Y-68953095D01*
X64698571Y-67127380D02*
X64603333Y-67079761D01*
X64555714Y-67032142D01*
X64508095Y-66936904D01*
X64508095Y-66651190D01*
X64555714Y-66555952D01*
X64603333Y-66508333D01*
X64698571Y-66460714D01*
X64841428Y-66460714D01*
X64936666Y-66508333D01*
X64984285Y-66555952D01*
X65031904Y-66651190D01*
X65031904Y-66936904D01*
X64984285Y-67032142D01*
X64936666Y-67079761D01*
X64841428Y-67127380D01*
X64698571Y-67127380D01*
M02*
