G04 #@! TF.GenerationSoftware,KiCad,Pcbnew,5.1.2-f72e74a~84~ubuntu16.04.1*
G04 #@! TF.CreationDate,2019-07-14T12:51:28-04:00*
G04 #@! TF.ProjectId,radiance_controller,72616469-616e-4636-955f-636f6e74726f,rev?*
G04 #@! TF.SameCoordinates,Original*
G04 #@! TF.FileFunction,Copper,L2,Bot*
G04 #@! TF.FilePolarity,Positive*
%FSLAX46Y46*%
G04 Gerber Fmt 4.6, Leading zero omitted, Abs format (unit mm)*
G04 Created by KiCad (PCBNEW 5.1.2-f72e74a~84~ubuntu16.04.1) date 2019-07-14 12:51:28*
%MOMM*%
%LPD*%
G04 APERTURE LIST*
%ADD10O,1.700000X1.700000*%
%ADD11R,1.700000X1.700000*%
%ADD12C,0.100000*%
%ADD13C,1.150000*%
%ADD14C,0.136863*%
%ADD15C,0.250000*%
%ADD16C,0.950000*%
%ADD17R,1.200000X1.900000*%
%ADD18O,1.200000X1.900000*%
%ADD19R,1.500000X1.900000*%
%ADD20C,1.450000*%
%ADD21R,0.400000X1.350000*%
%ADD22C,2.000000*%
%ADD23R,1.560000X0.650000*%
%ADD24R,1.600000X2.180000*%
%ADD25C,0.812800*%
%ADD26C,0.254000*%
%ADD27C,0.406400*%
%ADD28C,0.203200*%
G04 APERTURE END LIST*
D10*
X85090000Y-52705000D03*
X85090000Y-55245000D03*
X85090000Y-57785000D03*
D11*
X85090000Y-60325000D03*
D10*
X61595000Y-65405000D03*
X61595000Y-67945000D03*
X61595000Y-70485000D03*
D11*
X61595000Y-73025000D03*
D10*
X61595000Y-52705000D03*
X61595000Y-55245000D03*
X61595000Y-57785000D03*
D11*
X61595000Y-60325000D03*
D12*
G36*
X74769505Y-62046204D02*
G01*
X74793773Y-62049804D01*
X74817572Y-62055765D01*
X74840671Y-62064030D01*
X74862850Y-62074520D01*
X74883893Y-62087132D01*
X74903599Y-62101747D01*
X74921777Y-62118223D01*
X74938253Y-62136401D01*
X74952868Y-62156107D01*
X74965480Y-62177150D01*
X74975970Y-62199329D01*
X74984235Y-62222428D01*
X74990196Y-62246227D01*
X74993796Y-62270495D01*
X74995000Y-62294999D01*
X74995000Y-62945001D01*
X74993796Y-62969505D01*
X74990196Y-62993773D01*
X74984235Y-63017572D01*
X74975970Y-63040671D01*
X74965480Y-63062850D01*
X74952868Y-63083893D01*
X74938253Y-63103599D01*
X74921777Y-63121777D01*
X74903599Y-63138253D01*
X74883893Y-63152868D01*
X74862850Y-63165480D01*
X74840671Y-63175970D01*
X74817572Y-63184235D01*
X74793773Y-63190196D01*
X74769505Y-63193796D01*
X74745001Y-63195000D01*
X73844999Y-63195000D01*
X73820495Y-63193796D01*
X73796227Y-63190196D01*
X73772428Y-63184235D01*
X73749329Y-63175970D01*
X73727150Y-63165480D01*
X73706107Y-63152868D01*
X73686401Y-63138253D01*
X73668223Y-63121777D01*
X73651747Y-63103599D01*
X73637132Y-63083893D01*
X73624520Y-63062850D01*
X73614030Y-63040671D01*
X73605765Y-63017572D01*
X73599804Y-62993773D01*
X73596204Y-62969505D01*
X73595000Y-62945001D01*
X73595000Y-62294999D01*
X73596204Y-62270495D01*
X73599804Y-62246227D01*
X73605765Y-62222428D01*
X73614030Y-62199329D01*
X73624520Y-62177150D01*
X73637132Y-62156107D01*
X73651747Y-62136401D01*
X73668223Y-62118223D01*
X73686401Y-62101747D01*
X73706107Y-62087132D01*
X73727150Y-62074520D01*
X73749329Y-62064030D01*
X73772428Y-62055765D01*
X73796227Y-62049804D01*
X73820495Y-62046204D01*
X73844999Y-62045000D01*
X74745001Y-62045000D01*
X74769505Y-62046204D01*
X74769505Y-62046204D01*
G37*
D13*
X74295000Y-62620000D03*
D12*
G36*
X74769505Y-59996204D02*
G01*
X74793773Y-59999804D01*
X74817572Y-60005765D01*
X74840671Y-60014030D01*
X74862850Y-60024520D01*
X74883893Y-60037132D01*
X74903599Y-60051747D01*
X74921777Y-60068223D01*
X74938253Y-60086401D01*
X74952868Y-60106107D01*
X74965480Y-60127150D01*
X74975970Y-60149329D01*
X74984235Y-60172428D01*
X74990196Y-60196227D01*
X74993796Y-60220495D01*
X74995000Y-60244999D01*
X74995000Y-60895001D01*
X74993796Y-60919505D01*
X74990196Y-60943773D01*
X74984235Y-60967572D01*
X74975970Y-60990671D01*
X74965480Y-61012850D01*
X74952868Y-61033893D01*
X74938253Y-61053599D01*
X74921777Y-61071777D01*
X74903599Y-61088253D01*
X74883893Y-61102868D01*
X74862850Y-61115480D01*
X74840671Y-61125970D01*
X74817572Y-61134235D01*
X74793773Y-61140196D01*
X74769505Y-61143796D01*
X74745001Y-61145000D01*
X73844999Y-61145000D01*
X73820495Y-61143796D01*
X73796227Y-61140196D01*
X73772428Y-61134235D01*
X73749329Y-61125970D01*
X73727150Y-61115480D01*
X73706107Y-61102868D01*
X73686401Y-61088253D01*
X73668223Y-61071777D01*
X73651747Y-61053599D01*
X73637132Y-61033893D01*
X73624520Y-61012850D01*
X73614030Y-60990671D01*
X73605765Y-60967572D01*
X73599804Y-60943773D01*
X73596204Y-60919505D01*
X73595000Y-60895001D01*
X73595000Y-60244999D01*
X73596204Y-60220495D01*
X73599804Y-60196227D01*
X73605765Y-60172428D01*
X73614030Y-60149329D01*
X73624520Y-60127150D01*
X73637132Y-60106107D01*
X73651747Y-60086401D01*
X73668223Y-60068223D01*
X73686401Y-60051747D01*
X73706107Y-60037132D01*
X73727150Y-60024520D01*
X73749329Y-60014030D01*
X73772428Y-60005765D01*
X73796227Y-59999804D01*
X73820495Y-59996204D01*
X73844999Y-59995000D01*
X74745001Y-59995000D01*
X74769505Y-59996204D01*
X74769505Y-59996204D01*
G37*
D13*
X74295000Y-60570000D03*
D14*
X70577500Y-63095000D03*
D12*
G36*
X70200865Y-63006221D02*
G01*
X70203425Y-62997779D01*
X70207584Y-62989999D01*
X70213180Y-62983180D01*
X70219999Y-62977584D01*
X70227779Y-62973425D01*
X70236221Y-62970865D01*
X70245000Y-62970000D01*
X70910000Y-62970000D01*
X70918779Y-62970865D01*
X70927221Y-62973425D01*
X70935001Y-62977584D01*
X70941820Y-62983180D01*
X70947416Y-62989999D01*
X70951575Y-62997779D01*
X70954135Y-63006221D01*
X70955000Y-63015000D01*
X70955000Y-63175000D01*
X70954135Y-63183779D01*
X70951575Y-63192221D01*
X70947416Y-63200001D01*
X70941820Y-63206820D01*
X70935001Y-63212416D01*
X70927221Y-63216575D01*
X70918779Y-63219135D01*
X70910000Y-63220000D01*
X70378640Y-63220000D01*
X70369861Y-63219135D01*
X70361419Y-63216575D01*
X70353639Y-63212416D01*
X70346820Y-63206820D01*
X70213180Y-63073180D01*
X70207584Y-63066361D01*
X70203425Y-63058581D01*
X70200865Y-63050139D01*
X70200000Y-63041360D01*
X70200000Y-63015000D01*
X70200865Y-63006221D01*
X70200865Y-63006221D01*
G37*
G36*
X70898626Y-62470301D02*
G01*
X70904693Y-62471201D01*
X70910643Y-62472691D01*
X70916418Y-62474758D01*
X70921962Y-62477380D01*
X70927223Y-62480533D01*
X70932150Y-62484187D01*
X70936694Y-62488306D01*
X70940813Y-62492850D01*
X70944467Y-62497777D01*
X70947620Y-62503038D01*
X70950242Y-62508582D01*
X70952309Y-62514357D01*
X70953799Y-62520307D01*
X70954699Y-62526374D01*
X70955000Y-62532500D01*
X70955000Y-62657500D01*
X70954699Y-62663626D01*
X70953799Y-62669693D01*
X70952309Y-62675643D01*
X70950242Y-62681418D01*
X70947620Y-62686962D01*
X70944467Y-62692223D01*
X70940813Y-62697150D01*
X70936694Y-62701694D01*
X70932150Y-62705813D01*
X70927223Y-62709467D01*
X70921962Y-62712620D01*
X70916418Y-62715242D01*
X70910643Y-62717309D01*
X70904693Y-62718799D01*
X70898626Y-62719699D01*
X70892500Y-62720000D01*
X70142500Y-62720000D01*
X70136374Y-62719699D01*
X70130307Y-62718799D01*
X70124357Y-62717309D01*
X70118582Y-62715242D01*
X70113038Y-62712620D01*
X70107777Y-62709467D01*
X70102850Y-62705813D01*
X70098306Y-62701694D01*
X70094187Y-62697150D01*
X70090533Y-62692223D01*
X70087380Y-62686962D01*
X70084758Y-62681418D01*
X70082691Y-62675643D01*
X70081201Y-62669693D01*
X70080301Y-62663626D01*
X70080000Y-62657500D01*
X70080000Y-62532500D01*
X70080301Y-62526374D01*
X70081201Y-62520307D01*
X70082691Y-62514357D01*
X70084758Y-62508582D01*
X70087380Y-62503038D01*
X70090533Y-62497777D01*
X70094187Y-62492850D01*
X70098306Y-62488306D01*
X70102850Y-62484187D01*
X70107777Y-62480533D01*
X70113038Y-62477380D01*
X70118582Y-62474758D01*
X70124357Y-62472691D01*
X70130307Y-62471201D01*
X70136374Y-62470301D01*
X70142500Y-62470000D01*
X70892500Y-62470000D01*
X70898626Y-62470301D01*
X70898626Y-62470301D01*
G37*
D15*
X70517500Y-62595000D03*
D12*
G36*
X70898626Y-61970301D02*
G01*
X70904693Y-61971201D01*
X70910643Y-61972691D01*
X70916418Y-61974758D01*
X70921962Y-61977380D01*
X70927223Y-61980533D01*
X70932150Y-61984187D01*
X70936694Y-61988306D01*
X70940813Y-61992850D01*
X70944467Y-61997777D01*
X70947620Y-62003038D01*
X70950242Y-62008582D01*
X70952309Y-62014357D01*
X70953799Y-62020307D01*
X70954699Y-62026374D01*
X70955000Y-62032500D01*
X70955000Y-62157500D01*
X70954699Y-62163626D01*
X70953799Y-62169693D01*
X70952309Y-62175643D01*
X70950242Y-62181418D01*
X70947620Y-62186962D01*
X70944467Y-62192223D01*
X70940813Y-62197150D01*
X70936694Y-62201694D01*
X70932150Y-62205813D01*
X70927223Y-62209467D01*
X70921962Y-62212620D01*
X70916418Y-62215242D01*
X70910643Y-62217309D01*
X70904693Y-62218799D01*
X70898626Y-62219699D01*
X70892500Y-62220000D01*
X70142500Y-62220000D01*
X70136374Y-62219699D01*
X70130307Y-62218799D01*
X70124357Y-62217309D01*
X70118582Y-62215242D01*
X70113038Y-62212620D01*
X70107777Y-62209467D01*
X70102850Y-62205813D01*
X70098306Y-62201694D01*
X70094187Y-62197150D01*
X70090533Y-62192223D01*
X70087380Y-62186962D01*
X70084758Y-62181418D01*
X70082691Y-62175643D01*
X70081201Y-62169693D01*
X70080301Y-62163626D01*
X70080000Y-62157500D01*
X70080000Y-62032500D01*
X70080301Y-62026374D01*
X70081201Y-62020307D01*
X70082691Y-62014357D01*
X70084758Y-62008582D01*
X70087380Y-62003038D01*
X70090533Y-61997777D01*
X70094187Y-61992850D01*
X70098306Y-61988306D01*
X70102850Y-61984187D01*
X70107777Y-61980533D01*
X70113038Y-61977380D01*
X70118582Y-61974758D01*
X70124357Y-61972691D01*
X70130307Y-61971201D01*
X70136374Y-61970301D01*
X70142500Y-61970000D01*
X70892500Y-61970000D01*
X70898626Y-61970301D01*
X70898626Y-61970301D01*
G37*
D15*
X70517500Y-62095000D03*
D12*
G36*
X70898626Y-61470301D02*
G01*
X70904693Y-61471201D01*
X70910643Y-61472691D01*
X70916418Y-61474758D01*
X70921962Y-61477380D01*
X70927223Y-61480533D01*
X70932150Y-61484187D01*
X70936694Y-61488306D01*
X70940813Y-61492850D01*
X70944467Y-61497777D01*
X70947620Y-61503038D01*
X70950242Y-61508582D01*
X70952309Y-61514357D01*
X70953799Y-61520307D01*
X70954699Y-61526374D01*
X70955000Y-61532500D01*
X70955000Y-61657500D01*
X70954699Y-61663626D01*
X70953799Y-61669693D01*
X70952309Y-61675643D01*
X70950242Y-61681418D01*
X70947620Y-61686962D01*
X70944467Y-61692223D01*
X70940813Y-61697150D01*
X70936694Y-61701694D01*
X70932150Y-61705813D01*
X70927223Y-61709467D01*
X70921962Y-61712620D01*
X70916418Y-61715242D01*
X70910643Y-61717309D01*
X70904693Y-61718799D01*
X70898626Y-61719699D01*
X70892500Y-61720000D01*
X70142500Y-61720000D01*
X70136374Y-61719699D01*
X70130307Y-61718799D01*
X70124357Y-61717309D01*
X70118582Y-61715242D01*
X70113038Y-61712620D01*
X70107777Y-61709467D01*
X70102850Y-61705813D01*
X70098306Y-61701694D01*
X70094187Y-61697150D01*
X70090533Y-61692223D01*
X70087380Y-61686962D01*
X70084758Y-61681418D01*
X70082691Y-61675643D01*
X70081201Y-61669693D01*
X70080301Y-61663626D01*
X70080000Y-61657500D01*
X70080000Y-61532500D01*
X70080301Y-61526374D01*
X70081201Y-61520307D01*
X70082691Y-61514357D01*
X70084758Y-61508582D01*
X70087380Y-61503038D01*
X70090533Y-61497777D01*
X70094187Y-61492850D01*
X70098306Y-61488306D01*
X70102850Y-61484187D01*
X70107777Y-61480533D01*
X70113038Y-61477380D01*
X70118582Y-61474758D01*
X70124357Y-61472691D01*
X70130307Y-61471201D01*
X70136374Y-61470301D01*
X70142500Y-61470000D01*
X70892500Y-61470000D01*
X70898626Y-61470301D01*
X70898626Y-61470301D01*
G37*
D15*
X70517500Y-61595000D03*
D12*
G36*
X70898626Y-60970301D02*
G01*
X70904693Y-60971201D01*
X70910643Y-60972691D01*
X70916418Y-60974758D01*
X70921962Y-60977380D01*
X70927223Y-60980533D01*
X70932150Y-60984187D01*
X70936694Y-60988306D01*
X70940813Y-60992850D01*
X70944467Y-60997777D01*
X70947620Y-61003038D01*
X70950242Y-61008582D01*
X70952309Y-61014357D01*
X70953799Y-61020307D01*
X70954699Y-61026374D01*
X70955000Y-61032500D01*
X70955000Y-61157500D01*
X70954699Y-61163626D01*
X70953799Y-61169693D01*
X70952309Y-61175643D01*
X70950242Y-61181418D01*
X70947620Y-61186962D01*
X70944467Y-61192223D01*
X70940813Y-61197150D01*
X70936694Y-61201694D01*
X70932150Y-61205813D01*
X70927223Y-61209467D01*
X70921962Y-61212620D01*
X70916418Y-61215242D01*
X70910643Y-61217309D01*
X70904693Y-61218799D01*
X70898626Y-61219699D01*
X70892500Y-61220000D01*
X70142500Y-61220000D01*
X70136374Y-61219699D01*
X70130307Y-61218799D01*
X70124357Y-61217309D01*
X70118582Y-61215242D01*
X70113038Y-61212620D01*
X70107777Y-61209467D01*
X70102850Y-61205813D01*
X70098306Y-61201694D01*
X70094187Y-61197150D01*
X70090533Y-61192223D01*
X70087380Y-61186962D01*
X70084758Y-61181418D01*
X70082691Y-61175643D01*
X70081201Y-61169693D01*
X70080301Y-61163626D01*
X70080000Y-61157500D01*
X70080000Y-61032500D01*
X70080301Y-61026374D01*
X70081201Y-61020307D01*
X70082691Y-61014357D01*
X70084758Y-61008582D01*
X70087380Y-61003038D01*
X70090533Y-60997777D01*
X70094187Y-60992850D01*
X70098306Y-60988306D01*
X70102850Y-60984187D01*
X70107777Y-60980533D01*
X70113038Y-60977380D01*
X70118582Y-60974758D01*
X70124357Y-60972691D01*
X70130307Y-60971201D01*
X70136374Y-60970301D01*
X70142500Y-60970000D01*
X70892500Y-60970000D01*
X70898626Y-60970301D01*
X70898626Y-60970301D01*
G37*
D15*
X70517500Y-61095000D03*
D12*
G36*
X70898626Y-60470301D02*
G01*
X70904693Y-60471201D01*
X70910643Y-60472691D01*
X70916418Y-60474758D01*
X70921962Y-60477380D01*
X70927223Y-60480533D01*
X70932150Y-60484187D01*
X70936694Y-60488306D01*
X70940813Y-60492850D01*
X70944467Y-60497777D01*
X70947620Y-60503038D01*
X70950242Y-60508582D01*
X70952309Y-60514357D01*
X70953799Y-60520307D01*
X70954699Y-60526374D01*
X70955000Y-60532500D01*
X70955000Y-60657500D01*
X70954699Y-60663626D01*
X70953799Y-60669693D01*
X70952309Y-60675643D01*
X70950242Y-60681418D01*
X70947620Y-60686962D01*
X70944467Y-60692223D01*
X70940813Y-60697150D01*
X70936694Y-60701694D01*
X70932150Y-60705813D01*
X70927223Y-60709467D01*
X70921962Y-60712620D01*
X70916418Y-60715242D01*
X70910643Y-60717309D01*
X70904693Y-60718799D01*
X70898626Y-60719699D01*
X70892500Y-60720000D01*
X70142500Y-60720000D01*
X70136374Y-60719699D01*
X70130307Y-60718799D01*
X70124357Y-60717309D01*
X70118582Y-60715242D01*
X70113038Y-60712620D01*
X70107777Y-60709467D01*
X70102850Y-60705813D01*
X70098306Y-60701694D01*
X70094187Y-60697150D01*
X70090533Y-60692223D01*
X70087380Y-60686962D01*
X70084758Y-60681418D01*
X70082691Y-60675643D01*
X70081201Y-60669693D01*
X70080301Y-60663626D01*
X70080000Y-60657500D01*
X70080000Y-60532500D01*
X70080301Y-60526374D01*
X70081201Y-60520307D01*
X70082691Y-60514357D01*
X70084758Y-60508582D01*
X70087380Y-60503038D01*
X70090533Y-60497777D01*
X70094187Y-60492850D01*
X70098306Y-60488306D01*
X70102850Y-60484187D01*
X70107777Y-60480533D01*
X70113038Y-60477380D01*
X70118582Y-60474758D01*
X70124357Y-60472691D01*
X70130307Y-60471201D01*
X70136374Y-60470301D01*
X70142500Y-60470000D01*
X70892500Y-60470000D01*
X70898626Y-60470301D01*
X70898626Y-60470301D01*
G37*
D15*
X70517500Y-60595000D03*
D14*
X70577500Y-60095000D03*
D12*
G36*
X70200865Y-60139861D02*
G01*
X70203425Y-60131419D01*
X70207584Y-60123639D01*
X70213180Y-60116820D01*
X70346820Y-59983180D01*
X70353639Y-59977584D01*
X70361419Y-59973425D01*
X70369861Y-59970865D01*
X70378640Y-59970000D01*
X70910000Y-59970000D01*
X70918779Y-59970865D01*
X70927221Y-59973425D01*
X70935001Y-59977584D01*
X70941820Y-59983180D01*
X70947416Y-59989999D01*
X70951575Y-59997779D01*
X70954135Y-60006221D01*
X70955000Y-60015000D01*
X70955000Y-60175000D01*
X70954135Y-60183779D01*
X70951575Y-60192221D01*
X70947416Y-60200001D01*
X70941820Y-60206820D01*
X70935001Y-60212416D01*
X70927221Y-60216575D01*
X70918779Y-60219135D01*
X70910000Y-60220000D01*
X70245000Y-60220000D01*
X70236221Y-60219135D01*
X70227779Y-60216575D01*
X70219999Y-60212416D01*
X70213180Y-60206820D01*
X70207584Y-60200001D01*
X70203425Y-60192221D01*
X70200865Y-60183779D01*
X70200000Y-60175000D01*
X70200000Y-60148640D01*
X70200865Y-60139861D01*
X70200865Y-60139861D01*
G37*
D14*
X70080000Y-59597500D03*
D12*
G36*
X69955865Y-59256221D02*
G01*
X69958425Y-59247779D01*
X69962584Y-59239999D01*
X69968180Y-59233180D01*
X69974999Y-59227584D01*
X69982779Y-59223425D01*
X69991221Y-59220865D01*
X70000000Y-59220000D01*
X70160000Y-59220000D01*
X70168779Y-59220865D01*
X70177221Y-59223425D01*
X70185001Y-59227584D01*
X70191820Y-59233180D01*
X70197416Y-59239999D01*
X70201575Y-59247779D01*
X70204135Y-59256221D01*
X70205000Y-59265000D01*
X70205000Y-59796360D01*
X70204135Y-59805139D01*
X70201575Y-59813581D01*
X70197416Y-59821361D01*
X70191820Y-59828180D01*
X70058180Y-59961820D01*
X70051361Y-59967416D01*
X70043581Y-59971575D01*
X70035139Y-59974135D01*
X70026360Y-59975000D01*
X70000000Y-59975000D01*
X69991221Y-59974135D01*
X69982779Y-59971575D01*
X69974999Y-59967416D01*
X69968180Y-59961820D01*
X69962584Y-59955001D01*
X69958425Y-59947221D01*
X69955865Y-59938779D01*
X69955000Y-59930000D01*
X69955000Y-59265000D01*
X69955865Y-59256221D01*
X69955865Y-59256221D01*
G37*
G36*
X69648626Y-59220301D02*
G01*
X69654693Y-59221201D01*
X69660643Y-59222691D01*
X69666418Y-59224758D01*
X69671962Y-59227380D01*
X69677223Y-59230533D01*
X69682150Y-59234187D01*
X69686694Y-59238306D01*
X69690813Y-59242850D01*
X69694467Y-59247777D01*
X69697620Y-59253038D01*
X69700242Y-59258582D01*
X69702309Y-59264357D01*
X69703799Y-59270307D01*
X69704699Y-59276374D01*
X69705000Y-59282500D01*
X69705000Y-60032500D01*
X69704699Y-60038626D01*
X69703799Y-60044693D01*
X69702309Y-60050643D01*
X69700242Y-60056418D01*
X69697620Y-60061962D01*
X69694467Y-60067223D01*
X69690813Y-60072150D01*
X69686694Y-60076694D01*
X69682150Y-60080813D01*
X69677223Y-60084467D01*
X69671962Y-60087620D01*
X69666418Y-60090242D01*
X69660643Y-60092309D01*
X69654693Y-60093799D01*
X69648626Y-60094699D01*
X69642500Y-60095000D01*
X69517500Y-60095000D01*
X69511374Y-60094699D01*
X69505307Y-60093799D01*
X69499357Y-60092309D01*
X69493582Y-60090242D01*
X69488038Y-60087620D01*
X69482777Y-60084467D01*
X69477850Y-60080813D01*
X69473306Y-60076694D01*
X69469187Y-60072150D01*
X69465533Y-60067223D01*
X69462380Y-60061962D01*
X69459758Y-60056418D01*
X69457691Y-60050643D01*
X69456201Y-60044693D01*
X69455301Y-60038626D01*
X69455000Y-60032500D01*
X69455000Y-59282500D01*
X69455301Y-59276374D01*
X69456201Y-59270307D01*
X69457691Y-59264357D01*
X69459758Y-59258582D01*
X69462380Y-59253038D01*
X69465533Y-59247777D01*
X69469187Y-59242850D01*
X69473306Y-59238306D01*
X69477850Y-59234187D01*
X69482777Y-59230533D01*
X69488038Y-59227380D01*
X69493582Y-59224758D01*
X69499357Y-59222691D01*
X69505307Y-59221201D01*
X69511374Y-59220301D01*
X69517500Y-59220000D01*
X69642500Y-59220000D01*
X69648626Y-59220301D01*
X69648626Y-59220301D01*
G37*
D15*
X69580000Y-59657500D03*
D12*
G36*
X69148626Y-59220301D02*
G01*
X69154693Y-59221201D01*
X69160643Y-59222691D01*
X69166418Y-59224758D01*
X69171962Y-59227380D01*
X69177223Y-59230533D01*
X69182150Y-59234187D01*
X69186694Y-59238306D01*
X69190813Y-59242850D01*
X69194467Y-59247777D01*
X69197620Y-59253038D01*
X69200242Y-59258582D01*
X69202309Y-59264357D01*
X69203799Y-59270307D01*
X69204699Y-59276374D01*
X69205000Y-59282500D01*
X69205000Y-60032500D01*
X69204699Y-60038626D01*
X69203799Y-60044693D01*
X69202309Y-60050643D01*
X69200242Y-60056418D01*
X69197620Y-60061962D01*
X69194467Y-60067223D01*
X69190813Y-60072150D01*
X69186694Y-60076694D01*
X69182150Y-60080813D01*
X69177223Y-60084467D01*
X69171962Y-60087620D01*
X69166418Y-60090242D01*
X69160643Y-60092309D01*
X69154693Y-60093799D01*
X69148626Y-60094699D01*
X69142500Y-60095000D01*
X69017500Y-60095000D01*
X69011374Y-60094699D01*
X69005307Y-60093799D01*
X68999357Y-60092309D01*
X68993582Y-60090242D01*
X68988038Y-60087620D01*
X68982777Y-60084467D01*
X68977850Y-60080813D01*
X68973306Y-60076694D01*
X68969187Y-60072150D01*
X68965533Y-60067223D01*
X68962380Y-60061962D01*
X68959758Y-60056418D01*
X68957691Y-60050643D01*
X68956201Y-60044693D01*
X68955301Y-60038626D01*
X68955000Y-60032500D01*
X68955000Y-59282500D01*
X68955301Y-59276374D01*
X68956201Y-59270307D01*
X68957691Y-59264357D01*
X68959758Y-59258582D01*
X68962380Y-59253038D01*
X68965533Y-59247777D01*
X68969187Y-59242850D01*
X68973306Y-59238306D01*
X68977850Y-59234187D01*
X68982777Y-59230533D01*
X68988038Y-59227380D01*
X68993582Y-59224758D01*
X68999357Y-59222691D01*
X69005307Y-59221201D01*
X69011374Y-59220301D01*
X69017500Y-59220000D01*
X69142500Y-59220000D01*
X69148626Y-59220301D01*
X69148626Y-59220301D01*
G37*
D15*
X69080000Y-59657500D03*
D12*
G36*
X68648626Y-59220301D02*
G01*
X68654693Y-59221201D01*
X68660643Y-59222691D01*
X68666418Y-59224758D01*
X68671962Y-59227380D01*
X68677223Y-59230533D01*
X68682150Y-59234187D01*
X68686694Y-59238306D01*
X68690813Y-59242850D01*
X68694467Y-59247777D01*
X68697620Y-59253038D01*
X68700242Y-59258582D01*
X68702309Y-59264357D01*
X68703799Y-59270307D01*
X68704699Y-59276374D01*
X68705000Y-59282500D01*
X68705000Y-60032500D01*
X68704699Y-60038626D01*
X68703799Y-60044693D01*
X68702309Y-60050643D01*
X68700242Y-60056418D01*
X68697620Y-60061962D01*
X68694467Y-60067223D01*
X68690813Y-60072150D01*
X68686694Y-60076694D01*
X68682150Y-60080813D01*
X68677223Y-60084467D01*
X68671962Y-60087620D01*
X68666418Y-60090242D01*
X68660643Y-60092309D01*
X68654693Y-60093799D01*
X68648626Y-60094699D01*
X68642500Y-60095000D01*
X68517500Y-60095000D01*
X68511374Y-60094699D01*
X68505307Y-60093799D01*
X68499357Y-60092309D01*
X68493582Y-60090242D01*
X68488038Y-60087620D01*
X68482777Y-60084467D01*
X68477850Y-60080813D01*
X68473306Y-60076694D01*
X68469187Y-60072150D01*
X68465533Y-60067223D01*
X68462380Y-60061962D01*
X68459758Y-60056418D01*
X68457691Y-60050643D01*
X68456201Y-60044693D01*
X68455301Y-60038626D01*
X68455000Y-60032500D01*
X68455000Y-59282500D01*
X68455301Y-59276374D01*
X68456201Y-59270307D01*
X68457691Y-59264357D01*
X68459758Y-59258582D01*
X68462380Y-59253038D01*
X68465533Y-59247777D01*
X68469187Y-59242850D01*
X68473306Y-59238306D01*
X68477850Y-59234187D01*
X68482777Y-59230533D01*
X68488038Y-59227380D01*
X68493582Y-59224758D01*
X68499357Y-59222691D01*
X68505307Y-59221201D01*
X68511374Y-59220301D01*
X68517500Y-59220000D01*
X68642500Y-59220000D01*
X68648626Y-59220301D01*
X68648626Y-59220301D01*
G37*
D15*
X68580000Y-59657500D03*
D12*
G36*
X68148626Y-59220301D02*
G01*
X68154693Y-59221201D01*
X68160643Y-59222691D01*
X68166418Y-59224758D01*
X68171962Y-59227380D01*
X68177223Y-59230533D01*
X68182150Y-59234187D01*
X68186694Y-59238306D01*
X68190813Y-59242850D01*
X68194467Y-59247777D01*
X68197620Y-59253038D01*
X68200242Y-59258582D01*
X68202309Y-59264357D01*
X68203799Y-59270307D01*
X68204699Y-59276374D01*
X68205000Y-59282500D01*
X68205000Y-60032500D01*
X68204699Y-60038626D01*
X68203799Y-60044693D01*
X68202309Y-60050643D01*
X68200242Y-60056418D01*
X68197620Y-60061962D01*
X68194467Y-60067223D01*
X68190813Y-60072150D01*
X68186694Y-60076694D01*
X68182150Y-60080813D01*
X68177223Y-60084467D01*
X68171962Y-60087620D01*
X68166418Y-60090242D01*
X68160643Y-60092309D01*
X68154693Y-60093799D01*
X68148626Y-60094699D01*
X68142500Y-60095000D01*
X68017500Y-60095000D01*
X68011374Y-60094699D01*
X68005307Y-60093799D01*
X67999357Y-60092309D01*
X67993582Y-60090242D01*
X67988038Y-60087620D01*
X67982777Y-60084467D01*
X67977850Y-60080813D01*
X67973306Y-60076694D01*
X67969187Y-60072150D01*
X67965533Y-60067223D01*
X67962380Y-60061962D01*
X67959758Y-60056418D01*
X67957691Y-60050643D01*
X67956201Y-60044693D01*
X67955301Y-60038626D01*
X67955000Y-60032500D01*
X67955000Y-59282500D01*
X67955301Y-59276374D01*
X67956201Y-59270307D01*
X67957691Y-59264357D01*
X67959758Y-59258582D01*
X67962380Y-59253038D01*
X67965533Y-59247777D01*
X67969187Y-59242850D01*
X67973306Y-59238306D01*
X67977850Y-59234187D01*
X67982777Y-59230533D01*
X67988038Y-59227380D01*
X67993582Y-59224758D01*
X67999357Y-59222691D01*
X68005307Y-59221201D01*
X68011374Y-59220301D01*
X68017500Y-59220000D01*
X68142500Y-59220000D01*
X68148626Y-59220301D01*
X68148626Y-59220301D01*
G37*
D15*
X68080000Y-59657500D03*
D12*
G36*
X67648626Y-59220301D02*
G01*
X67654693Y-59221201D01*
X67660643Y-59222691D01*
X67666418Y-59224758D01*
X67671962Y-59227380D01*
X67677223Y-59230533D01*
X67682150Y-59234187D01*
X67686694Y-59238306D01*
X67690813Y-59242850D01*
X67694467Y-59247777D01*
X67697620Y-59253038D01*
X67700242Y-59258582D01*
X67702309Y-59264357D01*
X67703799Y-59270307D01*
X67704699Y-59276374D01*
X67705000Y-59282500D01*
X67705000Y-60032500D01*
X67704699Y-60038626D01*
X67703799Y-60044693D01*
X67702309Y-60050643D01*
X67700242Y-60056418D01*
X67697620Y-60061962D01*
X67694467Y-60067223D01*
X67690813Y-60072150D01*
X67686694Y-60076694D01*
X67682150Y-60080813D01*
X67677223Y-60084467D01*
X67671962Y-60087620D01*
X67666418Y-60090242D01*
X67660643Y-60092309D01*
X67654693Y-60093799D01*
X67648626Y-60094699D01*
X67642500Y-60095000D01*
X67517500Y-60095000D01*
X67511374Y-60094699D01*
X67505307Y-60093799D01*
X67499357Y-60092309D01*
X67493582Y-60090242D01*
X67488038Y-60087620D01*
X67482777Y-60084467D01*
X67477850Y-60080813D01*
X67473306Y-60076694D01*
X67469187Y-60072150D01*
X67465533Y-60067223D01*
X67462380Y-60061962D01*
X67459758Y-60056418D01*
X67457691Y-60050643D01*
X67456201Y-60044693D01*
X67455301Y-60038626D01*
X67455000Y-60032500D01*
X67455000Y-59282500D01*
X67455301Y-59276374D01*
X67456201Y-59270307D01*
X67457691Y-59264357D01*
X67459758Y-59258582D01*
X67462380Y-59253038D01*
X67465533Y-59247777D01*
X67469187Y-59242850D01*
X67473306Y-59238306D01*
X67477850Y-59234187D01*
X67482777Y-59230533D01*
X67488038Y-59227380D01*
X67493582Y-59224758D01*
X67499357Y-59222691D01*
X67505307Y-59221201D01*
X67511374Y-59220301D01*
X67517500Y-59220000D01*
X67642500Y-59220000D01*
X67648626Y-59220301D01*
X67648626Y-59220301D01*
G37*
D15*
X67580000Y-59657500D03*
D14*
X67080000Y-59597500D03*
D12*
G36*
X66955865Y-59256221D02*
G01*
X66958425Y-59247779D01*
X66962584Y-59239999D01*
X66968180Y-59233180D01*
X66974999Y-59227584D01*
X66982779Y-59223425D01*
X66991221Y-59220865D01*
X67000000Y-59220000D01*
X67160000Y-59220000D01*
X67168779Y-59220865D01*
X67177221Y-59223425D01*
X67185001Y-59227584D01*
X67191820Y-59233180D01*
X67197416Y-59239999D01*
X67201575Y-59247779D01*
X67204135Y-59256221D01*
X67205000Y-59265000D01*
X67205000Y-59930000D01*
X67204135Y-59938779D01*
X67201575Y-59947221D01*
X67197416Y-59955001D01*
X67191820Y-59961820D01*
X67185001Y-59967416D01*
X67177221Y-59971575D01*
X67168779Y-59974135D01*
X67160000Y-59975000D01*
X67133640Y-59975000D01*
X67124861Y-59974135D01*
X67116419Y-59971575D01*
X67108639Y-59967416D01*
X67101820Y-59961820D01*
X66968180Y-59828180D01*
X66962584Y-59821361D01*
X66958425Y-59813581D01*
X66955865Y-59805139D01*
X66955000Y-59796360D01*
X66955000Y-59265000D01*
X66955865Y-59256221D01*
X66955865Y-59256221D01*
G37*
D14*
X66582500Y-60095000D03*
D12*
G36*
X66205865Y-60006221D02*
G01*
X66208425Y-59997779D01*
X66212584Y-59989999D01*
X66218180Y-59983180D01*
X66224999Y-59977584D01*
X66232779Y-59973425D01*
X66241221Y-59970865D01*
X66250000Y-59970000D01*
X66781360Y-59970000D01*
X66790139Y-59970865D01*
X66798581Y-59973425D01*
X66806361Y-59977584D01*
X66813180Y-59983180D01*
X66946820Y-60116820D01*
X66952416Y-60123639D01*
X66956575Y-60131419D01*
X66959135Y-60139861D01*
X66960000Y-60148640D01*
X66960000Y-60175000D01*
X66959135Y-60183779D01*
X66956575Y-60192221D01*
X66952416Y-60200001D01*
X66946820Y-60206820D01*
X66940001Y-60212416D01*
X66932221Y-60216575D01*
X66923779Y-60219135D01*
X66915000Y-60220000D01*
X66250000Y-60220000D01*
X66241221Y-60219135D01*
X66232779Y-60216575D01*
X66224999Y-60212416D01*
X66218180Y-60206820D01*
X66212584Y-60200001D01*
X66208425Y-60192221D01*
X66205865Y-60183779D01*
X66205000Y-60175000D01*
X66205000Y-60015000D01*
X66205865Y-60006221D01*
X66205865Y-60006221D01*
G37*
G36*
X67023626Y-60470301D02*
G01*
X67029693Y-60471201D01*
X67035643Y-60472691D01*
X67041418Y-60474758D01*
X67046962Y-60477380D01*
X67052223Y-60480533D01*
X67057150Y-60484187D01*
X67061694Y-60488306D01*
X67065813Y-60492850D01*
X67069467Y-60497777D01*
X67072620Y-60503038D01*
X67075242Y-60508582D01*
X67077309Y-60514357D01*
X67078799Y-60520307D01*
X67079699Y-60526374D01*
X67080000Y-60532500D01*
X67080000Y-60657500D01*
X67079699Y-60663626D01*
X67078799Y-60669693D01*
X67077309Y-60675643D01*
X67075242Y-60681418D01*
X67072620Y-60686962D01*
X67069467Y-60692223D01*
X67065813Y-60697150D01*
X67061694Y-60701694D01*
X67057150Y-60705813D01*
X67052223Y-60709467D01*
X67046962Y-60712620D01*
X67041418Y-60715242D01*
X67035643Y-60717309D01*
X67029693Y-60718799D01*
X67023626Y-60719699D01*
X67017500Y-60720000D01*
X66267500Y-60720000D01*
X66261374Y-60719699D01*
X66255307Y-60718799D01*
X66249357Y-60717309D01*
X66243582Y-60715242D01*
X66238038Y-60712620D01*
X66232777Y-60709467D01*
X66227850Y-60705813D01*
X66223306Y-60701694D01*
X66219187Y-60697150D01*
X66215533Y-60692223D01*
X66212380Y-60686962D01*
X66209758Y-60681418D01*
X66207691Y-60675643D01*
X66206201Y-60669693D01*
X66205301Y-60663626D01*
X66205000Y-60657500D01*
X66205000Y-60532500D01*
X66205301Y-60526374D01*
X66206201Y-60520307D01*
X66207691Y-60514357D01*
X66209758Y-60508582D01*
X66212380Y-60503038D01*
X66215533Y-60497777D01*
X66219187Y-60492850D01*
X66223306Y-60488306D01*
X66227850Y-60484187D01*
X66232777Y-60480533D01*
X66238038Y-60477380D01*
X66243582Y-60474758D01*
X66249357Y-60472691D01*
X66255307Y-60471201D01*
X66261374Y-60470301D01*
X66267500Y-60470000D01*
X67017500Y-60470000D01*
X67023626Y-60470301D01*
X67023626Y-60470301D01*
G37*
D15*
X66642500Y-60595000D03*
D12*
G36*
X67023626Y-60970301D02*
G01*
X67029693Y-60971201D01*
X67035643Y-60972691D01*
X67041418Y-60974758D01*
X67046962Y-60977380D01*
X67052223Y-60980533D01*
X67057150Y-60984187D01*
X67061694Y-60988306D01*
X67065813Y-60992850D01*
X67069467Y-60997777D01*
X67072620Y-61003038D01*
X67075242Y-61008582D01*
X67077309Y-61014357D01*
X67078799Y-61020307D01*
X67079699Y-61026374D01*
X67080000Y-61032500D01*
X67080000Y-61157500D01*
X67079699Y-61163626D01*
X67078799Y-61169693D01*
X67077309Y-61175643D01*
X67075242Y-61181418D01*
X67072620Y-61186962D01*
X67069467Y-61192223D01*
X67065813Y-61197150D01*
X67061694Y-61201694D01*
X67057150Y-61205813D01*
X67052223Y-61209467D01*
X67046962Y-61212620D01*
X67041418Y-61215242D01*
X67035643Y-61217309D01*
X67029693Y-61218799D01*
X67023626Y-61219699D01*
X67017500Y-61220000D01*
X66267500Y-61220000D01*
X66261374Y-61219699D01*
X66255307Y-61218799D01*
X66249357Y-61217309D01*
X66243582Y-61215242D01*
X66238038Y-61212620D01*
X66232777Y-61209467D01*
X66227850Y-61205813D01*
X66223306Y-61201694D01*
X66219187Y-61197150D01*
X66215533Y-61192223D01*
X66212380Y-61186962D01*
X66209758Y-61181418D01*
X66207691Y-61175643D01*
X66206201Y-61169693D01*
X66205301Y-61163626D01*
X66205000Y-61157500D01*
X66205000Y-61032500D01*
X66205301Y-61026374D01*
X66206201Y-61020307D01*
X66207691Y-61014357D01*
X66209758Y-61008582D01*
X66212380Y-61003038D01*
X66215533Y-60997777D01*
X66219187Y-60992850D01*
X66223306Y-60988306D01*
X66227850Y-60984187D01*
X66232777Y-60980533D01*
X66238038Y-60977380D01*
X66243582Y-60974758D01*
X66249357Y-60972691D01*
X66255307Y-60971201D01*
X66261374Y-60970301D01*
X66267500Y-60970000D01*
X67017500Y-60970000D01*
X67023626Y-60970301D01*
X67023626Y-60970301D01*
G37*
D15*
X66642500Y-61095000D03*
D12*
G36*
X67023626Y-61470301D02*
G01*
X67029693Y-61471201D01*
X67035643Y-61472691D01*
X67041418Y-61474758D01*
X67046962Y-61477380D01*
X67052223Y-61480533D01*
X67057150Y-61484187D01*
X67061694Y-61488306D01*
X67065813Y-61492850D01*
X67069467Y-61497777D01*
X67072620Y-61503038D01*
X67075242Y-61508582D01*
X67077309Y-61514357D01*
X67078799Y-61520307D01*
X67079699Y-61526374D01*
X67080000Y-61532500D01*
X67080000Y-61657500D01*
X67079699Y-61663626D01*
X67078799Y-61669693D01*
X67077309Y-61675643D01*
X67075242Y-61681418D01*
X67072620Y-61686962D01*
X67069467Y-61692223D01*
X67065813Y-61697150D01*
X67061694Y-61701694D01*
X67057150Y-61705813D01*
X67052223Y-61709467D01*
X67046962Y-61712620D01*
X67041418Y-61715242D01*
X67035643Y-61717309D01*
X67029693Y-61718799D01*
X67023626Y-61719699D01*
X67017500Y-61720000D01*
X66267500Y-61720000D01*
X66261374Y-61719699D01*
X66255307Y-61718799D01*
X66249357Y-61717309D01*
X66243582Y-61715242D01*
X66238038Y-61712620D01*
X66232777Y-61709467D01*
X66227850Y-61705813D01*
X66223306Y-61701694D01*
X66219187Y-61697150D01*
X66215533Y-61692223D01*
X66212380Y-61686962D01*
X66209758Y-61681418D01*
X66207691Y-61675643D01*
X66206201Y-61669693D01*
X66205301Y-61663626D01*
X66205000Y-61657500D01*
X66205000Y-61532500D01*
X66205301Y-61526374D01*
X66206201Y-61520307D01*
X66207691Y-61514357D01*
X66209758Y-61508582D01*
X66212380Y-61503038D01*
X66215533Y-61497777D01*
X66219187Y-61492850D01*
X66223306Y-61488306D01*
X66227850Y-61484187D01*
X66232777Y-61480533D01*
X66238038Y-61477380D01*
X66243582Y-61474758D01*
X66249357Y-61472691D01*
X66255307Y-61471201D01*
X66261374Y-61470301D01*
X66267500Y-61470000D01*
X67017500Y-61470000D01*
X67023626Y-61470301D01*
X67023626Y-61470301D01*
G37*
D15*
X66642500Y-61595000D03*
D12*
G36*
X67023626Y-61970301D02*
G01*
X67029693Y-61971201D01*
X67035643Y-61972691D01*
X67041418Y-61974758D01*
X67046962Y-61977380D01*
X67052223Y-61980533D01*
X67057150Y-61984187D01*
X67061694Y-61988306D01*
X67065813Y-61992850D01*
X67069467Y-61997777D01*
X67072620Y-62003038D01*
X67075242Y-62008582D01*
X67077309Y-62014357D01*
X67078799Y-62020307D01*
X67079699Y-62026374D01*
X67080000Y-62032500D01*
X67080000Y-62157500D01*
X67079699Y-62163626D01*
X67078799Y-62169693D01*
X67077309Y-62175643D01*
X67075242Y-62181418D01*
X67072620Y-62186962D01*
X67069467Y-62192223D01*
X67065813Y-62197150D01*
X67061694Y-62201694D01*
X67057150Y-62205813D01*
X67052223Y-62209467D01*
X67046962Y-62212620D01*
X67041418Y-62215242D01*
X67035643Y-62217309D01*
X67029693Y-62218799D01*
X67023626Y-62219699D01*
X67017500Y-62220000D01*
X66267500Y-62220000D01*
X66261374Y-62219699D01*
X66255307Y-62218799D01*
X66249357Y-62217309D01*
X66243582Y-62215242D01*
X66238038Y-62212620D01*
X66232777Y-62209467D01*
X66227850Y-62205813D01*
X66223306Y-62201694D01*
X66219187Y-62197150D01*
X66215533Y-62192223D01*
X66212380Y-62186962D01*
X66209758Y-62181418D01*
X66207691Y-62175643D01*
X66206201Y-62169693D01*
X66205301Y-62163626D01*
X66205000Y-62157500D01*
X66205000Y-62032500D01*
X66205301Y-62026374D01*
X66206201Y-62020307D01*
X66207691Y-62014357D01*
X66209758Y-62008582D01*
X66212380Y-62003038D01*
X66215533Y-61997777D01*
X66219187Y-61992850D01*
X66223306Y-61988306D01*
X66227850Y-61984187D01*
X66232777Y-61980533D01*
X66238038Y-61977380D01*
X66243582Y-61974758D01*
X66249357Y-61972691D01*
X66255307Y-61971201D01*
X66261374Y-61970301D01*
X66267500Y-61970000D01*
X67017500Y-61970000D01*
X67023626Y-61970301D01*
X67023626Y-61970301D01*
G37*
D15*
X66642500Y-62095000D03*
D12*
G36*
X67023626Y-62470301D02*
G01*
X67029693Y-62471201D01*
X67035643Y-62472691D01*
X67041418Y-62474758D01*
X67046962Y-62477380D01*
X67052223Y-62480533D01*
X67057150Y-62484187D01*
X67061694Y-62488306D01*
X67065813Y-62492850D01*
X67069467Y-62497777D01*
X67072620Y-62503038D01*
X67075242Y-62508582D01*
X67077309Y-62514357D01*
X67078799Y-62520307D01*
X67079699Y-62526374D01*
X67080000Y-62532500D01*
X67080000Y-62657500D01*
X67079699Y-62663626D01*
X67078799Y-62669693D01*
X67077309Y-62675643D01*
X67075242Y-62681418D01*
X67072620Y-62686962D01*
X67069467Y-62692223D01*
X67065813Y-62697150D01*
X67061694Y-62701694D01*
X67057150Y-62705813D01*
X67052223Y-62709467D01*
X67046962Y-62712620D01*
X67041418Y-62715242D01*
X67035643Y-62717309D01*
X67029693Y-62718799D01*
X67023626Y-62719699D01*
X67017500Y-62720000D01*
X66267500Y-62720000D01*
X66261374Y-62719699D01*
X66255307Y-62718799D01*
X66249357Y-62717309D01*
X66243582Y-62715242D01*
X66238038Y-62712620D01*
X66232777Y-62709467D01*
X66227850Y-62705813D01*
X66223306Y-62701694D01*
X66219187Y-62697150D01*
X66215533Y-62692223D01*
X66212380Y-62686962D01*
X66209758Y-62681418D01*
X66207691Y-62675643D01*
X66206201Y-62669693D01*
X66205301Y-62663626D01*
X66205000Y-62657500D01*
X66205000Y-62532500D01*
X66205301Y-62526374D01*
X66206201Y-62520307D01*
X66207691Y-62514357D01*
X66209758Y-62508582D01*
X66212380Y-62503038D01*
X66215533Y-62497777D01*
X66219187Y-62492850D01*
X66223306Y-62488306D01*
X66227850Y-62484187D01*
X66232777Y-62480533D01*
X66238038Y-62477380D01*
X66243582Y-62474758D01*
X66249357Y-62472691D01*
X66255307Y-62471201D01*
X66261374Y-62470301D01*
X66267500Y-62470000D01*
X67017500Y-62470000D01*
X67023626Y-62470301D01*
X67023626Y-62470301D01*
G37*
D15*
X66642500Y-62595000D03*
D14*
X66582500Y-63095000D03*
D12*
G36*
X66205865Y-63006221D02*
G01*
X66208425Y-62997779D01*
X66212584Y-62989999D01*
X66218180Y-62983180D01*
X66224999Y-62977584D01*
X66232779Y-62973425D01*
X66241221Y-62970865D01*
X66250000Y-62970000D01*
X66915000Y-62970000D01*
X66923779Y-62970865D01*
X66932221Y-62973425D01*
X66940001Y-62977584D01*
X66946820Y-62983180D01*
X66952416Y-62989999D01*
X66956575Y-62997779D01*
X66959135Y-63006221D01*
X66960000Y-63015000D01*
X66960000Y-63041360D01*
X66959135Y-63050139D01*
X66956575Y-63058581D01*
X66952416Y-63066361D01*
X66946820Y-63073180D01*
X66813180Y-63206820D01*
X66806361Y-63212416D01*
X66798581Y-63216575D01*
X66790139Y-63219135D01*
X66781360Y-63220000D01*
X66250000Y-63220000D01*
X66241221Y-63219135D01*
X66232779Y-63216575D01*
X66224999Y-63212416D01*
X66218180Y-63206820D01*
X66212584Y-63200001D01*
X66208425Y-63192221D01*
X66205865Y-63183779D01*
X66205000Y-63175000D01*
X66205000Y-63015000D01*
X66205865Y-63006221D01*
X66205865Y-63006221D01*
G37*
D14*
X67080000Y-63592500D03*
D12*
G36*
X66955865Y-63384861D02*
G01*
X66958425Y-63376419D01*
X66962584Y-63368639D01*
X66968180Y-63361820D01*
X67101820Y-63228180D01*
X67108639Y-63222584D01*
X67116419Y-63218425D01*
X67124861Y-63215865D01*
X67133640Y-63215000D01*
X67160000Y-63215000D01*
X67168779Y-63215865D01*
X67177221Y-63218425D01*
X67185001Y-63222584D01*
X67191820Y-63228180D01*
X67197416Y-63234999D01*
X67201575Y-63242779D01*
X67204135Y-63251221D01*
X67205000Y-63260000D01*
X67205000Y-63925000D01*
X67204135Y-63933779D01*
X67201575Y-63942221D01*
X67197416Y-63950001D01*
X67191820Y-63956820D01*
X67185001Y-63962416D01*
X67177221Y-63966575D01*
X67168779Y-63969135D01*
X67160000Y-63970000D01*
X67000000Y-63970000D01*
X66991221Y-63969135D01*
X66982779Y-63966575D01*
X66974999Y-63962416D01*
X66968180Y-63956820D01*
X66962584Y-63950001D01*
X66958425Y-63942221D01*
X66955865Y-63933779D01*
X66955000Y-63925000D01*
X66955000Y-63393640D01*
X66955865Y-63384861D01*
X66955865Y-63384861D01*
G37*
G36*
X67648626Y-63095301D02*
G01*
X67654693Y-63096201D01*
X67660643Y-63097691D01*
X67666418Y-63099758D01*
X67671962Y-63102380D01*
X67677223Y-63105533D01*
X67682150Y-63109187D01*
X67686694Y-63113306D01*
X67690813Y-63117850D01*
X67694467Y-63122777D01*
X67697620Y-63128038D01*
X67700242Y-63133582D01*
X67702309Y-63139357D01*
X67703799Y-63145307D01*
X67704699Y-63151374D01*
X67705000Y-63157500D01*
X67705000Y-63907500D01*
X67704699Y-63913626D01*
X67703799Y-63919693D01*
X67702309Y-63925643D01*
X67700242Y-63931418D01*
X67697620Y-63936962D01*
X67694467Y-63942223D01*
X67690813Y-63947150D01*
X67686694Y-63951694D01*
X67682150Y-63955813D01*
X67677223Y-63959467D01*
X67671962Y-63962620D01*
X67666418Y-63965242D01*
X67660643Y-63967309D01*
X67654693Y-63968799D01*
X67648626Y-63969699D01*
X67642500Y-63970000D01*
X67517500Y-63970000D01*
X67511374Y-63969699D01*
X67505307Y-63968799D01*
X67499357Y-63967309D01*
X67493582Y-63965242D01*
X67488038Y-63962620D01*
X67482777Y-63959467D01*
X67477850Y-63955813D01*
X67473306Y-63951694D01*
X67469187Y-63947150D01*
X67465533Y-63942223D01*
X67462380Y-63936962D01*
X67459758Y-63931418D01*
X67457691Y-63925643D01*
X67456201Y-63919693D01*
X67455301Y-63913626D01*
X67455000Y-63907500D01*
X67455000Y-63157500D01*
X67455301Y-63151374D01*
X67456201Y-63145307D01*
X67457691Y-63139357D01*
X67459758Y-63133582D01*
X67462380Y-63128038D01*
X67465533Y-63122777D01*
X67469187Y-63117850D01*
X67473306Y-63113306D01*
X67477850Y-63109187D01*
X67482777Y-63105533D01*
X67488038Y-63102380D01*
X67493582Y-63099758D01*
X67499357Y-63097691D01*
X67505307Y-63096201D01*
X67511374Y-63095301D01*
X67517500Y-63095000D01*
X67642500Y-63095000D01*
X67648626Y-63095301D01*
X67648626Y-63095301D01*
G37*
D15*
X67580000Y-63532500D03*
D12*
G36*
X68148626Y-63095301D02*
G01*
X68154693Y-63096201D01*
X68160643Y-63097691D01*
X68166418Y-63099758D01*
X68171962Y-63102380D01*
X68177223Y-63105533D01*
X68182150Y-63109187D01*
X68186694Y-63113306D01*
X68190813Y-63117850D01*
X68194467Y-63122777D01*
X68197620Y-63128038D01*
X68200242Y-63133582D01*
X68202309Y-63139357D01*
X68203799Y-63145307D01*
X68204699Y-63151374D01*
X68205000Y-63157500D01*
X68205000Y-63907500D01*
X68204699Y-63913626D01*
X68203799Y-63919693D01*
X68202309Y-63925643D01*
X68200242Y-63931418D01*
X68197620Y-63936962D01*
X68194467Y-63942223D01*
X68190813Y-63947150D01*
X68186694Y-63951694D01*
X68182150Y-63955813D01*
X68177223Y-63959467D01*
X68171962Y-63962620D01*
X68166418Y-63965242D01*
X68160643Y-63967309D01*
X68154693Y-63968799D01*
X68148626Y-63969699D01*
X68142500Y-63970000D01*
X68017500Y-63970000D01*
X68011374Y-63969699D01*
X68005307Y-63968799D01*
X67999357Y-63967309D01*
X67993582Y-63965242D01*
X67988038Y-63962620D01*
X67982777Y-63959467D01*
X67977850Y-63955813D01*
X67973306Y-63951694D01*
X67969187Y-63947150D01*
X67965533Y-63942223D01*
X67962380Y-63936962D01*
X67959758Y-63931418D01*
X67957691Y-63925643D01*
X67956201Y-63919693D01*
X67955301Y-63913626D01*
X67955000Y-63907500D01*
X67955000Y-63157500D01*
X67955301Y-63151374D01*
X67956201Y-63145307D01*
X67957691Y-63139357D01*
X67959758Y-63133582D01*
X67962380Y-63128038D01*
X67965533Y-63122777D01*
X67969187Y-63117850D01*
X67973306Y-63113306D01*
X67977850Y-63109187D01*
X67982777Y-63105533D01*
X67988038Y-63102380D01*
X67993582Y-63099758D01*
X67999357Y-63097691D01*
X68005307Y-63096201D01*
X68011374Y-63095301D01*
X68017500Y-63095000D01*
X68142500Y-63095000D01*
X68148626Y-63095301D01*
X68148626Y-63095301D01*
G37*
D15*
X68080000Y-63532500D03*
D12*
G36*
X68648626Y-63095301D02*
G01*
X68654693Y-63096201D01*
X68660643Y-63097691D01*
X68666418Y-63099758D01*
X68671962Y-63102380D01*
X68677223Y-63105533D01*
X68682150Y-63109187D01*
X68686694Y-63113306D01*
X68690813Y-63117850D01*
X68694467Y-63122777D01*
X68697620Y-63128038D01*
X68700242Y-63133582D01*
X68702309Y-63139357D01*
X68703799Y-63145307D01*
X68704699Y-63151374D01*
X68705000Y-63157500D01*
X68705000Y-63907500D01*
X68704699Y-63913626D01*
X68703799Y-63919693D01*
X68702309Y-63925643D01*
X68700242Y-63931418D01*
X68697620Y-63936962D01*
X68694467Y-63942223D01*
X68690813Y-63947150D01*
X68686694Y-63951694D01*
X68682150Y-63955813D01*
X68677223Y-63959467D01*
X68671962Y-63962620D01*
X68666418Y-63965242D01*
X68660643Y-63967309D01*
X68654693Y-63968799D01*
X68648626Y-63969699D01*
X68642500Y-63970000D01*
X68517500Y-63970000D01*
X68511374Y-63969699D01*
X68505307Y-63968799D01*
X68499357Y-63967309D01*
X68493582Y-63965242D01*
X68488038Y-63962620D01*
X68482777Y-63959467D01*
X68477850Y-63955813D01*
X68473306Y-63951694D01*
X68469187Y-63947150D01*
X68465533Y-63942223D01*
X68462380Y-63936962D01*
X68459758Y-63931418D01*
X68457691Y-63925643D01*
X68456201Y-63919693D01*
X68455301Y-63913626D01*
X68455000Y-63907500D01*
X68455000Y-63157500D01*
X68455301Y-63151374D01*
X68456201Y-63145307D01*
X68457691Y-63139357D01*
X68459758Y-63133582D01*
X68462380Y-63128038D01*
X68465533Y-63122777D01*
X68469187Y-63117850D01*
X68473306Y-63113306D01*
X68477850Y-63109187D01*
X68482777Y-63105533D01*
X68488038Y-63102380D01*
X68493582Y-63099758D01*
X68499357Y-63097691D01*
X68505307Y-63096201D01*
X68511374Y-63095301D01*
X68517500Y-63095000D01*
X68642500Y-63095000D01*
X68648626Y-63095301D01*
X68648626Y-63095301D01*
G37*
D15*
X68580000Y-63532500D03*
D12*
G36*
X69148626Y-63095301D02*
G01*
X69154693Y-63096201D01*
X69160643Y-63097691D01*
X69166418Y-63099758D01*
X69171962Y-63102380D01*
X69177223Y-63105533D01*
X69182150Y-63109187D01*
X69186694Y-63113306D01*
X69190813Y-63117850D01*
X69194467Y-63122777D01*
X69197620Y-63128038D01*
X69200242Y-63133582D01*
X69202309Y-63139357D01*
X69203799Y-63145307D01*
X69204699Y-63151374D01*
X69205000Y-63157500D01*
X69205000Y-63907500D01*
X69204699Y-63913626D01*
X69203799Y-63919693D01*
X69202309Y-63925643D01*
X69200242Y-63931418D01*
X69197620Y-63936962D01*
X69194467Y-63942223D01*
X69190813Y-63947150D01*
X69186694Y-63951694D01*
X69182150Y-63955813D01*
X69177223Y-63959467D01*
X69171962Y-63962620D01*
X69166418Y-63965242D01*
X69160643Y-63967309D01*
X69154693Y-63968799D01*
X69148626Y-63969699D01*
X69142500Y-63970000D01*
X69017500Y-63970000D01*
X69011374Y-63969699D01*
X69005307Y-63968799D01*
X68999357Y-63967309D01*
X68993582Y-63965242D01*
X68988038Y-63962620D01*
X68982777Y-63959467D01*
X68977850Y-63955813D01*
X68973306Y-63951694D01*
X68969187Y-63947150D01*
X68965533Y-63942223D01*
X68962380Y-63936962D01*
X68959758Y-63931418D01*
X68957691Y-63925643D01*
X68956201Y-63919693D01*
X68955301Y-63913626D01*
X68955000Y-63907500D01*
X68955000Y-63157500D01*
X68955301Y-63151374D01*
X68956201Y-63145307D01*
X68957691Y-63139357D01*
X68959758Y-63133582D01*
X68962380Y-63128038D01*
X68965533Y-63122777D01*
X68969187Y-63117850D01*
X68973306Y-63113306D01*
X68977850Y-63109187D01*
X68982777Y-63105533D01*
X68988038Y-63102380D01*
X68993582Y-63099758D01*
X68999357Y-63097691D01*
X69005307Y-63096201D01*
X69011374Y-63095301D01*
X69017500Y-63095000D01*
X69142500Y-63095000D01*
X69148626Y-63095301D01*
X69148626Y-63095301D01*
G37*
D15*
X69080000Y-63532500D03*
D12*
G36*
X69648626Y-63095301D02*
G01*
X69654693Y-63096201D01*
X69660643Y-63097691D01*
X69666418Y-63099758D01*
X69671962Y-63102380D01*
X69677223Y-63105533D01*
X69682150Y-63109187D01*
X69686694Y-63113306D01*
X69690813Y-63117850D01*
X69694467Y-63122777D01*
X69697620Y-63128038D01*
X69700242Y-63133582D01*
X69702309Y-63139357D01*
X69703799Y-63145307D01*
X69704699Y-63151374D01*
X69705000Y-63157500D01*
X69705000Y-63907500D01*
X69704699Y-63913626D01*
X69703799Y-63919693D01*
X69702309Y-63925643D01*
X69700242Y-63931418D01*
X69697620Y-63936962D01*
X69694467Y-63942223D01*
X69690813Y-63947150D01*
X69686694Y-63951694D01*
X69682150Y-63955813D01*
X69677223Y-63959467D01*
X69671962Y-63962620D01*
X69666418Y-63965242D01*
X69660643Y-63967309D01*
X69654693Y-63968799D01*
X69648626Y-63969699D01*
X69642500Y-63970000D01*
X69517500Y-63970000D01*
X69511374Y-63969699D01*
X69505307Y-63968799D01*
X69499357Y-63967309D01*
X69493582Y-63965242D01*
X69488038Y-63962620D01*
X69482777Y-63959467D01*
X69477850Y-63955813D01*
X69473306Y-63951694D01*
X69469187Y-63947150D01*
X69465533Y-63942223D01*
X69462380Y-63936962D01*
X69459758Y-63931418D01*
X69457691Y-63925643D01*
X69456201Y-63919693D01*
X69455301Y-63913626D01*
X69455000Y-63907500D01*
X69455000Y-63157500D01*
X69455301Y-63151374D01*
X69456201Y-63145307D01*
X69457691Y-63139357D01*
X69459758Y-63133582D01*
X69462380Y-63128038D01*
X69465533Y-63122777D01*
X69469187Y-63117850D01*
X69473306Y-63113306D01*
X69477850Y-63109187D01*
X69482777Y-63105533D01*
X69488038Y-63102380D01*
X69493582Y-63099758D01*
X69499357Y-63097691D01*
X69505307Y-63096201D01*
X69511374Y-63095301D01*
X69517500Y-63095000D01*
X69642500Y-63095000D01*
X69648626Y-63095301D01*
X69648626Y-63095301D01*
G37*
D15*
X69580000Y-63532500D03*
D14*
X70080000Y-63592500D03*
D12*
G36*
X69955865Y-63251221D02*
G01*
X69958425Y-63242779D01*
X69962584Y-63234999D01*
X69968180Y-63228180D01*
X69974999Y-63222584D01*
X69982779Y-63218425D01*
X69991221Y-63215865D01*
X70000000Y-63215000D01*
X70026360Y-63215000D01*
X70035139Y-63215865D01*
X70043581Y-63218425D01*
X70051361Y-63222584D01*
X70058180Y-63228180D01*
X70191820Y-63361820D01*
X70197416Y-63368639D01*
X70201575Y-63376419D01*
X70204135Y-63384861D01*
X70205000Y-63393640D01*
X70205000Y-63925000D01*
X70204135Y-63933779D01*
X70201575Y-63942221D01*
X70197416Y-63950001D01*
X70191820Y-63956820D01*
X70185001Y-63962416D01*
X70177221Y-63966575D01*
X70168779Y-63969135D01*
X70160000Y-63970000D01*
X70000000Y-63970000D01*
X69991221Y-63969135D01*
X69982779Y-63966575D01*
X69974999Y-63962416D01*
X69968180Y-63956820D01*
X69962584Y-63950001D01*
X69958425Y-63942221D01*
X69955865Y-63933779D01*
X69955000Y-63925000D01*
X69955000Y-63260000D01*
X69955865Y-63251221D01*
X69955865Y-63251221D01*
G37*
G36*
X69920779Y-65566144D02*
G01*
X69943834Y-65569563D01*
X69966443Y-65575227D01*
X69988387Y-65583079D01*
X70009457Y-65593044D01*
X70029448Y-65605026D01*
X70048168Y-65618910D01*
X70065438Y-65634562D01*
X70081090Y-65651832D01*
X70094974Y-65670552D01*
X70106956Y-65690543D01*
X70116921Y-65711613D01*
X70124773Y-65733557D01*
X70130437Y-65756166D01*
X70133856Y-65779221D01*
X70135000Y-65802500D01*
X70135000Y-66277500D01*
X70133856Y-66300779D01*
X70130437Y-66323834D01*
X70124773Y-66346443D01*
X70116921Y-66368387D01*
X70106956Y-66389457D01*
X70094974Y-66409448D01*
X70081090Y-66428168D01*
X70065438Y-66445438D01*
X70048168Y-66461090D01*
X70029448Y-66474974D01*
X70009457Y-66486956D01*
X69988387Y-66496921D01*
X69966443Y-66504773D01*
X69943834Y-66510437D01*
X69920779Y-66513856D01*
X69897500Y-66515000D01*
X69322500Y-66515000D01*
X69299221Y-66513856D01*
X69276166Y-66510437D01*
X69253557Y-66504773D01*
X69231613Y-66496921D01*
X69210543Y-66486956D01*
X69190552Y-66474974D01*
X69171832Y-66461090D01*
X69154562Y-66445438D01*
X69138910Y-66428168D01*
X69125026Y-66409448D01*
X69113044Y-66389457D01*
X69103079Y-66368387D01*
X69095227Y-66346443D01*
X69089563Y-66323834D01*
X69086144Y-66300779D01*
X69085000Y-66277500D01*
X69085000Y-65802500D01*
X69086144Y-65779221D01*
X69089563Y-65756166D01*
X69095227Y-65733557D01*
X69103079Y-65711613D01*
X69113044Y-65690543D01*
X69125026Y-65670552D01*
X69138910Y-65651832D01*
X69154562Y-65634562D01*
X69171832Y-65618910D01*
X69190552Y-65605026D01*
X69210543Y-65593044D01*
X69231613Y-65583079D01*
X69253557Y-65575227D01*
X69276166Y-65569563D01*
X69299221Y-65566144D01*
X69322500Y-65565000D01*
X69897500Y-65565000D01*
X69920779Y-65566144D01*
X69920779Y-65566144D01*
G37*
D16*
X69610000Y-66040000D03*
D12*
G36*
X71670779Y-65566144D02*
G01*
X71693834Y-65569563D01*
X71716443Y-65575227D01*
X71738387Y-65583079D01*
X71759457Y-65593044D01*
X71779448Y-65605026D01*
X71798168Y-65618910D01*
X71815438Y-65634562D01*
X71831090Y-65651832D01*
X71844974Y-65670552D01*
X71856956Y-65690543D01*
X71866921Y-65711613D01*
X71874773Y-65733557D01*
X71880437Y-65756166D01*
X71883856Y-65779221D01*
X71885000Y-65802500D01*
X71885000Y-66277500D01*
X71883856Y-66300779D01*
X71880437Y-66323834D01*
X71874773Y-66346443D01*
X71866921Y-66368387D01*
X71856956Y-66389457D01*
X71844974Y-66409448D01*
X71831090Y-66428168D01*
X71815438Y-66445438D01*
X71798168Y-66461090D01*
X71779448Y-66474974D01*
X71759457Y-66486956D01*
X71738387Y-66496921D01*
X71716443Y-66504773D01*
X71693834Y-66510437D01*
X71670779Y-66513856D01*
X71647500Y-66515000D01*
X71072500Y-66515000D01*
X71049221Y-66513856D01*
X71026166Y-66510437D01*
X71003557Y-66504773D01*
X70981613Y-66496921D01*
X70960543Y-66486956D01*
X70940552Y-66474974D01*
X70921832Y-66461090D01*
X70904562Y-66445438D01*
X70888910Y-66428168D01*
X70875026Y-66409448D01*
X70863044Y-66389457D01*
X70853079Y-66368387D01*
X70845227Y-66346443D01*
X70839563Y-66323834D01*
X70836144Y-66300779D01*
X70835000Y-66277500D01*
X70835000Y-65802500D01*
X70836144Y-65779221D01*
X70839563Y-65756166D01*
X70845227Y-65733557D01*
X70853079Y-65711613D01*
X70863044Y-65690543D01*
X70875026Y-65670552D01*
X70888910Y-65651832D01*
X70904562Y-65634562D01*
X70921832Y-65618910D01*
X70940552Y-65605026D01*
X70960543Y-65593044D01*
X70981613Y-65583079D01*
X71003557Y-65575227D01*
X71026166Y-65569563D01*
X71049221Y-65566144D01*
X71072500Y-65565000D01*
X71647500Y-65565000D01*
X71670779Y-65566144D01*
X71670779Y-65566144D01*
G37*
D16*
X71360000Y-66040000D03*
D17*
X65680000Y-52229500D03*
X71480000Y-52229500D03*
D18*
X72080000Y-52229500D03*
X65080000Y-52229500D03*
D19*
X67580000Y-52229500D03*
D20*
X71080000Y-54929500D03*
D21*
X68580000Y-54929500D03*
X69230000Y-54929500D03*
X69880000Y-54929500D03*
X67280000Y-54929500D03*
X67930000Y-54929500D03*
D20*
X66080000Y-54929500D03*
D19*
X69580000Y-52229500D03*
D22*
X52080000Y-82395000D03*
X85080000Y-78895000D03*
X52080000Y-78895000D03*
D23*
X79455000Y-62545000D03*
X79455000Y-60645000D03*
X76755000Y-60645000D03*
X76755000Y-61595000D03*
X76755000Y-62545000D03*
D24*
X54610000Y-53195000D03*
X54610000Y-62375000D03*
D12*
G36*
X59315779Y-56386144D02*
G01*
X59338834Y-56389563D01*
X59361443Y-56395227D01*
X59383387Y-56403079D01*
X59404457Y-56413044D01*
X59424448Y-56425026D01*
X59443168Y-56438910D01*
X59460438Y-56454562D01*
X59476090Y-56471832D01*
X59489974Y-56490552D01*
X59501956Y-56510543D01*
X59511921Y-56531613D01*
X59519773Y-56553557D01*
X59525437Y-56576166D01*
X59528856Y-56599221D01*
X59530000Y-56622500D01*
X59530000Y-57197500D01*
X59528856Y-57220779D01*
X59525437Y-57243834D01*
X59519773Y-57266443D01*
X59511921Y-57288387D01*
X59501956Y-57309457D01*
X59489974Y-57329448D01*
X59476090Y-57348168D01*
X59460438Y-57365438D01*
X59443168Y-57381090D01*
X59424448Y-57394974D01*
X59404457Y-57406956D01*
X59383387Y-57416921D01*
X59361443Y-57424773D01*
X59338834Y-57430437D01*
X59315779Y-57433856D01*
X59292500Y-57435000D01*
X58817500Y-57435000D01*
X58794221Y-57433856D01*
X58771166Y-57430437D01*
X58748557Y-57424773D01*
X58726613Y-57416921D01*
X58705543Y-57406956D01*
X58685552Y-57394974D01*
X58666832Y-57381090D01*
X58649562Y-57365438D01*
X58633910Y-57348168D01*
X58620026Y-57329448D01*
X58608044Y-57309457D01*
X58598079Y-57288387D01*
X58590227Y-57266443D01*
X58584563Y-57243834D01*
X58581144Y-57220779D01*
X58580000Y-57197500D01*
X58580000Y-56622500D01*
X58581144Y-56599221D01*
X58584563Y-56576166D01*
X58590227Y-56553557D01*
X58598079Y-56531613D01*
X58608044Y-56510543D01*
X58620026Y-56490552D01*
X58633910Y-56471832D01*
X58649562Y-56454562D01*
X58666832Y-56438910D01*
X58685552Y-56425026D01*
X58705543Y-56413044D01*
X58726613Y-56403079D01*
X58748557Y-56395227D01*
X58771166Y-56389563D01*
X58794221Y-56386144D01*
X58817500Y-56385000D01*
X59292500Y-56385000D01*
X59315779Y-56386144D01*
X59315779Y-56386144D01*
G37*
D16*
X59055000Y-56910000D03*
D12*
G36*
X59315779Y-58136144D02*
G01*
X59338834Y-58139563D01*
X59361443Y-58145227D01*
X59383387Y-58153079D01*
X59404457Y-58163044D01*
X59424448Y-58175026D01*
X59443168Y-58188910D01*
X59460438Y-58204562D01*
X59476090Y-58221832D01*
X59489974Y-58240552D01*
X59501956Y-58260543D01*
X59511921Y-58281613D01*
X59519773Y-58303557D01*
X59525437Y-58326166D01*
X59528856Y-58349221D01*
X59530000Y-58372500D01*
X59530000Y-58947500D01*
X59528856Y-58970779D01*
X59525437Y-58993834D01*
X59519773Y-59016443D01*
X59511921Y-59038387D01*
X59501956Y-59059457D01*
X59489974Y-59079448D01*
X59476090Y-59098168D01*
X59460438Y-59115438D01*
X59443168Y-59131090D01*
X59424448Y-59144974D01*
X59404457Y-59156956D01*
X59383387Y-59166921D01*
X59361443Y-59174773D01*
X59338834Y-59180437D01*
X59315779Y-59183856D01*
X59292500Y-59185000D01*
X58817500Y-59185000D01*
X58794221Y-59183856D01*
X58771166Y-59180437D01*
X58748557Y-59174773D01*
X58726613Y-59166921D01*
X58705543Y-59156956D01*
X58685552Y-59144974D01*
X58666832Y-59131090D01*
X58649562Y-59115438D01*
X58633910Y-59098168D01*
X58620026Y-59079448D01*
X58608044Y-59059457D01*
X58598079Y-59038387D01*
X58590227Y-59016443D01*
X58584563Y-58993834D01*
X58581144Y-58970779D01*
X58580000Y-58947500D01*
X58580000Y-58372500D01*
X58581144Y-58349221D01*
X58584563Y-58326166D01*
X58590227Y-58303557D01*
X58598079Y-58281613D01*
X58608044Y-58260543D01*
X58620026Y-58240552D01*
X58633910Y-58221832D01*
X58649562Y-58204562D01*
X58666832Y-58188910D01*
X58685552Y-58175026D01*
X58705543Y-58163044D01*
X58726613Y-58153079D01*
X58748557Y-58145227D01*
X58771166Y-58139563D01*
X58794221Y-58136144D01*
X58817500Y-58135000D01*
X59292500Y-58135000D01*
X59315779Y-58136144D01*
X59315779Y-58136144D01*
G37*
D16*
X59055000Y-58660000D03*
D10*
X74930000Y-52705000D03*
X77470000Y-52705000D03*
X80010000Y-52705000D03*
D11*
X82550000Y-52705000D03*
D12*
G36*
X65475779Y-56676144D02*
G01*
X65498834Y-56679563D01*
X65521443Y-56685227D01*
X65543387Y-56693079D01*
X65564457Y-56703044D01*
X65584448Y-56715026D01*
X65603168Y-56728910D01*
X65620438Y-56744562D01*
X65636090Y-56761832D01*
X65649974Y-56780552D01*
X65661956Y-56800543D01*
X65671921Y-56821613D01*
X65679773Y-56843557D01*
X65685437Y-56866166D01*
X65688856Y-56889221D01*
X65690000Y-56912500D01*
X65690000Y-57387500D01*
X65688856Y-57410779D01*
X65685437Y-57433834D01*
X65679773Y-57456443D01*
X65671921Y-57478387D01*
X65661956Y-57499457D01*
X65649974Y-57519448D01*
X65636090Y-57538168D01*
X65620438Y-57555438D01*
X65603168Y-57571090D01*
X65584448Y-57584974D01*
X65564457Y-57596956D01*
X65543387Y-57606921D01*
X65521443Y-57614773D01*
X65498834Y-57620437D01*
X65475779Y-57623856D01*
X65452500Y-57625000D01*
X64877500Y-57625000D01*
X64854221Y-57623856D01*
X64831166Y-57620437D01*
X64808557Y-57614773D01*
X64786613Y-57606921D01*
X64765543Y-57596956D01*
X64745552Y-57584974D01*
X64726832Y-57571090D01*
X64709562Y-57555438D01*
X64693910Y-57538168D01*
X64680026Y-57519448D01*
X64668044Y-57499457D01*
X64658079Y-57478387D01*
X64650227Y-57456443D01*
X64644563Y-57433834D01*
X64641144Y-57410779D01*
X64640000Y-57387500D01*
X64640000Y-56912500D01*
X64641144Y-56889221D01*
X64644563Y-56866166D01*
X64650227Y-56843557D01*
X64658079Y-56821613D01*
X64668044Y-56800543D01*
X64680026Y-56780552D01*
X64693910Y-56761832D01*
X64709562Y-56744562D01*
X64726832Y-56728910D01*
X64745552Y-56715026D01*
X64765543Y-56703044D01*
X64786613Y-56693079D01*
X64808557Y-56685227D01*
X64831166Y-56679563D01*
X64854221Y-56676144D01*
X64877500Y-56675000D01*
X65452500Y-56675000D01*
X65475779Y-56676144D01*
X65475779Y-56676144D01*
G37*
D16*
X65165000Y-57150000D03*
D12*
G36*
X67225779Y-56676144D02*
G01*
X67248834Y-56679563D01*
X67271443Y-56685227D01*
X67293387Y-56693079D01*
X67314457Y-56703044D01*
X67334448Y-56715026D01*
X67353168Y-56728910D01*
X67370438Y-56744562D01*
X67386090Y-56761832D01*
X67399974Y-56780552D01*
X67411956Y-56800543D01*
X67421921Y-56821613D01*
X67429773Y-56843557D01*
X67435437Y-56866166D01*
X67438856Y-56889221D01*
X67440000Y-56912500D01*
X67440000Y-57387500D01*
X67438856Y-57410779D01*
X67435437Y-57433834D01*
X67429773Y-57456443D01*
X67421921Y-57478387D01*
X67411956Y-57499457D01*
X67399974Y-57519448D01*
X67386090Y-57538168D01*
X67370438Y-57555438D01*
X67353168Y-57571090D01*
X67334448Y-57584974D01*
X67314457Y-57596956D01*
X67293387Y-57606921D01*
X67271443Y-57614773D01*
X67248834Y-57620437D01*
X67225779Y-57623856D01*
X67202500Y-57625000D01*
X66627500Y-57625000D01*
X66604221Y-57623856D01*
X66581166Y-57620437D01*
X66558557Y-57614773D01*
X66536613Y-57606921D01*
X66515543Y-57596956D01*
X66495552Y-57584974D01*
X66476832Y-57571090D01*
X66459562Y-57555438D01*
X66443910Y-57538168D01*
X66430026Y-57519448D01*
X66418044Y-57499457D01*
X66408079Y-57478387D01*
X66400227Y-57456443D01*
X66394563Y-57433834D01*
X66391144Y-57410779D01*
X66390000Y-57387500D01*
X66390000Y-56912500D01*
X66391144Y-56889221D01*
X66394563Y-56866166D01*
X66400227Y-56843557D01*
X66408079Y-56821613D01*
X66418044Y-56800543D01*
X66430026Y-56780552D01*
X66443910Y-56761832D01*
X66459562Y-56744562D01*
X66476832Y-56728910D01*
X66495552Y-56715026D01*
X66515543Y-56703044D01*
X66536613Y-56693079D01*
X66558557Y-56685227D01*
X66581166Y-56679563D01*
X66604221Y-56676144D01*
X66627500Y-56675000D01*
X67202500Y-56675000D01*
X67225779Y-56676144D01*
X67225779Y-56676144D01*
G37*
D16*
X66915000Y-57150000D03*
D12*
G36*
X65475779Y-65566144D02*
G01*
X65498834Y-65569563D01*
X65521443Y-65575227D01*
X65543387Y-65583079D01*
X65564457Y-65593044D01*
X65584448Y-65605026D01*
X65603168Y-65618910D01*
X65620438Y-65634562D01*
X65636090Y-65651832D01*
X65649974Y-65670552D01*
X65661956Y-65690543D01*
X65671921Y-65711613D01*
X65679773Y-65733557D01*
X65685437Y-65756166D01*
X65688856Y-65779221D01*
X65690000Y-65802500D01*
X65690000Y-66277500D01*
X65688856Y-66300779D01*
X65685437Y-66323834D01*
X65679773Y-66346443D01*
X65671921Y-66368387D01*
X65661956Y-66389457D01*
X65649974Y-66409448D01*
X65636090Y-66428168D01*
X65620438Y-66445438D01*
X65603168Y-66461090D01*
X65584448Y-66474974D01*
X65564457Y-66486956D01*
X65543387Y-66496921D01*
X65521443Y-66504773D01*
X65498834Y-66510437D01*
X65475779Y-66513856D01*
X65452500Y-66515000D01*
X64877500Y-66515000D01*
X64854221Y-66513856D01*
X64831166Y-66510437D01*
X64808557Y-66504773D01*
X64786613Y-66496921D01*
X64765543Y-66486956D01*
X64745552Y-66474974D01*
X64726832Y-66461090D01*
X64709562Y-66445438D01*
X64693910Y-66428168D01*
X64680026Y-66409448D01*
X64668044Y-66389457D01*
X64658079Y-66368387D01*
X64650227Y-66346443D01*
X64644563Y-66323834D01*
X64641144Y-66300779D01*
X64640000Y-66277500D01*
X64640000Y-65802500D01*
X64641144Y-65779221D01*
X64644563Y-65756166D01*
X64650227Y-65733557D01*
X64658079Y-65711613D01*
X64668044Y-65690543D01*
X64680026Y-65670552D01*
X64693910Y-65651832D01*
X64709562Y-65634562D01*
X64726832Y-65618910D01*
X64745552Y-65605026D01*
X64765543Y-65593044D01*
X64786613Y-65583079D01*
X64808557Y-65575227D01*
X64831166Y-65569563D01*
X64854221Y-65566144D01*
X64877500Y-65565000D01*
X65452500Y-65565000D01*
X65475779Y-65566144D01*
X65475779Y-65566144D01*
G37*
D16*
X65165000Y-66040000D03*
D12*
G36*
X67225779Y-65566144D02*
G01*
X67248834Y-65569563D01*
X67271443Y-65575227D01*
X67293387Y-65583079D01*
X67314457Y-65593044D01*
X67334448Y-65605026D01*
X67353168Y-65618910D01*
X67370438Y-65634562D01*
X67386090Y-65651832D01*
X67399974Y-65670552D01*
X67411956Y-65690543D01*
X67421921Y-65711613D01*
X67429773Y-65733557D01*
X67435437Y-65756166D01*
X67438856Y-65779221D01*
X67440000Y-65802500D01*
X67440000Y-66277500D01*
X67438856Y-66300779D01*
X67435437Y-66323834D01*
X67429773Y-66346443D01*
X67421921Y-66368387D01*
X67411956Y-66389457D01*
X67399974Y-66409448D01*
X67386090Y-66428168D01*
X67370438Y-66445438D01*
X67353168Y-66461090D01*
X67334448Y-66474974D01*
X67314457Y-66486956D01*
X67293387Y-66496921D01*
X67271443Y-66504773D01*
X67248834Y-66510437D01*
X67225779Y-66513856D01*
X67202500Y-66515000D01*
X66627500Y-66515000D01*
X66604221Y-66513856D01*
X66581166Y-66510437D01*
X66558557Y-66504773D01*
X66536613Y-66496921D01*
X66515543Y-66486956D01*
X66495552Y-66474974D01*
X66476832Y-66461090D01*
X66459562Y-66445438D01*
X66443910Y-66428168D01*
X66430026Y-66409448D01*
X66418044Y-66389457D01*
X66408079Y-66368387D01*
X66400227Y-66346443D01*
X66394563Y-66323834D01*
X66391144Y-66300779D01*
X66390000Y-66277500D01*
X66390000Y-65802500D01*
X66391144Y-65779221D01*
X66394563Y-65756166D01*
X66400227Y-65733557D01*
X66408079Y-65711613D01*
X66418044Y-65690543D01*
X66430026Y-65670552D01*
X66443910Y-65651832D01*
X66459562Y-65634562D01*
X66476832Y-65618910D01*
X66495552Y-65605026D01*
X66515543Y-65593044D01*
X66536613Y-65583079D01*
X66558557Y-65575227D01*
X66581166Y-65569563D01*
X66604221Y-65566144D01*
X66627500Y-65565000D01*
X67202500Y-65565000D01*
X67225779Y-65566144D01*
X67225779Y-65566144D01*
G37*
D16*
X66915000Y-66040000D03*
D12*
G36*
X82389505Y-59996204D02*
G01*
X82413773Y-59999804D01*
X82437572Y-60005765D01*
X82460671Y-60014030D01*
X82482850Y-60024520D01*
X82503893Y-60037132D01*
X82523599Y-60051747D01*
X82541777Y-60068223D01*
X82558253Y-60086401D01*
X82572868Y-60106107D01*
X82585480Y-60127150D01*
X82595970Y-60149329D01*
X82604235Y-60172428D01*
X82610196Y-60196227D01*
X82613796Y-60220495D01*
X82615000Y-60244999D01*
X82615000Y-60895001D01*
X82613796Y-60919505D01*
X82610196Y-60943773D01*
X82604235Y-60967572D01*
X82595970Y-60990671D01*
X82585480Y-61012850D01*
X82572868Y-61033893D01*
X82558253Y-61053599D01*
X82541777Y-61071777D01*
X82523599Y-61088253D01*
X82503893Y-61102868D01*
X82482850Y-61115480D01*
X82460671Y-61125970D01*
X82437572Y-61134235D01*
X82413773Y-61140196D01*
X82389505Y-61143796D01*
X82365001Y-61145000D01*
X81464999Y-61145000D01*
X81440495Y-61143796D01*
X81416227Y-61140196D01*
X81392428Y-61134235D01*
X81369329Y-61125970D01*
X81347150Y-61115480D01*
X81326107Y-61102868D01*
X81306401Y-61088253D01*
X81288223Y-61071777D01*
X81271747Y-61053599D01*
X81257132Y-61033893D01*
X81244520Y-61012850D01*
X81234030Y-60990671D01*
X81225765Y-60967572D01*
X81219804Y-60943773D01*
X81216204Y-60919505D01*
X81215000Y-60895001D01*
X81215000Y-60244999D01*
X81216204Y-60220495D01*
X81219804Y-60196227D01*
X81225765Y-60172428D01*
X81234030Y-60149329D01*
X81244520Y-60127150D01*
X81257132Y-60106107D01*
X81271747Y-60086401D01*
X81288223Y-60068223D01*
X81306401Y-60051747D01*
X81326107Y-60037132D01*
X81347150Y-60024520D01*
X81369329Y-60014030D01*
X81392428Y-60005765D01*
X81416227Y-59999804D01*
X81440495Y-59996204D01*
X81464999Y-59995000D01*
X82365001Y-59995000D01*
X82389505Y-59996204D01*
X82389505Y-59996204D01*
G37*
D13*
X81915000Y-60570000D03*
D12*
G36*
X82389505Y-62046204D02*
G01*
X82413773Y-62049804D01*
X82437572Y-62055765D01*
X82460671Y-62064030D01*
X82482850Y-62074520D01*
X82503893Y-62087132D01*
X82523599Y-62101747D01*
X82541777Y-62118223D01*
X82558253Y-62136401D01*
X82572868Y-62156107D01*
X82585480Y-62177150D01*
X82595970Y-62199329D01*
X82604235Y-62222428D01*
X82610196Y-62246227D01*
X82613796Y-62270495D01*
X82615000Y-62294999D01*
X82615000Y-62945001D01*
X82613796Y-62969505D01*
X82610196Y-62993773D01*
X82604235Y-63017572D01*
X82595970Y-63040671D01*
X82585480Y-63062850D01*
X82572868Y-63083893D01*
X82558253Y-63103599D01*
X82541777Y-63121777D01*
X82523599Y-63138253D01*
X82503893Y-63152868D01*
X82482850Y-63165480D01*
X82460671Y-63175970D01*
X82437572Y-63184235D01*
X82413773Y-63190196D01*
X82389505Y-63193796D01*
X82365001Y-63195000D01*
X81464999Y-63195000D01*
X81440495Y-63193796D01*
X81416227Y-63190196D01*
X81392428Y-63184235D01*
X81369329Y-63175970D01*
X81347150Y-63165480D01*
X81326107Y-63152868D01*
X81306401Y-63138253D01*
X81288223Y-63121777D01*
X81271747Y-63103599D01*
X81257132Y-63083893D01*
X81244520Y-63062850D01*
X81234030Y-63040671D01*
X81225765Y-63017572D01*
X81219804Y-62993773D01*
X81216204Y-62969505D01*
X81215000Y-62945001D01*
X81215000Y-62294999D01*
X81216204Y-62270495D01*
X81219804Y-62246227D01*
X81225765Y-62222428D01*
X81234030Y-62199329D01*
X81244520Y-62177150D01*
X81257132Y-62156107D01*
X81271747Y-62136401D01*
X81288223Y-62118223D01*
X81306401Y-62101747D01*
X81326107Y-62087132D01*
X81347150Y-62074520D01*
X81369329Y-62064030D01*
X81392428Y-62055765D01*
X81416227Y-62049804D01*
X81440495Y-62046204D01*
X81464999Y-62045000D01*
X82365001Y-62045000D01*
X82389505Y-62046204D01*
X82389505Y-62046204D01*
G37*
D13*
X81915000Y-62620000D03*
D25*
X80899000Y-54356000D03*
X83185000Y-57785000D03*
X76962000Y-64135000D03*
X72390000Y-53975000D03*
X68453000Y-70485000D03*
X82423000Y-56642000D03*
X68199000Y-57277000D03*
X79756000Y-58293000D03*
X66802000Y-77470000D03*
X73533000Y-67564000D03*
X63499990Y-65405000D03*
X68961000Y-67818000D03*
X67818000Y-67818000D03*
X73406000Y-56134000D03*
X72016554Y-62745554D03*
X73406000Y-57277000D03*
X72049043Y-61671355D03*
X72009000Y-63881000D03*
X63627000Y-62865000D03*
X64516000Y-60579000D03*
X65532003Y-60579000D03*
D26*
X67580000Y-59120000D02*
X66880000Y-58420000D01*
X67580000Y-59657500D02*
X67580000Y-59120000D01*
X65165000Y-57150000D02*
X65165000Y-58180000D01*
X66640000Y-58180000D02*
X67580000Y-59120000D01*
X65165000Y-58180000D02*
X66640000Y-58180000D01*
X83439000Y-54356000D02*
X80899000Y-54356000D01*
X85090000Y-52705000D02*
X83439000Y-54356000D01*
X81915000Y-59055000D02*
X83185000Y-57785000D01*
X81915000Y-60570000D02*
X81915000Y-59055000D01*
X69880000Y-55858500D02*
X70231000Y-56209500D01*
X69880000Y-54929500D02*
X69880000Y-55858500D01*
X70231000Y-56209500D02*
X70663500Y-56209500D01*
X70663500Y-56209500D02*
X71120000Y-55753000D01*
X71080000Y-55713000D02*
X71080000Y-54929500D01*
X71120000Y-55753000D02*
X71080000Y-55713000D01*
D27*
X74370000Y-62545000D02*
X74295000Y-62620000D01*
X76755000Y-62545000D02*
X74370000Y-62545000D01*
X74295000Y-62620000D02*
X74295000Y-63754000D01*
X74676000Y-64135000D02*
X76962000Y-64135000D01*
X74295000Y-63754000D02*
X74676000Y-64135000D01*
X67280000Y-53848100D02*
X67280000Y-54929500D01*
X67330001Y-53798099D02*
X67280000Y-53848100D01*
X71638363Y-53798099D02*
X67330001Y-53798099D01*
X71815264Y-53975000D02*
X71638363Y-53798099D01*
X72390000Y-53975000D02*
X71815264Y-53975000D01*
D26*
X70109072Y-68828928D02*
X68453000Y-70485000D01*
X70109072Y-66539072D02*
X70109072Y-68828928D01*
X69610000Y-66040000D02*
X70109072Y-66539072D01*
X68080000Y-58315000D02*
X66915000Y-57150000D01*
X68080000Y-59657500D02*
X68080000Y-58315000D01*
X68580000Y-59657500D02*
X68580000Y-58420000D01*
X68580000Y-58420000D02*
X68475000Y-58315000D01*
X68080000Y-64875000D02*
X68080000Y-63532500D01*
X66915000Y-66040000D02*
X68080000Y-64875000D01*
D27*
X81840000Y-62545000D02*
X81915000Y-62620000D01*
D26*
X68080000Y-63532500D02*
X68080000Y-62995000D01*
X68080000Y-62995000D02*
X68080000Y-59657500D01*
D27*
X79455000Y-62545000D02*
X80711000Y-62545000D01*
X80711000Y-62545000D02*
X80711000Y-58354000D01*
X80711000Y-62545000D02*
X81840000Y-62545000D01*
X80711000Y-58354000D02*
X82423000Y-56642000D01*
D26*
X68475000Y-58315000D02*
X68348000Y-58315000D01*
X68348000Y-57426000D02*
X68199000Y-57277000D01*
X68348000Y-58315000D02*
X68080000Y-58315000D01*
X68348000Y-58315000D02*
X68348000Y-57426000D01*
D27*
X80650000Y-58293000D02*
X79756000Y-58293000D01*
X80711000Y-58354000D02*
X80650000Y-58293000D01*
D26*
X66802000Y-66153000D02*
X66915000Y-66040000D01*
X66802000Y-77470000D02*
X66802000Y-66153000D01*
X72309000Y-67564000D02*
X73533000Y-67564000D01*
X71360000Y-66615000D02*
X72309000Y-67564000D01*
X71360000Y-66040000D02*
X71360000Y-66615000D01*
X67080000Y-63592500D02*
X65312490Y-63592500D01*
X65312490Y-63592500D02*
X63906389Y-64998601D01*
X63906389Y-64998601D02*
X63499990Y-65405000D01*
X61028503Y-58965201D02*
X62573799Y-58965201D01*
X60414799Y-58351497D02*
X61028503Y-58965201D01*
X60414799Y-56425201D02*
X60414799Y-58351497D01*
X61595000Y-55245000D02*
X60414799Y-56425201D01*
X62573799Y-58965201D02*
X63246000Y-59637402D01*
X63246000Y-59637402D02*
X63246000Y-61214000D01*
X65127000Y-63095000D02*
X66582500Y-63095000D01*
X63246000Y-61214000D02*
X65127000Y-63095000D01*
X62797081Y-57785000D02*
X63754000Y-58741919D01*
X61595000Y-57785000D02*
X62797081Y-57785000D01*
X63754000Y-58741919D02*
X63754000Y-61075408D01*
X65273592Y-62595000D02*
X66642500Y-62595000D01*
X63754000Y-61075408D02*
X65273592Y-62595000D01*
X70577500Y-60095000D02*
X71350000Y-60095000D01*
X72390000Y-59055000D02*
X72390000Y-55891592D01*
X72390000Y-55891592D02*
X74306592Y-53975000D01*
X78740000Y-53975000D02*
X80010000Y-52705000D01*
X74306592Y-53975000D02*
X78740000Y-53975000D01*
X71350000Y-60095000D02*
X71755000Y-59690000D01*
X71755000Y-59690000D02*
X72390000Y-59055000D01*
X73242854Y-64383908D02*
X73242854Y-59907854D01*
X72551952Y-65074810D02*
X73242854Y-64383908D01*
X68961000Y-67818000D02*
X68554601Y-67411601D01*
X68554601Y-67411601D02*
X68554601Y-65693583D01*
X68554601Y-65693583D02*
X69173373Y-65074811D01*
X73242854Y-59907854D02*
X72390000Y-59055000D01*
X69173373Y-65074811D02*
X72551952Y-65074810D01*
X67818000Y-65783592D02*
X67818000Y-67818000D01*
X70517500Y-60595000D02*
X72030858Y-60595000D01*
X72785644Y-64194526D02*
X72362569Y-64617601D01*
X72030858Y-60595000D02*
X72046858Y-60579000D01*
X72362569Y-64617601D02*
X68983991Y-64617601D01*
X72046858Y-60579000D02*
X72785644Y-61317786D01*
X68983991Y-64617601D02*
X67818000Y-65783592D01*
X72785644Y-61317786D02*
X72785644Y-64194526D01*
X74295000Y-55245000D02*
X73406000Y-56134000D01*
X85090000Y-55245000D02*
X74295000Y-55245000D01*
X71667108Y-63095000D02*
X70577500Y-63095000D01*
X72016554Y-62745554D02*
X71667108Y-63095000D01*
X85090000Y-57785000D02*
X83007210Y-55702210D01*
X74980790Y-55702210D02*
X73406000Y-57277000D01*
X83007210Y-55702210D02*
X74980790Y-55702210D01*
X71125398Y-62595000D02*
X70517500Y-62595000D01*
X72049043Y-61671355D02*
X71125398Y-62595000D01*
X69580000Y-59120000D02*
X69580000Y-59657500D01*
X68580000Y-55862612D02*
X69580000Y-56862612D01*
X68580000Y-54929500D02*
X68580000Y-55862612D01*
X69580000Y-56862612D02*
X69580000Y-59120000D01*
X69080000Y-57009204D02*
X69080000Y-59120000D01*
X67930000Y-55859204D02*
X69080000Y-57009204D01*
X67930000Y-54929500D02*
X67930000Y-55859204D01*
X69080000Y-59120000D02*
X69080000Y-59657500D01*
X70080000Y-57555000D02*
X74930000Y-52705000D01*
X70080000Y-59597500D02*
X70080000Y-57555000D01*
X58035000Y-56910000D02*
X58480000Y-56910000D01*
X54610000Y-53485000D02*
X58035000Y-56910000D01*
X58480000Y-56910000D02*
X59055000Y-56910000D01*
X54610000Y-53195000D02*
X54610000Y-53485000D01*
X71720500Y-63592500D02*
X72009000Y-63881000D01*
X70080000Y-63592500D02*
X71720500Y-63592500D01*
X55100000Y-62865000D02*
X54610000Y-62375000D01*
X63627000Y-62865000D02*
X55100000Y-62865000D01*
X66642500Y-62095000D02*
X65420184Y-62095000D01*
X64516000Y-61190816D02*
X64516000Y-60579000D01*
X65420184Y-62095000D02*
X64516000Y-61190816D01*
X66105000Y-61595000D02*
X65532003Y-61022003D01*
X65532003Y-61022003D02*
X65532003Y-60579000D01*
X66642500Y-61595000D02*
X66105000Y-61595000D01*
X64236601Y-65885569D02*
X63119000Y-67003170D01*
X63119000Y-67003170D02*
X63119000Y-73795362D01*
X67580000Y-64070000D02*
X66415210Y-65234790D01*
X54519362Y-82395000D02*
X53494213Y-82395000D01*
X53494213Y-82395000D02*
X52080000Y-82395000D01*
X64236601Y-65640533D02*
X64236601Y-65885569D01*
X67580000Y-63532500D02*
X67580000Y-64070000D01*
X66415210Y-65234790D02*
X64642344Y-65234790D01*
X63119000Y-73795362D02*
X54519362Y-82395000D01*
X64642344Y-65234790D02*
X64236601Y-65640533D01*
D28*
G36*
X81568164Y-56382688D02*
G01*
X81534000Y-56554441D01*
X81534000Y-56561133D01*
X80487933Y-57607200D01*
X80327435Y-57607200D01*
X80322704Y-57602469D01*
X80177099Y-57505179D01*
X80015312Y-57438164D01*
X79843559Y-57404000D01*
X79668441Y-57404000D01*
X79496688Y-57438164D01*
X79334901Y-57505179D01*
X79189296Y-57602469D01*
X79065469Y-57726296D01*
X78968179Y-57871901D01*
X78901164Y-58033688D01*
X78867000Y-58205441D01*
X78867000Y-58380559D01*
X78901164Y-58552312D01*
X78968179Y-58714099D01*
X79065469Y-58859704D01*
X79189296Y-58983531D01*
X79334901Y-59080821D01*
X79496688Y-59147836D01*
X79668441Y-59182000D01*
X79843559Y-59182000D01*
X80015312Y-59147836D01*
X80025201Y-59143740D01*
X80025201Y-59835065D01*
X78675000Y-59835065D01*
X78580394Y-59844383D01*
X78489423Y-59871978D01*
X78405585Y-59916791D01*
X78332099Y-59977099D01*
X78271791Y-60050585D01*
X78226978Y-60134423D01*
X78199383Y-60225394D01*
X78190065Y-60320000D01*
X78190065Y-60970000D01*
X78199383Y-61064606D01*
X78226978Y-61155577D01*
X78271791Y-61239415D01*
X78332099Y-61312901D01*
X78405585Y-61373209D01*
X78489423Y-61418022D01*
X78580394Y-61445617D01*
X78675000Y-61454935D01*
X80025200Y-61454935D01*
X80025200Y-61735065D01*
X78675000Y-61735065D01*
X78580394Y-61744383D01*
X78489423Y-61771978D01*
X78405585Y-61816791D01*
X78332099Y-61877099D01*
X78271791Y-61950585D01*
X78226978Y-62034423D01*
X78199383Y-62125394D01*
X78190065Y-62220000D01*
X78190065Y-62870000D01*
X78199383Y-62964606D01*
X78226978Y-63055577D01*
X78271791Y-63139415D01*
X78332099Y-63212901D01*
X78405585Y-63273209D01*
X78489423Y-63318022D01*
X78580394Y-63345617D01*
X78675000Y-63354935D01*
X80235000Y-63354935D01*
X80329606Y-63345617D01*
X80420577Y-63318022D01*
X80504415Y-63273209D01*
X80556091Y-63230800D01*
X80677311Y-63230800D01*
X80711000Y-63234118D01*
X80744688Y-63230800D01*
X80788442Y-63230800D01*
X80853924Y-63353308D01*
X80945322Y-63464678D01*
X81056692Y-63556076D01*
X81183752Y-63623991D01*
X81321620Y-63665813D01*
X81464999Y-63679935D01*
X82365001Y-63679935D01*
X82508380Y-63665813D01*
X82646248Y-63623991D01*
X82773308Y-63556076D01*
X82884678Y-63464678D01*
X82976076Y-63353308D01*
X83043991Y-63226248D01*
X83085813Y-63088380D01*
X83099935Y-62945001D01*
X83099935Y-62294999D01*
X83085813Y-62151620D01*
X83043991Y-62013752D01*
X82976076Y-61886692D01*
X82884678Y-61775322D01*
X82817866Y-61720492D01*
X82849413Y-61710922D01*
X82955315Y-61654317D01*
X83048138Y-61578138D01*
X83124317Y-61485315D01*
X83180922Y-61379413D01*
X83215780Y-61264503D01*
X83227550Y-61145000D01*
X83224600Y-60874800D01*
X83072200Y-60722400D01*
X82067400Y-60722400D01*
X82067400Y-60742400D01*
X81762600Y-60742400D01*
X81762600Y-60722400D01*
X81742600Y-60722400D01*
X81742600Y-60417600D01*
X81762600Y-60417600D01*
X81762600Y-59537800D01*
X82067400Y-59537800D01*
X82067400Y-60417600D01*
X83072200Y-60417600D01*
X83224600Y-60265200D01*
X83227550Y-59995000D01*
X83215780Y-59875497D01*
X83180922Y-59760587D01*
X83124317Y-59654685D01*
X83048138Y-59561862D01*
X82955315Y-59485683D01*
X82849413Y-59429078D01*
X82734503Y-59394220D01*
X82615000Y-59382450D01*
X82219800Y-59385400D01*
X82067400Y-59537800D01*
X81762600Y-59537800D01*
X81610200Y-59385400D01*
X81396800Y-59383807D01*
X81396800Y-58638067D01*
X82503867Y-57531000D01*
X82510559Y-57531000D01*
X82682312Y-57496836D01*
X82844099Y-57429821D01*
X82989704Y-57332531D01*
X83113531Y-57208704D01*
X83210821Y-57063099D01*
X83277836Y-56901312D01*
X83288848Y-56845951D01*
X83820899Y-57378002D01*
X83776682Y-57523765D01*
X83750953Y-57785000D01*
X83776682Y-58046235D01*
X83852882Y-58297431D01*
X83976623Y-58528935D01*
X84143151Y-58731849D01*
X84346065Y-58898377D01*
X84517602Y-58990065D01*
X84240000Y-58990065D01*
X84145394Y-58999383D01*
X84054423Y-59026978D01*
X83970585Y-59071791D01*
X83897099Y-59132099D01*
X83836791Y-59205585D01*
X83791978Y-59289423D01*
X83764383Y-59380394D01*
X83755065Y-59475000D01*
X83755065Y-61175000D01*
X83764383Y-61269606D01*
X83791978Y-61360577D01*
X83836791Y-61444415D01*
X83897099Y-61517901D01*
X83970585Y-61578209D01*
X84054423Y-61623022D01*
X84145394Y-61650617D01*
X84240000Y-61659935D01*
X85852400Y-61659935D01*
X85852401Y-77479117D01*
X85615722Y-77368912D01*
X85307703Y-77293721D01*
X84990934Y-77280066D01*
X84677587Y-77328473D01*
X84379705Y-77437080D01*
X84256847Y-77502749D01*
X84157481Y-77756955D01*
X85080000Y-78679474D01*
X85094143Y-78665332D01*
X85309669Y-78880858D01*
X85295526Y-78895000D01*
X85309669Y-78909143D01*
X85094143Y-79124669D01*
X85080000Y-79110526D01*
X84157481Y-80033045D01*
X84256847Y-80287251D01*
X84544278Y-80421088D01*
X84852297Y-80496279D01*
X85169066Y-80509934D01*
X85482413Y-80461527D01*
X85780295Y-80352920D01*
X85852401Y-80314379D01*
X85852401Y-85852400D01*
X82107181Y-85852400D01*
X82215098Y-85744483D01*
X82360935Y-85526223D01*
X82461389Y-85283705D01*
X82512600Y-85026250D01*
X82512600Y-84763750D01*
X82461389Y-84506295D01*
X82360935Y-84263777D01*
X82215098Y-84045517D01*
X82029483Y-83859902D01*
X81811223Y-83714065D01*
X81568705Y-83613611D01*
X81311250Y-83562400D01*
X81048750Y-83562400D01*
X80791295Y-83613611D01*
X80548777Y-83714065D01*
X80330517Y-83859902D01*
X80144902Y-84045517D01*
X79999065Y-84263777D01*
X79898611Y-84506295D01*
X79847400Y-84763750D01*
X79847400Y-85026250D01*
X79898611Y-85283705D01*
X79999065Y-85526223D01*
X80144902Y-85744483D01*
X80252819Y-85852400D01*
X56907181Y-85852400D01*
X57015098Y-85744483D01*
X57160935Y-85526223D01*
X57261389Y-85283705D01*
X57312600Y-85026250D01*
X57312600Y-84763750D01*
X57261389Y-84506295D01*
X57160935Y-84263777D01*
X57015098Y-84045517D01*
X56829483Y-83859902D01*
X56611223Y-83714065D01*
X56368705Y-83613611D01*
X56111250Y-83562400D01*
X55848750Y-83562400D01*
X55591295Y-83613611D01*
X55348777Y-83714065D01*
X55130517Y-83859902D01*
X54944902Y-84045517D01*
X54799065Y-84263777D01*
X54698611Y-84506295D01*
X54647400Y-84763750D01*
X54647400Y-85026250D01*
X54698611Y-85283705D01*
X54799065Y-85526223D01*
X54944902Y-85744483D01*
X55052819Y-85852400D01*
X51307600Y-85852400D01*
X51307600Y-83662007D01*
X51377725Y-83708863D01*
X51647541Y-83820625D01*
X51933977Y-83877600D01*
X52226023Y-83877600D01*
X52512459Y-83820625D01*
X52782275Y-83708863D01*
X53025103Y-83546611D01*
X53231611Y-83340103D01*
X53393863Y-83097275D01*
X53432250Y-83004600D01*
X54489421Y-83004600D01*
X54519362Y-83007549D01*
X54549303Y-83004600D01*
X54638864Y-82995779D01*
X54753774Y-82960921D01*
X54859676Y-82904316D01*
X54952500Y-82828138D01*
X54971597Y-82804868D01*
X58792399Y-78984066D01*
X83465066Y-78984066D01*
X83513473Y-79297413D01*
X83622080Y-79595295D01*
X83687749Y-79718153D01*
X83941955Y-79817519D01*
X84864474Y-78895000D01*
X83941955Y-77972481D01*
X83687749Y-78071847D01*
X83553912Y-78359278D01*
X83478721Y-78667297D01*
X83465066Y-78984066D01*
X58792399Y-78984066D01*
X63528873Y-74247593D01*
X63552138Y-74228500D01*
X63628316Y-74135676D01*
X63668457Y-74060577D01*
X63684921Y-74029775D01*
X63719779Y-73914865D01*
X63731549Y-73795362D01*
X63728600Y-73765421D01*
X63728600Y-67255673D01*
X64130083Y-66854192D01*
X64130683Y-66855315D01*
X64206862Y-66948138D01*
X64299685Y-67024317D01*
X64405587Y-67080922D01*
X64520497Y-67115780D01*
X64640000Y-67127550D01*
X64860200Y-67124600D01*
X65012600Y-66972200D01*
X65012600Y-66192400D01*
X64992600Y-66192400D01*
X64992600Y-65887600D01*
X65012600Y-65887600D01*
X65012600Y-65867600D01*
X65317400Y-65867600D01*
X65317400Y-65887600D01*
X65337400Y-65887600D01*
X65337400Y-66192400D01*
X65317400Y-66192400D01*
X65317400Y-66972200D01*
X65469800Y-67124600D01*
X65690000Y-67127550D01*
X65809503Y-67115780D01*
X65924413Y-67080922D01*
X66030315Y-67024317D01*
X66123138Y-66948138D01*
X66192401Y-66863742D01*
X66192400Y-76822365D01*
X66111469Y-76903296D01*
X66014179Y-77048901D01*
X65947164Y-77210688D01*
X65913000Y-77382441D01*
X65913000Y-77557559D01*
X65947164Y-77729312D01*
X66014179Y-77891099D01*
X66111469Y-78036704D01*
X66235296Y-78160531D01*
X66380901Y-78257821D01*
X66542688Y-78324836D01*
X66714441Y-78359000D01*
X66889559Y-78359000D01*
X67061312Y-78324836D01*
X67223099Y-78257821D01*
X67368704Y-78160531D01*
X67492531Y-78036704D01*
X67589821Y-77891099D01*
X67656836Y-77729312D01*
X67691000Y-77557559D01*
X67691000Y-77382441D01*
X67656836Y-77210688D01*
X67589821Y-77048901D01*
X67492531Y-76903296D01*
X67411600Y-76822365D01*
X67411600Y-76263750D01*
X78647400Y-76263750D01*
X78647400Y-76526250D01*
X78698611Y-76783705D01*
X78799065Y-77026223D01*
X78944902Y-77244483D01*
X79130517Y-77430098D01*
X79348777Y-77575935D01*
X79591295Y-77676389D01*
X79848750Y-77727600D01*
X80111250Y-77727600D01*
X80368705Y-77676389D01*
X80611223Y-77575935D01*
X80829483Y-77430098D01*
X81015098Y-77244483D01*
X81160935Y-77026223D01*
X81261389Y-76783705D01*
X81312600Y-76526250D01*
X81312600Y-76263750D01*
X81261389Y-76006295D01*
X81160935Y-75763777D01*
X81015098Y-75545517D01*
X80829483Y-75359902D01*
X80611223Y-75214065D01*
X80368705Y-75113611D01*
X80111250Y-75062400D01*
X79848750Y-75062400D01*
X79591295Y-75113611D01*
X79348777Y-75214065D01*
X79130517Y-75359902D01*
X78944902Y-75545517D01*
X78799065Y-75763777D01*
X78698611Y-76006295D01*
X78647400Y-76263750D01*
X67411600Y-76263750D01*
X67411600Y-68611910D01*
X67558688Y-68672836D01*
X67730441Y-68707000D01*
X67905559Y-68707000D01*
X68077312Y-68672836D01*
X68239099Y-68605821D01*
X68384704Y-68508531D01*
X68389500Y-68503735D01*
X68394296Y-68508531D01*
X68539901Y-68605821D01*
X68701688Y-68672836D01*
X68873441Y-68707000D01*
X69048559Y-68707000D01*
X69220312Y-68672836D01*
X69382099Y-68605821D01*
X69499473Y-68527394D01*
X69499473Y-68576422D01*
X68479896Y-69596000D01*
X68365441Y-69596000D01*
X68193688Y-69630164D01*
X68031901Y-69697179D01*
X67886296Y-69794469D01*
X67762469Y-69918296D01*
X67665179Y-70063901D01*
X67598164Y-70225688D01*
X67564000Y-70397441D01*
X67564000Y-70572559D01*
X67598164Y-70744312D01*
X67665179Y-70906099D01*
X67762469Y-71051704D01*
X67886296Y-71175531D01*
X68031901Y-71272821D01*
X68193688Y-71339836D01*
X68365441Y-71374000D01*
X68540559Y-71374000D01*
X68712312Y-71339836D01*
X68874099Y-71272821D01*
X69019704Y-71175531D01*
X69143531Y-71051704D01*
X69240821Y-70906099D01*
X69307836Y-70744312D01*
X69342000Y-70572559D01*
X69342000Y-70458104D01*
X70518951Y-69281154D01*
X70542210Y-69262066D01*
X70618388Y-69169242D01*
X70674993Y-69063340D01*
X70709851Y-68948430D01*
X70718672Y-68858869D01*
X70718672Y-68858868D01*
X70721621Y-68828929D01*
X70718672Y-68798990D01*
X70718672Y-66903591D01*
X70796036Y-66944943D01*
X70857467Y-66963578D01*
X70926863Y-67048138D01*
X70950127Y-67067230D01*
X71856774Y-67973879D01*
X71875862Y-67997138D01*
X71968686Y-68073316D01*
X72037699Y-68110204D01*
X72074587Y-68129921D01*
X72189497Y-68164779D01*
X72309000Y-68176549D01*
X72338941Y-68173600D01*
X72885365Y-68173600D01*
X72966296Y-68254531D01*
X73111901Y-68351821D01*
X73273688Y-68418836D01*
X73445441Y-68453000D01*
X73620559Y-68453000D01*
X73792312Y-68418836D01*
X73954099Y-68351821D01*
X74099704Y-68254531D01*
X74223531Y-68130704D01*
X74320821Y-67985099D01*
X74387836Y-67823312D01*
X74422000Y-67651559D01*
X74422000Y-67476441D01*
X74387836Y-67304688D01*
X74320821Y-67142901D01*
X74223531Y-66997296D01*
X74099704Y-66873469D01*
X73954099Y-66776179D01*
X73792312Y-66709164D01*
X73620559Y-66675000D01*
X73445441Y-66675000D01*
X73273688Y-66709164D01*
X73111901Y-66776179D01*
X72966296Y-66873469D01*
X72885365Y-66954400D01*
X72561505Y-66954400D01*
X72261344Y-66654240D01*
X72314943Y-66553964D01*
X72356054Y-66418440D01*
X72369935Y-66277500D01*
X72369935Y-65802500D01*
X72358304Y-65684409D01*
X72522001Y-65684409D01*
X72551952Y-65687359D01*
X72671454Y-65675589D01*
X72786364Y-65640730D01*
X72892266Y-65584125D01*
X72915570Y-65565000D01*
X72985090Y-65507947D01*
X73004182Y-65484683D01*
X73652728Y-64836138D01*
X73675992Y-64817046D01*
X73752170Y-64724222D01*
X73808775Y-64618320D01*
X73839814Y-64516000D01*
X73843633Y-64503411D01*
X73855403Y-64383908D01*
X73852454Y-64353967D01*
X73852454Y-64281321D01*
X74167242Y-64596109D01*
X74188720Y-64622280D01*
X74293147Y-64707981D01*
X74412286Y-64771662D01*
X74541560Y-64810877D01*
X74642311Y-64820800D01*
X74642320Y-64820800D01*
X74675999Y-64824117D01*
X74709678Y-64820800D01*
X76390565Y-64820800D01*
X76395296Y-64825531D01*
X76540901Y-64922821D01*
X76702688Y-64989836D01*
X76874441Y-65024000D01*
X77049559Y-65024000D01*
X77221312Y-64989836D01*
X77383099Y-64922821D01*
X77528704Y-64825531D01*
X77652531Y-64701704D01*
X77749821Y-64556099D01*
X77816836Y-64394312D01*
X77851000Y-64222559D01*
X77851000Y-64047441D01*
X77816836Y-63875688D01*
X77749821Y-63713901D01*
X77652531Y-63568296D01*
X77528704Y-63444469D01*
X77394707Y-63354935D01*
X77535000Y-63354935D01*
X77629606Y-63345617D01*
X77720577Y-63318022D01*
X77804415Y-63273209D01*
X77877901Y-63212901D01*
X77938209Y-63139415D01*
X77983022Y-63055577D01*
X78010617Y-62964606D01*
X78019935Y-62870000D01*
X78019935Y-62290024D01*
X78044317Y-62260315D01*
X78100922Y-62154413D01*
X78135780Y-62039503D01*
X78147550Y-61920000D01*
X78144600Y-61899800D01*
X77992200Y-61747400D01*
X77639552Y-61747400D01*
X77629606Y-61744383D01*
X77535000Y-61735065D01*
X76582600Y-61735065D01*
X76582600Y-61454935D01*
X77535000Y-61454935D01*
X77629606Y-61445617D01*
X77639552Y-61442600D01*
X77992200Y-61442600D01*
X78144600Y-61290200D01*
X78147550Y-61270000D01*
X78135780Y-61150497D01*
X78100922Y-61035587D01*
X78044317Y-60929685D01*
X78019935Y-60899976D01*
X78019935Y-60320000D01*
X78010617Y-60225394D01*
X77983022Y-60134423D01*
X77938209Y-60050585D01*
X77877901Y-59977099D01*
X77804415Y-59916791D01*
X77720577Y-59871978D01*
X77629606Y-59844383D01*
X77535000Y-59835065D01*
X75975000Y-59835065D01*
X75880394Y-59844383D01*
X75789423Y-59871978D01*
X75705585Y-59916791D01*
X75632099Y-59977099D01*
X75607417Y-60007174D01*
X75607550Y-59995000D01*
X75595780Y-59875497D01*
X75560922Y-59760587D01*
X75504317Y-59654685D01*
X75428138Y-59561862D01*
X75335315Y-59485683D01*
X75229413Y-59429078D01*
X75114503Y-59394220D01*
X74995000Y-59382450D01*
X74599800Y-59385400D01*
X74447400Y-59537800D01*
X74447400Y-60417600D01*
X74467400Y-60417600D01*
X74467400Y-60722400D01*
X74447400Y-60722400D01*
X74447400Y-60742400D01*
X74142600Y-60742400D01*
X74142600Y-60722400D01*
X74122600Y-60722400D01*
X74122600Y-60417600D01*
X74142600Y-60417600D01*
X74142600Y-59537800D01*
X73990200Y-59385400D01*
X73595000Y-59382450D01*
X73580939Y-59383835D01*
X72999600Y-58802497D01*
X72999600Y-58070910D01*
X73146688Y-58131836D01*
X73318441Y-58166000D01*
X73493559Y-58166000D01*
X73665312Y-58131836D01*
X73827099Y-58064821D01*
X73972704Y-57967531D01*
X74096531Y-57843704D01*
X74193821Y-57698099D01*
X74260836Y-57536312D01*
X74295000Y-57364559D01*
X74295000Y-57250104D01*
X75233295Y-56311810D01*
X81597523Y-56311810D01*
X81568164Y-56382688D01*
X81568164Y-56382688D01*
G37*
X81568164Y-56382688D02*
X81534000Y-56554441D01*
X81534000Y-56561133D01*
X80487933Y-57607200D01*
X80327435Y-57607200D01*
X80322704Y-57602469D01*
X80177099Y-57505179D01*
X80015312Y-57438164D01*
X79843559Y-57404000D01*
X79668441Y-57404000D01*
X79496688Y-57438164D01*
X79334901Y-57505179D01*
X79189296Y-57602469D01*
X79065469Y-57726296D01*
X78968179Y-57871901D01*
X78901164Y-58033688D01*
X78867000Y-58205441D01*
X78867000Y-58380559D01*
X78901164Y-58552312D01*
X78968179Y-58714099D01*
X79065469Y-58859704D01*
X79189296Y-58983531D01*
X79334901Y-59080821D01*
X79496688Y-59147836D01*
X79668441Y-59182000D01*
X79843559Y-59182000D01*
X80015312Y-59147836D01*
X80025201Y-59143740D01*
X80025201Y-59835065D01*
X78675000Y-59835065D01*
X78580394Y-59844383D01*
X78489423Y-59871978D01*
X78405585Y-59916791D01*
X78332099Y-59977099D01*
X78271791Y-60050585D01*
X78226978Y-60134423D01*
X78199383Y-60225394D01*
X78190065Y-60320000D01*
X78190065Y-60970000D01*
X78199383Y-61064606D01*
X78226978Y-61155577D01*
X78271791Y-61239415D01*
X78332099Y-61312901D01*
X78405585Y-61373209D01*
X78489423Y-61418022D01*
X78580394Y-61445617D01*
X78675000Y-61454935D01*
X80025200Y-61454935D01*
X80025200Y-61735065D01*
X78675000Y-61735065D01*
X78580394Y-61744383D01*
X78489423Y-61771978D01*
X78405585Y-61816791D01*
X78332099Y-61877099D01*
X78271791Y-61950585D01*
X78226978Y-62034423D01*
X78199383Y-62125394D01*
X78190065Y-62220000D01*
X78190065Y-62870000D01*
X78199383Y-62964606D01*
X78226978Y-63055577D01*
X78271791Y-63139415D01*
X78332099Y-63212901D01*
X78405585Y-63273209D01*
X78489423Y-63318022D01*
X78580394Y-63345617D01*
X78675000Y-63354935D01*
X80235000Y-63354935D01*
X80329606Y-63345617D01*
X80420577Y-63318022D01*
X80504415Y-63273209D01*
X80556091Y-63230800D01*
X80677311Y-63230800D01*
X80711000Y-63234118D01*
X80744688Y-63230800D01*
X80788442Y-63230800D01*
X80853924Y-63353308D01*
X80945322Y-63464678D01*
X81056692Y-63556076D01*
X81183752Y-63623991D01*
X81321620Y-63665813D01*
X81464999Y-63679935D01*
X82365001Y-63679935D01*
X82508380Y-63665813D01*
X82646248Y-63623991D01*
X82773308Y-63556076D01*
X82884678Y-63464678D01*
X82976076Y-63353308D01*
X83043991Y-63226248D01*
X83085813Y-63088380D01*
X83099935Y-62945001D01*
X83099935Y-62294999D01*
X83085813Y-62151620D01*
X83043991Y-62013752D01*
X82976076Y-61886692D01*
X82884678Y-61775322D01*
X82817866Y-61720492D01*
X82849413Y-61710922D01*
X82955315Y-61654317D01*
X83048138Y-61578138D01*
X83124317Y-61485315D01*
X83180922Y-61379413D01*
X83215780Y-61264503D01*
X83227550Y-61145000D01*
X83224600Y-60874800D01*
X83072200Y-60722400D01*
X82067400Y-60722400D01*
X82067400Y-60742400D01*
X81762600Y-60742400D01*
X81762600Y-60722400D01*
X81742600Y-60722400D01*
X81742600Y-60417600D01*
X81762600Y-60417600D01*
X81762600Y-59537800D01*
X82067400Y-59537800D01*
X82067400Y-60417600D01*
X83072200Y-60417600D01*
X83224600Y-60265200D01*
X83227550Y-59995000D01*
X83215780Y-59875497D01*
X83180922Y-59760587D01*
X83124317Y-59654685D01*
X83048138Y-59561862D01*
X82955315Y-59485683D01*
X82849413Y-59429078D01*
X82734503Y-59394220D01*
X82615000Y-59382450D01*
X82219800Y-59385400D01*
X82067400Y-59537800D01*
X81762600Y-59537800D01*
X81610200Y-59385400D01*
X81396800Y-59383807D01*
X81396800Y-58638067D01*
X82503867Y-57531000D01*
X82510559Y-57531000D01*
X82682312Y-57496836D01*
X82844099Y-57429821D01*
X82989704Y-57332531D01*
X83113531Y-57208704D01*
X83210821Y-57063099D01*
X83277836Y-56901312D01*
X83288848Y-56845951D01*
X83820899Y-57378002D01*
X83776682Y-57523765D01*
X83750953Y-57785000D01*
X83776682Y-58046235D01*
X83852882Y-58297431D01*
X83976623Y-58528935D01*
X84143151Y-58731849D01*
X84346065Y-58898377D01*
X84517602Y-58990065D01*
X84240000Y-58990065D01*
X84145394Y-58999383D01*
X84054423Y-59026978D01*
X83970585Y-59071791D01*
X83897099Y-59132099D01*
X83836791Y-59205585D01*
X83791978Y-59289423D01*
X83764383Y-59380394D01*
X83755065Y-59475000D01*
X83755065Y-61175000D01*
X83764383Y-61269606D01*
X83791978Y-61360577D01*
X83836791Y-61444415D01*
X83897099Y-61517901D01*
X83970585Y-61578209D01*
X84054423Y-61623022D01*
X84145394Y-61650617D01*
X84240000Y-61659935D01*
X85852400Y-61659935D01*
X85852401Y-77479117D01*
X85615722Y-77368912D01*
X85307703Y-77293721D01*
X84990934Y-77280066D01*
X84677587Y-77328473D01*
X84379705Y-77437080D01*
X84256847Y-77502749D01*
X84157481Y-77756955D01*
X85080000Y-78679474D01*
X85094143Y-78665332D01*
X85309669Y-78880858D01*
X85295526Y-78895000D01*
X85309669Y-78909143D01*
X85094143Y-79124669D01*
X85080000Y-79110526D01*
X84157481Y-80033045D01*
X84256847Y-80287251D01*
X84544278Y-80421088D01*
X84852297Y-80496279D01*
X85169066Y-80509934D01*
X85482413Y-80461527D01*
X85780295Y-80352920D01*
X85852401Y-80314379D01*
X85852401Y-85852400D01*
X82107181Y-85852400D01*
X82215098Y-85744483D01*
X82360935Y-85526223D01*
X82461389Y-85283705D01*
X82512600Y-85026250D01*
X82512600Y-84763750D01*
X82461389Y-84506295D01*
X82360935Y-84263777D01*
X82215098Y-84045517D01*
X82029483Y-83859902D01*
X81811223Y-83714065D01*
X81568705Y-83613611D01*
X81311250Y-83562400D01*
X81048750Y-83562400D01*
X80791295Y-83613611D01*
X80548777Y-83714065D01*
X80330517Y-83859902D01*
X80144902Y-84045517D01*
X79999065Y-84263777D01*
X79898611Y-84506295D01*
X79847400Y-84763750D01*
X79847400Y-85026250D01*
X79898611Y-85283705D01*
X79999065Y-85526223D01*
X80144902Y-85744483D01*
X80252819Y-85852400D01*
X56907181Y-85852400D01*
X57015098Y-85744483D01*
X57160935Y-85526223D01*
X57261389Y-85283705D01*
X57312600Y-85026250D01*
X57312600Y-84763750D01*
X57261389Y-84506295D01*
X57160935Y-84263777D01*
X57015098Y-84045517D01*
X56829483Y-83859902D01*
X56611223Y-83714065D01*
X56368705Y-83613611D01*
X56111250Y-83562400D01*
X55848750Y-83562400D01*
X55591295Y-83613611D01*
X55348777Y-83714065D01*
X55130517Y-83859902D01*
X54944902Y-84045517D01*
X54799065Y-84263777D01*
X54698611Y-84506295D01*
X54647400Y-84763750D01*
X54647400Y-85026250D01*
X54698611Y-85283705D01*
X54799065Y-85526223D01*
X54944902Y-85744483D01*
X55052819Y-85852400D01*
X51307600Y-85852400D01*
X51307600Y-83662007D01*
X51377725Y-83708863D01*
X51647541Y-83820625D01*
X51933977Y-83877600D01*
X52226023Y-83877600D01*
X52512459Y-83820625D01*
X52782275Y-83708863D01*
X53025103Y-83546611D01*
X53231611Y-83340103D01*
X53393863Y-83097275D01*
X53432250Y-83004600D01*
X54489421Y-83004600D01*
X54519362Y-83007549D01*
X54549303Y-83004600D01*
X54638864Y-82995779D01*
X54753774Y-82960921D01*
X54859676Y-82904316D01*
X54952500Y-82828138D01*
X54971597Y-82804868D01*
X58792399Y-78984066D01*
X83465066Y-78984066D01*
X83513473Y-79297413D01*
X83622080Y-79595295D01*
X83687749Y-79718153D01*
X83941955Y-79817519D01*
X84864474Y-78895000D01*
X83941955Y-77972481D01*
X83687749Y-78071847D01*
X83553912Y-78359278D01*
X83478721Y-78667297D01*
X83465066Y-78984066D01*
X58792399Y-78984066D01*
X63528873Y-74247593D01*
X63552138Y-74228500D01*
X63628316Y-74135676D01*
X63668457Y-74060577D01*
X63684921Y-74029775D01*
X63719779Y-73914865D01*
X63731549Y-73795362D01*
X63728600Y-73765421D01*
X63728600Y-67255673D01*
X64130083Y-66854192D01*
X64130683Y-66855315D01*
X64206862Y-66948138D01*
X64299685Y-67024317D01*
X64405587Y-67080922D01*
X64520497Y-67115780D01*
X64640000Y-67127550D01*
X64860200Y-67124600D01*
X65012600Y-66972200D01*
X65012600Y-66192400D01*
X64992600Y-66192400D01*
X64992600Y-65887600D01*
X65012600Y-65887600D01*
X65012600Y-65867600D01*
X65317400Y-65867600D01*
X65317400Y-65887600D01*
X65337400Y-65887600D01*
X65337400Y-66192400D01*
X65317400Y-66192400D01*
X65317400Y-66972200D01*
X65469800Y-67124600D01*
X65690000Y-67127550D01*
X65809503Y-67115780D01*
X65924413Y-67080922D01*
X66030315Y-67024317D01*
X66123138Y-66948138D01*
X66192401Y-66863742D01*
X66192400Y-76822365D01*
X66111469Y-76903296D01*
X66014179Y-77048901D01*
X65947164Y-77210688D01*
X65913000Y-77382441D01*
X65913000Y-77557559D01*
X65947164Y-77729312D01*
X66014179Y-77891099D01*
X66111469Y-78036704D01*
X66235296Y-78160531D01*
X66380901Y-78257821D01*
X66542688Y-78324836D01*
X66714441Y-78359000D01*
X66889559Y-78359000D01*
X67061312Y-78324836D01*
X67223099Y-78257821D01*
X67368704Y-78160531D01*
X67492531Y-78036704D01*
X67589821Y-77891099D01*
X67656836Y-77729312D01*
X67691000Y-77557559D01*
X67691000Y-77382441D01*
X67656836Y-77210688D01*
X67589821Y-77048901D01*
X67492531Y-76903296D01*
X67411600Y-76822365D01*
X67411600Y-76263750D01*
X78647400Y-76263750D01*
X78647400Y-76526250D01*
X78698611Y-76783705D01*
X78799065Y-77026223D01*
X78944902Y-77244483D01*
X79130517Y-77430098D01*
X79348777Y-77575935D01*
X79591295Y-77676389D01*
X79848750Y-77727600D01*
X80111250Y-77727600D01*
X80368705Y-77676389D01*
X80611223Y-77575935D01*
X80829483Y-77430098D01*
X81015098Y-77244483D01*
X81160935Y-77026223D01*
X81261389Y-76783705D01*
X81312600Y-76526250D01*
X81312600Y-76263750D01*
X81261389Y-76006295D01*
X81160935Y-75763777D01*
X81015098Y-75545517D01*
X80829483Y-75359902D01*
X80611223Y-75214065D01*
X80368705Y-75113611D01*
X80111250Y-75062400D01*
X79848750Y-75062400D01*
X79591295Y-75113611D01*
X79348777Y-75214065D01*
X79130517Y-75359902D01*
X78944902Y-75545517D01*
X78799065Y-75763777D01*
X78698611Y-76006295D01*
X78647400Y-76263750D01*
X67411600Y-76263750D01*
X67411600Y-68611910D01*
X67558688Y-68672836D01*
X67730441Y-68707000D01*
X67905559Y-68707000D01*
X68077312Y-68672836D01*
X68239099Y-68605821D01*
X68384704Y-68508531D01*
X68389500Y-68503735D01*
X68394296Y-68508531D01*
X68539901Y-68605821D01*
X68701688Y-68672836D01*
X68873441Y-68707000D01*
X69048559Y-68707000D01*
X69220312Y-68672836D01*
X69382099Y-68605821D01*
X69499473Y-68527394D01*
X69499473Y-68576422D01*
X68479896Y-69596000D01*
X68365441Y-69596000D01*
X68193688Y-69630164D01*
X68031901Y-69697179D01*
X67886296Y-69794469D01*
X67762469Y-69918296D01*
X67665179Y-70063901D01*
X67598164Y-70225688D01*
X67564000Y-70397441D01*
X67564000Y-70572559D01*
X67598164Y-70744312D01*
X67665179Y-70906099D01*
X67762469Y-71051704D01*
X67886296Y-71175531D01*
X68031901Y-71272821D01*
X68193688Y-71339836D01*
X68365441Y-71374000D01*
X68540559Y-71374000D01*
X68712312Y-71339836D01*
X68874099Y-71272821D01*
X69019704Y-71175531D01*
X69143531Y-71051704D01*
X69240821Y-70906099D01*
X69307836Y-70744312D01*
X69342000Y-70572559D01*
X69342000Y-70458104D01*
X70518951Y-69281154D01*
X70542210Y-69262066D01*
X70618388Y-69169242D01*
X70674993Y-69063340D01*
X70709851Y-68948430D01*
X70718672Y-68858869D01*
X70718672Y-68858868D01*
X70721621Y-68828929D01*
X70718672Y-68798990D01*
X70718672Y-66903591D01*
X70796036Y-66944943D01*
X70857467Y-66963578D01*
X70926863Y-67048138D01*
X70950127Y-67067230D01*
X71856774Y-67973879D01*
X71875862Y-67997138D01*
X71968686Y-68073316D01*
X72037699Y-68110204D01*
X72074587Y-68129921D01*
X72189497Y-68164779D01*
X72309000Y-68176549D01*
X72338941Y-68173600D01*
X72885365Y-68173600D01*
X72966296Y-68254531D01*
X73111901Y-68351821D01*
X73273688Y-68418836D01*
X73445441Y-68453000D01*
X73620559Y-68453000D01*
X73792312Y-68418836D01*
X73954099Y-68351821D01*
X74099704Y-68254531D01*
X74223531Y-68130704D01*
X74320821Y-67985099D01*
X74387836Y-67823312D01*
X74422000Y-67651559D01*
X74422000Y-67476441D01*
X74387836Y-67304688D01*
X74320821Y-67142901D01*
X74223531Y-66997296D01*
X74099704Y-66873469D01*
X73954099Y-66776179D01*
X73792312Y-66709164D01*
X73620559Y-66675000D01*
X73445441Y-66675000D01*
X73273688Y-66709164D01*
X73111901Y-66776179D01*
X72966296Y-66873469D01*
X72885365Y-66954400D01*
X72561505Y-66954400D01*
X72261344Y-66654240D01*
X72314943Y-66553964D01*
X72356054Y-66418440D01*
X72369935Y-66277500D01*
X72369935Y-65802500D01*
X72358304Y-65684409D01*
X72522001Y-65684409D01*
X72551952Y-65687359D01*
X72671454Y-65675589D01*
X72786364Y-65640730D01*
X72892266Y-65584125D01*
X72915570Y-65565000D01*
X72985090Y-65507947D01*
X73004182Y-65484683D01*
X73652728Y-64836138D01*
X73675992Y-64817046D01*
X73752170Y-64724222D01*
X73808775Y-64618320D01*
X73839814Y-64516000D01*
X73843633Y-64503411D01*
X73855403Y-64383908D01*
X73852454Y-64353967D01*
X73852454Y-64281321D01*
X74167242Y-64596109D01*
X74188720Y-64622280D01*
X74293147Y-64707981D01*
X74412286Y-64771662D01*
X74541560Y-64810877D01*
X74642311Y-64820800D01*
X74642320Y-64820800D01*
X74675999Y-64824117D01*
X74709678Y-64820800D01*
X76390565Y-64820800D01*
X76395296Y-64825531D01*
X76540901Y-64922821D01*
X76702688Y-64989836D01*
X76874441Y-65024000D01*
X77049559Y-65024000D01*
X77221312Y-64989836D01*
X77383099Y-64922821D01*
X77528704Y-64825531D01*
X77652531Y-64701704D01*
X77749821Y-64556099D01*
X77816836Y-64394312D01*
X77851000Y-64222559D01*
X77851000Y-64047441D01*
X77816836Y-63875688D01*
X77749821Y-63713901D01*
X77652531Y-63568296D01*
X77528704Y-63444469D01*
X77394707Y-63354935D01*
X77535000Y-63354935D01*
X77629606Y-63345617D01*
X77720577Y-63318022D01*
X77804415Y-63273209D01*
X77877901Y-63212901D01*
X77938209Y-63139415D01*
X77983022Y-63055577D01*
X78010617Y-62964606D01*
X78019935Y-62870000D01*
X78019935Y-62290024D01*
X78044317Y-62260315D01*
X78100922Y-62154413D01*
X78135780Y-62039503D01*
X78147550Y-61920000D01*
X78144600Y-61899800D01*
X77992200Y-61747400D01*
X77639552Y-61747400D01*
X77629606Y-61744383D01*
X77535000Y-61735065D01*
X76582600Y-61735065D01*
X76582600Y-61454935D01*
X77535000Y-61454935D01*
X77629606Y-61445617D01*
X77639552Y-61442600D01*
X77992200Y-61442600D01*
X78144600Y-61290200D01*
X78147550Y-61270000D01*
X78135780Y-61150497D01*
X78100922Y-61035587D01*
X78044317Y-60929685D01*
X78019935Y-60899976D01*
X78019935Y-60320000D01*
X78010617Y-60225394D01*
X77983022Y-60134423D01*
X77938209Y-60050585D01*
X77877901Y-59977099D01*
X77804415Y-59916791D01*
X77720577Y-59871978D01*
X77629606Y-59844383D01*
X77535000Y-59835065D01*
X75975000Y-59835065D01*
X75880394Y-59844383D01*
X75789423Y-59871978D01*
X75705585Y-59916791D01*
X75632099Y-59977099D01*
X75607417Y-60007174D01*
X75607550Y-59995000D01*
X75595780Y-59875497D01*
X75560922Y-59760587D01*
X75504317Y-59654685D01*
X75428138Y-59561862D01*
X75335315Y-59485683D01*
X75229413Y-59429078D01*
X75114503Y-59394220D01*
X74995000Y-59382450D01*
X74599800Y-59385400D01*
X74447400Y-59537800D01*
X74447400Y-60417600D01*
X74467400Y-60417600D01*
X74467400Y-60722400D01*
X74447400Y-60722400D01*
X74447400Y-60742400D01*
X74142600Y-60742400D01*
X74142600Y-60722400D01*
X74122600Y-60722400D01*
X74122600Y-60417600D01*
X74142600Y-60417600D01*
X74142600Y-59537800D01*
X73990200Y-59385400D01*
X73595000Y-59382450D01*
X73580939Y-59383835D01*
X72999600Y-58802497D01*
X72999600Y-58070910D01*
X73146688Y-58131836D01*
X73318441Y-58166000D01*
X73493559Y-58166000D01*
X73665312Y-58131836D01*
X73827099Y-58064821D01*
X73972704Y-57967531D01*
X74096531Y-57843704D01*
X74193821Y-57698099D01*
X74260836Y-57536312D01*
X74295000Y-57364559D01*
X74295000Y-57250104D01*
X75233295Y-56311810D01*
X81597523Y-56311810D01*
X81568164Y-56382688D01*
G36*
X60949587Y-51395844D02*
G01*
X60706585Y-51546913D01*
X60497724Y-51742486D01*
X60331031Y-51975048D01*
X60212911Y-52235662D01*
X60185090Y-52327393D01*
X60296714Y-52552600D01*
X61442600Y-52552600D01*
X61442600Y-52532600D01*
X61747400Y-52532600D01*
X61747400Y-52552600D01*
X62893286Y-52552600D01*
X63004910Y-52327393D01*
X62977089Y-52235662D01*
X62858969Y-51975048D01*
X62692276Y-51742486D01*
X62483415Y-51546913D01*
X62240413Y-51395844D01*
X62005871Y-51307600D01*
X64006604Y-51307600D01*
X63923374Y-51494047D01*
X63870400Y-51727100D01*
X63870400Y-52077100D01*
X67427600Y-52077100D01*
X67427600Y-52057100D01*
X67732400Y-52057100D01*
X67732400Y-52077100D01*
X69427600Y-52077100D01*
X69427600Y-52057100D01*
X69732400Y-52057100D01*
X69732400Y-52077100D01*
X73289600Y-52077100D01*
X73289600Y-51727100D01*
X73236626Y-51494047D01*
X73153396Y-51307600D01*
X77051145Y-51307600D01*
X77000662Y-51322911D01*
X76740048Y-51441031D01*
X76507486Y-51607724D01*
X76311913Y-51816585D01*
X76160844Y-52059587D01*
X76134072Y-52130744D01*
X76043377Y-51961065D01*
X75876849Y-51758151D01*
X75673935Y-51591623D01*
X75442431Y-51467882D01*
X75191235Y-51391682D01*
X74995459Y-51372400D01*
X74864541Y-51372400D01*
X74668765Y-51391682D01*
X74417569Y-51467882D01*
X74186065Y-51591623D01*
X73983151Y-51758151D01*
X73816623Y-51961065D01*
X73692882Y-52192569D01*
X73616682Y-52443765D01*
X73590953Y-52705000D01*
X73616682Y-52966235D01*
X73660899Y-53111997D01*
X73189881Y-53583016D01*
X73177821Y-53553901D01*
X73080531Y-53408296D01*
X73021554Y-53349319D01*
X73139204Y-53183193D01*
X73236626Y-52964953D01*
X73289600Y-52731900D01*
X73289600Y-52381900D01*
X69732400Y-52381900D01*
X69732400Y-52401900D01*
X69427600Y-52401900D01*
X69427600Y-52381900D01*
X67732400Y-52381900D01*
X67732400Y-52401900D01*
X67427600Y-52401900D01*
X67427600Y-52381900D01*
X63870400Y-52381900D01*
X63870400Y-52731900D01*
X63923374Y-52964953D01*
X64020796Y-53183193D01*
X64158923Y-53378234D01*
X64332447Y-53542580D01*
X64534699Y-53669915D01*
X64741761Y-53740847D01*
X64785873Y-53713505D01*
X64845587Y-53745422D01*
X64927598Y-53770300D01*
X64927598Y-53789100D01*
X65050048Y-53789100D01*
X65080000Y-53792050D01*
X65375200Y-53789100D01*
X65426170Y-53738130D01*
X65527598Y-53703384D01*
X65527598Y-53712215D01*
X65475864Y-53732230D01*
X65420146Y-53762012D01*
X65354192Y-53988166D01*
X66080000Y-54713974D01*
X66094143Y-54699832D01*
X66309669Y-54915358D01*
X66295526Y-54929500D01*
X66309669Y-54943643D01*
X66094143Y-55159169D01*
X66080000Y-55145026D01*
X65354192Y-55870834D01*
X65420146Y-56096988D01*
X65432674Y-56102526D01*
X65317400Y-56217800D01*
X65317400Y-56997600D01*
X65337400Y-56997600D01*
X65337400Y-57302400D01*
X65317400Y-57302400D01*
X65317400Y-58082200D01*
X65469800Y-58234600D01*
X65690000Y-58237550D01*
X65809503Y-58225780D01*
X65924413Y-58190922D01*
X66030315Y-58134317D01*
X66123138Y-58058138D01*
X66198896Y-57965827D01*
X66226137Y-57988183D01*
X66351036Y-58054943D01*
X66486560Y-58096054D01*
X66627500Y-58109935D01*
X67012832Y-58109935D01*
X67470401Y-58567505D01*
X67470401Y-58610400D01*
X67427598Y-58610400D01*
X67427598Y-58633798D01*
X67404200Y-58610400D01*
X67315022Y-58623658D01*
X67201371Y-58662425D01*
X67097467Y-58722619D01*
X67083318Y-58735065D01*
X67000000Y-58735065D01*
X66952449Y-58737402D01*
X66943670Y-58738267D01*
X66850495Y-58756798D01*
X66842053Y-58759358D01*
X66754161Y-58795762D01*
X66746381Y-58799921D01*
X66667366Y-58852719D01*
X66660547Y-58858315D01*
X66593315Y-58925547D01*
X66587719Y-58932366D01*
X66534921Y-59011381D01*
X66530762Y-59019161D01*
X66494358Y-59107053D01*
X66491798Y-59115495D01*
X66473267Y-59208670D01*
X66472402Y-59217449D01*
X66470065Y-59265000D01*
X66470065Y-59485065D01*
X66250000Y-59485065D01*
X66202449Y-59487402D01*
X66193670Y-59488267D01*
X66100495Y-59506798D01*
X66092053Y-59509358D01*
X66004161Y-59545762D01*
X65996381Y-59549921D01*
X65917366Y-59602719D01*
X65910547Y-59608315D01*
X65843315Y-59675547D01*
X65837719Y-59682366D01*
X65805785Y-59730158D01*
X65791315Y-59724164D01*
X65619562Y-59690000D01*
X65444444Y-59690000D01*
X65272691Y-59724164D01*
X65110904Y-59791179D01*
X65024002Y-59849245D01*
X64937099Y-59791179D01*
X64775312Y-59724164D01*
X64603559Y-59690000D01*
X64428441Y-59690000D01*
X64363600Y-59702898D01*
X64363600Y-58771860D01*
X64366549Y-58741919D01*
X64354779Y-58622416D01*
X64319921Y-58507506D01*
X64285148Y-58442451D01*
X64263316Y-58401605D01*
X64187138Y-58308781D01*
X64163874Y-58289689D01*
X63499185Y-57625000D01*
X64027450Y-57625000D01*
X64039220Y-57744503D01*
X64074078Y-57859413D01*
X64130683Y-57965315D01*
X64206862Y-58058138D01*
X64299685Y-58134317D01*
X64405587Y-58190922D01*
X64520497Y-58225780D01*
X64640000Y-58237550D01*
X64860200Y-58234600D01*
X65012600Y-58082200D01*
X65012600Y-57302400D01*
X64182800Y-57302400D01*
X64030400Y-57454800D01*
X64027450Y-57625000D01*
X63499185Y-57625000D01*
X63249316Y-57375132D01*
X63230219Y-57351862D01*
X63137395Y-57275684D01*
X63031493Y-57219079D01*
X62916583Y-57184221D01*
X62827022Y-57175400D01*
X62797081Y-57172451D01*
X62779528Y-57174180D01*
X62708377Y-57041065D01*
X62541849Y-56838151D01*
X62343050Y-56675000D01*
X64027450Y-56675000D01*
X64030400Y-56845200D01*
X64182800Y-56997600D01*
X65012600Y-56997600D01*
X65012600Y-56217800D01*
X64860200Y-56065400D01*
X64640000Y-56062450D01*
X64520497Y-56074220D01*
X64405587Y-56109078D01*
X64299685Y-56165683D01*
X64206862Y-56241862D01*
X64130683Y-56334685D01*
X64074078Y-56440587D01*
X64039220Y-56555497D01*
X64027450Y-56675000D01*
X62343050Y-56675000D01*
X62338935Y-56671623D01*
X62107431Y-56547882D01*
X61999034Y-56515000D01*
X62107431Y-56482118D01*
X62338935Y-56358377D01*
X62541849Y-56191849D01*
X62708377Y-55988935D01*
X62832118Y-55757431D01*
X62908318Y-55506235D01*
X62934047Y-55245000D01*
X62912820Y-55029473D01*
X64742674Y-55029473D01*
X64787874Y-55288451D01*
X64882730Y-55533636D01*
X64912512Y-55589354D01*
X65138666Y-55655308D01*
X65864474Y-54929500D01*
X65138666Y-54203692D01*
X64912512Y-54269646D01*
X64806214Y-54510091D01*
X64748867Y-54766653D01*
X64742674Y-55029473D01*
X62912820Y-55029473D01*
X62908318Y-54983765D01*
X62832118Y-54732569D01*
X62708377Y-54501065D01*
X62541849Y-54298151D01*
X62338935Y-54131623D01*
X62169256Y-54040928D01*
X62240413Y-54014156D01*
X62483415Y-53863087D01*
X62692276Y-53667514D01*
X62858969Y-53434952D01*
X62977089Y-53174338D01*
X63004910Y-53082607D01*
X62893286Y-52857400D01*
X61747400Y-52857400D01*
X61747400Y-52877400D01*
X61442600Y-52877400D01*
X61442600Y-52857400D01*
X60296714Y-52857400D01*
X60185090Y-53082607D01*
X60212911Y-53174338D01*
X60331031Y-53434952D01*
X60497724Y-53667514D01*
X60706585Y-53863087D01*
X60949587Y-54014156D01*
X61020744Y-54040928D01*
X60851065Y-54131623D01*
X60648151Y-54298151D01*
X60481623Y-54501065D01*
X60357882Y-54732569D01*
X60281682Y-54983765D01*
X60255953Y-55245000D01*
X60281682Y-55506235D01*
X60325899Y-55651998D01*
X60004931Y-55972966D01*
X59981661Y-55992063D01*
X59905483Y-56084888D01*
X59856530Y-56176474D01*
X59803339Y-56111661D01*
X59693863Y-56021817D01*
X59568964Y-55955057D01*
X59433440Y-55913946D01*
X59292500Y-55900065D01*
X58817500Y-55900065D01*
X58676560Y-55913946D01*
X58541036Y-55955057D01*
X58416137Y-56021817D01*
X58306661Y-56111661D01*
X58216817Y-56221137D01*
X58213830Y-56226725D01*
X55894935Y-53907831D01*
X55894935Y-52105000D01*
X55885617Y-52010394D01*
X55858022Y-51919423D01*
X55813209Y-51835585D01*
X55752901Y-51762099D01*
X55679415Y-51701791D01*
X55595577Y-51656978D01*
X55504606Y-51629383D01*
X55410000Y-51620065D01*
X53810000Y-51620065D01*
X53715394Y-51629383D01*
X53624423Y-51656978D01*
X53540585Y-51701791D01*
X53467099Y-51762099D01*
X53406791Y-51835585D01*
X53361978Y-51919423D01*
X53334383Y-52010394D01*
X53325065Y-52105000D01*
X53325065Y-54285000D01*
X53334383Y-54379606D01*
X53361978Y-54470577D01*
X53406791Y-54554415D01*
X53467099Y-54627901D01*
X53540585Y-54688209D01*
X53624423Y-54733022D01*
X53715394Y-54760617D01*
X53810000Y-54769935D01*
X55032831Y-54769935D01*
X57582774Y-57319879D01*
X57601862Y-57343138D01*
X57694686Y-57419316D01*
X57800588Y-57475921D01*
X57915498Y-57510779D01*
X58005059Y-57519600D01*
X58005060Y-57519600D01*
X58034999Y-57522549D01*
X58064938Y-57519600D01*
X58174450Y-57519600D01*
X58216817Y-57598863D01*
X58239173Y-57626104D01*
X58146862Y-57701862D01*
X58070683Y-57794685D01*
X58014078Y-57900587D01*
X57979220Y-58015497D01*
X57967450Y-58135000D01*
X57970400Y-58355200D01*
X58122800Y-58507600D01*
X58902600Y-58507600D01*
X58902600Y-58487600D01*
X59207400Y-58487600D01*
X59207400Y-58507600D01*
X59227400Y-58507600D01*
X59227400Y-58812400D01*
X59207400Y-58812400D01*
X59207400Y-59642200D01*
X59359800Y-59794600D01*
X59530000Y-59797550D01*
X59649503Y-59785780D01*
X59764413Y-59750922D01*
X59870315Y-59694317D01*
X59963138Y-59618138D01*
X60039317Y-59525315D01*
X60095922Y-59419413D01*
X60130780Y-59304503D01*
X60142550Y-59185000D01*
X60139600Y-58964800D01*
X59987202Y-58812402D01*
X60013601Y-58812402D01*
X60371086Y-59169888D01*
X60341791Y-59205585D01*
X60296978Y-59289423D01*
X60269383Y-59380394D01*
X60260065Y-59475000D01*
X60260065Y-61175000D01*
X60269383Y-61269606D01*
X60296978Y-61360577D01*
X60341791Y-61444415D01*
X60402099Y-61517901D01*
X60475585Y-61578209D01*
X60559423Y-61623022D01*
X60650394Y-61650617D01*
X60745000Y-61659935D01*
X62445000Y-61659935D01*
X62539606Y-61650617D01*
X62630577Y-61623022D01*
X62714415Y-61578209D01*
X62739440Y-61557671D01*
X62812863Y-61647138D01*
X62836127Y-61666230D01*
X63235016Y-62065119D01*
X63205901Y-62077179D01*
X63060296Y-62174469D01*
X62979365Y-62255400D01*
X55894935Y-62255400D01*
X55894935Y-61285000D01*
X55885617Y-61190394D01*
X55858022Y-61099423D01*
X55813209Y-61015585D01*
X55752901Y-60942099D01*
X55679415Y-60881791D01*
X55595577Y-60836978D01*
X55504606Y-60809383D01*
X55410000Y-60800065D01*
X53810000Y-60800065D01*
X53715394Y-60809383D01*
X53624423Y-60836978D01*
X53540585Y-60881791D01*
X53467099Y-60942099D01*
X53406791Y-61015585D01*
X53361978Y-61099423D01*
X53334383Y-61190394D01*
X53325065Y-61285000D01*
X53325065Y-63465000D01*
X53334383Y-63559606D01*
X53361978Y-63650577D01*
X53406791Y-63734415D01*
X53467099Y-63807901D01*
X53540585Y-63868209D01*
X53624423Y-63913022D01*
X53715394Y-63940617D01*
X53810000Y-63949935D01*
X55410000Y-63949935D01*
X55504606Y-63940617D01*
X55595577Y-63913022D01*
X55679415Y-63868209D01*
X55752901Y-63807901D01*
X55813209Y-63734415D01*
X55858022Y-63650577D01*
X55885617Y-63559606D01*
X55893989Y-63474600D01*
X62979365Y-63474600D01*
X63060296Y-63555531D01*
X63205901Y-63652821D01*
X63367688Y-63719836D01*
X63539441Y-63754000D01*
X63714559Y-63754000D01*
X63886312Y-63719836D01*
X64048099Y-63652821D01*
X64193704Y-63555531D01*
X64317531Y-63431704D01*
X64414821Y-63286099D01*
X64426881Y-63256985D01*
X64606391Y-63436495D01*
X63526887Y-64516000D01*
X63412431Y-64516000D01*
X63240678Y-64550164D01*
X63078891Y-64617179D01*
X62933286Y-64714469D01*
X62894442Y-64753313D01*
X62858969Y-64675048D01*
X62692276Y-64442486D01*
X62483415Y-64246913D01*
X62240413Y-64095844D01*
X61972608Y-63995085D01*
X61747400Y-64105772D01*
X61747400Y-65252600D01*
X61767400Y-65252600D01*
X61767400Y-65557400D01*
X61747400Y-65557400D01*
X61747400Y-65577400D01*
X61442600Y-65577400D01*
X61442600Y-65557400D01*
X60296714Y-65557400D01*
X60185090Y-65782607D01*
X60212911Y-65874338D01*
X60331031Y-66134952D01*
X60497724Y-66367514D01*
X60706585Y-66563087D01*
X60949587Y-66714156D01*
X61020744Y-66740928D01*
X60851065Y-66831623D01*
X60648151Y-66998151D01*
X60481623Y-67201065D01*
X60357882Y-67432569D01*
X60281682Y-67683765D01*
X60255953Y-67945000D01*
X60281682Y-68206235D01*
X60357882Y-68457431D01*
X60481623Y-68688935D01*
X60648151Y-68891849D01*
X60851065Y-69058377D01*
X61082569Y-69182118D01*
X61190966Y-69215000D01*
X61082569Y-69247882D01*
X60851065Y-69371623D01*
X60648151Y-69538151D01*
X60481623Y-69741065D01*
X60357882Y-69972569D01*
X60281682Y-70223765D01*
X60255953Y-70485000D01*
X60281682Y-70746235D01*
X60357882Y-70997431D01*
X60481623Y-71228935D01*
X60648151Y-71431849D01*
X60851065Y-71598377D01*
X61022602Y-71690065D01*
X60745000Y-71690065D01*
X60650394Y-71699383D01*
X60559423Y-71726978D01*
X60475585Y-71771791D01*
X60402099Y-71832099D01*
X60341791Y-71905585D01*
X60296978Y-71989423D01*
X60269383Y-72080394D01*
X60260065Y-72175000D01*
X60260065Y-73875000D01*
X60269383Y-73969606D01*
X60296978Y-74060577D01*
X60341791Y-74144415D01*
X60402099Y-74217901D01*
X60475585Y-74278209D01*
X60559423Y-74323022D01*
X60650394Y-74350617D01*
X60745000Y-74359935D01*
X61692323Y-74359935D01*
X54266859Y-81785400D01*
X53432250Y-81785400D01*
X53393863Y-81692725D01*
X53231611Y-81449897D01*
X53025103Y-81243389D01*
X52782275Y-81081137D01*
X52512459Y-80969375D01*
X52226023Y-80912400D01*
X51933977Y-80912400D01*
X51647541Y-80969375D01*
X51377725Y-81081137D01*
X51307600Y-81127993D01*
X51307600Y-80162007D01*
X51377725Y-80208863D01*
X51647541Y-80320625D01*
X51933977Y-80377600D01*
X52226023Y-80377600D01*
X52512459Y-80320625D01*
X52782275Y-80208863D01*
X53025103Y-80046611D01*
X53231611Y-79840103D01*
X53393863Y-79597275D01*
X53505625Y-79327459D01*
X53562600Y-79041023D01*
X53562600Y-78748977D01*
X53505625Y-78462541D01*
X53393863Y-78192725D01*
X53231611Y-77949897D01*
X53025103Y-77743389D01*
X52782275Y-77581137D01*
X52512459Y-77469375D01*
X52226023Y-77412400D01*
X51933977Y-77412400D01*
X51647541Y-77469375D01*
X51377725Y-77581137D01*
X51307600Y-77627993D01*
X51307600Y-76263750D01*
X55847400Y-76263750D01*
X55847400Y-76526250D01*
X55898611Y-76783705D01*
X55999065Y-77026223D01*
X56144902Y-77244483D01*
X56330517Y-77430098D01*
X56548777Y-77575935D01*
X56791295Y-77676389D01*
X57048750Y-77727600D01*
X57311250Y-77727600D01*
X57568705Y-77676389D01*
X57811223Y-77575935D01*
X58029483Y-77430098D01*
X58215098Y-77244483D01*
X58360935Y-77026223D01*
X58461389Y-76783705D01*
X58512600Y-76526250D01*
X58512600Y-76263750D01*
X58461389Y-76006295D01*
X58360935Y-75763777D01*
X58215098Y-75545517D01*
X58029483Y-75359902D01*
X57811223Y-75214065D01*
X57568705Y-75113611D01*
X57311250Y-75062400D01*
X57048750Y-75062400D01*
X56791295Y-75113611D01*
X56548777Y-75214065D01*
X56330517Y-75359902D01*
X56144902Y-75545517D01*
X55999065Y-75763777D01*
X55898611Y-76006295D01*
X55847400Y-76263750D01*
X51307600Y-76263750D01*
X51307600Y-69059127D01*
X53027400Y-69059127D01*
X53027400Y-69370873D01*
X53088218Y-69676628D01*
X53207518Y-69964642D01*
X53380714Y-70223849D01*
X53601151Y-70444286D01*
X53860358Y-70617482D01*
X54148372Y-70736782D01*
X54454127Y-70797600D01*
X54765873Y-70797600D01*
X55071628Y-70736782D01*
X55359642Y-70617482D01*
X55618849Y-70444286D01*
X55839286Y-70223849D01*
X56012482Y-69964642D01*
X56131782Y-69676628D01*
X56192600Y-69370873D01*
X56192600Y-69059127D01*
X56131782Y-68753372D01*
X56012482Y-68465358D01*
X55839286Y-68206151D01*
X55618849Y-67985714D01*
X55359642Y-67812518D01*
X55071628Y-67693218D01*
X54765873Y-67632400D01*
X54454127Y-67632400D01*
X54148372Y-67693218D01*
X53860358Y-67812518D01*
X53601151Y-67985714D01*
X53380714Y-68206151D01*
X53207518Y-68465358D01*
X53088218Y-68753372D01*
X53027400Y-69059127D01*
X51307600Y-69059127D01*
X51307600Y-65027393D01*
X60185090Y-65027393D01*
X60296714Y-65252600D01*
X61442600Y-65252600D01*
X61442600Y-64105772D01*
X61217392Y-63995085D01*
X60949587Y-64095844D01*
X60706585Y-64246913D01*
X60497724Y-64442486D01*
X60331031Y-64675048D01*
X60212911Y-64935662D01*
X60185090Y-65027393D01*
X51307600Y-65027393D01*
X51307600Y-59185000D01*
X57967450Y-59185000D01*
X57979220Y-59304503D01*
X58014078Y-59419413D01*
X58070683Y-59525315D01*
X58146862Y-59618138D01*
X58239685Y-59694317D01*
X58345587Y-59750922D01*
X58460497Y-59785780D01*
X58580000Y-59797550D01*
X58750200Y-59794600D01*
X58902600Y-59642200D01*
X58902600Y-58812400D01*
X58122800Y-58812400D01*
X57970400Y-58964800D01*
X57967450Y-59185000D01*
X51307600Y-59185000D01*
X51307600Y-51307600D01*
X61184129Y-51307600D01*
X60949587Y-51395844D01*
X60949587Y-51395844D01*
G37*
X60949587Y-51395844D02*
X60706585Y-51546913D01*
X60497724Y-51742486D01*
X60331031Y-51975048D01*
X60212911Y-52235662D01*
X60185090Y-52327393D01*
X60296714Y-52552600D01*
X61442600Y-52552600D01*
X61442600Y-52532600D01*
X61747400Y-52532600D01*
X61747400Y-52552600D01*
X62893286Y-52552600D01*
X63004910Y-52327393D01*
X62977089Y-52235662D01*
X62858969Y-51975048D01*
X62692276Y-51742486D01*
X62483415Y-51546913D01*
X62240413Y-51395844D01*
X62005871Y-51307600D01*
X64006604Y-51307600D01*
X63923374Y-51494047D01*
X63870400Y-51727100D01*
X63870400Y-52077100D01*
X67427600Y-52077100D01*
X67427600Y-52057100D01*
X67732400Y-52057100D01*
X67732400Y-52077100D01*
X69427600Y-52077100D01*
X69427600Y-52057100D01*
X69732400Y-52057100D01*
X69732400Y-52077100D01*
X73289600Y-52077100D01*
X73289600Y-51727100D01*
X73236626Y-51494047D01*
X73153396Y-51307600D01*
X77051145Y-51307600D01*
X77000662Y-51322911D01*
X76740048Y-51441031D01*
X76507486Y-51607724D01*
X76311913Y-51816585D01*
X76160844Y-52059587D01*
X76134072Y-52130744D01*
X76043377Y-51961065D01*
X75876849Y-51758151D01*
X75673935Y-51591623D01*
X75442431Y-51467882D01*
X75191235Y-51391682D01*
X74995459Y-51372400D01*
X74864541Y-51372400D01*
X74668765Y-51391682D01*
X74417569Y-51467882D01*
X74186065Y-51591623D01*
X73983151Y-51758151D01*
X73816623Y-51961065D01*
X73692882Y-52192569D01*
X73616682Y-52443765D01*
X73590953Y-52705000D01*
X73616682Y-52966235D01*
X73660899Y-53111997D01*
X73189881Y-53583016D01*
X73177821Y-53553901D01*
X73080531Y-53408296D01*
X73021554Y-53349319D01*
X73139204Y-53183193D01*
X73236626Y-52964953D01*
X73289600Y-52731900D01*
X73289600Y-52381900D01*
X69732400Y-52381900D01*
X69732400Y-52401900D01*
X69427600Y-52401900D01*
X69427600Y-52381900D01*
X67732400Y-52381900D01*
X67732400Y-52401900D01*
X67427600Y-52401900D01*
X67427600Y-52381900D01*
X63870400Y-52381900D01*
X63870400Y-52731900D01*
X63923374Y-52964953D01*
X64020796Y-53183193D01*
X64158923Y-53378234D01*
X64332447Y-53542580D01*
X64534699Y-53669915D01*
X64741761Y-53740847D01*
X64785873Y-53713505D01*
X64845587Y-53745422D01*
X64927598Y-53770300D01*
X64927598Y-53789100D01*
X65050048Y-53789100D01*
X65080000Y-53792050D01*
X65375200Y-53789100D01*
X65426170Y-53738130D01*
X65527598Y-53703384D01*
X65527598Y-53712215D01*
X65475864Y-53732230D01*
X65420146Y-53762012D01*
X65354192Y-53988166D01*
X66080000Y-54713974D01*
X66094143Y-54699832D01*
X66309669Y-54915358D01*
X66295526Y-54929500D01*
X66309669Y-54943643D01*
X66094143Y-55159169D01*
X66080000Y-55145026D01*
X65354192Y-55870834D01*
X65420146Y-56096988D01*
X65432674Y-56102526D01*
X65317400Y-56217800D01*
X65317400Y-56997600D01*
X65337400Y-56997600D01*
X65337400Y-57302400D01*
X65317400Y-57302400D01*
X65317400Y-58082200D01*
X65469800Y-58234600D01*
X65690000Y-58237550D01*
X65809503Y-58225780D01*
X65924413Y-58190922D01*
X66030315Y-58134317D01*
X66123138Y-58058138D01*
X66198896Y-57965827D01*
X66226137Y-57988183D01*
X66351036Y-58054943D01*
X66486560Y-58096054D01*
X66627500Y-58109935D01*
X67012832Y-58109935D01*
X67470401Y-58567505D01*
X67470401Y-58610400D01*
X67427598Y-58610400D01*
X67427598Y-58633798D01*
X67404200Y-58610400D01*
X67315022Y-58623658D01*
X67201371Y-58662425D01*
X67097467Y-58722619D01*
X67083318Y-58735065D01*
X67000000Y-58735065D01*
X66952449Y-58737402D01*
X66943670Y-58738267D01*
X66850495Y-58756798D01*
X66842053Y-58759358D01*
X66754161Y-58795762D01*
X66746381Y-58799921D01*
X66667366Y-58852719D01*
X66660547Y-58858315D01*
X66593315Y-58925547D01*
X66587719Y-58932366D01*
X66534921Y-59011381D01*
X66530762Y-59019161D01*
X66494358Y-59107053D01*
X66491798Y-59115495D01*
X66473267Y-59208670D01*
X66472402Y-59217449D01*
X66470065Y-59265000D01*
X66470065Y-59485065D01*
X66250000Y-59485065D01*
X66202449Y-59487402D01*
X66193670Y-59488267D01*
X66100495Y-59506798D01*
X66092053Y-59509358D01*
X66004161Y-59545762D01*
X65996381Y-59549921D01*
X65917366Y-59602719D01*
X65910547Y-59608315D01*
X65843315Y-59675547D01*
X65837719Y-59682366D01*
X65805785Y-59730158D01*
X65791315Y-59724164D01*
X65619562Y-59690000D01*
X65444444Y-59690000D01*
X65272691Y-59724164D01*
X65110904Y-59791179D01*
X65024002Y-59849245D01*
X64937099Y-59791179D01*
X64775312Y-59724164D01*
X64603559Y-59690000D01*
X64428441Y-59690000D01*
X64363600Y-59702898D01*
X64363600Y-58771860D01*
X64366549Y-58741919D01*
X64354779Y-58622416D01*
X64319921Y-58507506D01*
X64285148Y-58442451D01*
X64263316Y-58401605D01*
X64187138Y-58308781D01*
X64163874Y-58289689D01*
X63499185Y-57625000D01*
X64027450Y-57625000D01*
X64039220Y-57744503D01*
X64074078Y-57859413D01*
X64130683Y-57965315D01*
X64206862Y-58058138D01*
X64299685Y-58134317D01*
X64405587Y-58190922D01*
X64520497Y-58225780D01*
X64640000Y-58237550D01*
X64860200Y-58234600D01*
X65012600Y-58082200D01*
X65012600Y-57302400D01*
X64182800Y-57302400D01*
X64030400Y-57454800D01*
X64027450Y-57625000D01*
X63499185Y-57625000D01*
X63249316Y-57375132D01*
X63230219Y-57351862D01*
X63137395Y-57275684D01*
X63031493Y-57219079D01*
X62916583Y-57184221D01*
X62827022Y-57175400D01*
X62797081Y-57172451D01*
X62779528Y-57174180D01*
X62708377Y-57041065D01*
X62541849Y-56838151D01*
X62343050Y-56675000D01*
X64027450Y-56675000D01*
X64030400Y-56845200D01*
X64182800Y-56997600D01*
X65012600Y-56997600D01*
X65012600Y-56217800D01*
X64860200Y-56065400D01*
X64640000Y-56062450D01*
X64520497Y-56074220D01*
X64405587Y-56109078D01*
X64299685Y-56165683D01*
X64206862Y-56241862D01*
X64130683Y-56334685D01*
X64074078Y-56440587D01*
X64039220Y-56555497D01*
X64027450Y-56675000D01*
X62343050Y-56675000D01*
X62338935Y-56671623D01*
X62107431Y-56547882D01*
X61999034Y-56515000D01*
X62107431Y-56482118D01*
X62338935Y-56358377D01*
X62541849Y-56191849D01*
X62708377Y-55988935D01*
X62832118Y-55757431D01*
X62908318Y-55506235D01*
X62934047Y-55245000D01*
X62912820Y-55029473D01*
X64742674Y-55029473D01*
X64787874Y-55288451D01*
X64882730Y-55533636D01*
X64912512Y-55589354D01*
X65138666Y-55655308D01*
X65864474Y-54929500D01*
X65138666Y-54203692D01*
X64912512Y-54269646D01*
X64806214Y-54510091D01*
X64748867Y-54766653D01*
X64742674Y-55029473D01*
X62912820Y-55029473D01*
X62908318Y-54983765D01*
X62832118Y-54732569D01*
X62708377Y-54501065D01*
X62541849Y-54298151D01*
X62338935Y-54131623D01*
X62169256Y-54040928D01*
X62240413Y-54014156D01*
X62483415Y-53863087D01*
X62692276Y-53667514D01*
X62858969Y-53434952D01*
X62977089Y-53174338D01*
X63004910Y-53082607D01*
X62893286Y-52857400D01*
X61747400Y-52857400D01*
X61747400Y-52877400D01*
X61442600Y-52877400D01*
X61442600Y-52857400D01*
X60296714Y-52857400D01*
X60185090Y-53082607D01*
X60212911Y-53174338D01*
X60331031Y-53434952D01*
X60497724Y-53667514D01*
X60706585Y-53863087D01*
X60949587Y-54014156D01*
X61020744Y-54040928D01*
X60851065Y-54131623D01*
X60648151Y-54298151D01*
X60481623Y-54501065D01*
X60357882Y-54732569D01*
X60281682Y-54983765D01*
X60255953Y-55245000D01*
X60281682Y-55506235D01*
X60325899Y-55651998D01*
X60004931Y-55972966D01*
X59981661Y-55992063D01*
X59905483Y-56084888D01*
X59856530Y-56176474D01*
X59803339Y-56111661D01*
X59693863Y-56021817D01*
X59568964Y-55955057D01*
X59433440Y-55913946D01*
X59292500Y-55900065D01*
X58817500Y-55900065D01*
X58676560Y-55913946D01*
X58541036Y-55955057D01*
X58416137Y-56021817D01*
X58306661Y-56111661D01*
X58216817Y-56221137D01*
X58213830Y-56226725D01*
X55894935Y-53907831D01*
X55894935Y-52105000D01*
X55885617Y-52010394D01*
X55858022Y-51919423D01*
X55813209Y-51835585D01*
X55752901Y-51762099D01*
X55679415Y-51701791D01*
X55595577Y-51656978D01*
X55504606Y-51629383D01*
X55410000Y-51620065D01*
X53810000Y-51620065D01*
X53715394Y-51629383D01*
X53624423Y-51656978D01*
X53540585Y-51701791D01*
X53467099Y-51762099D01*
X53406791Y-51835585D01*
X53361978Y-51919423D01*
X53334383Y-52010394D01*
X53325065Y-52105000D01*
X53325065Y-54285000D01*
X53334383Y-54379606D01*
X53361978Y-54470577D01*
X53406791Y-54554415D01*
X53467099Y-54627901D01*
X53540585Y-54688209D01*
X53624423Y-54733022D01*
X53715394Y-54760617D01*
X53810000Y-54769935D01*
X55032831Y-54769935D01*
X57582774Y-57319879D01*
X57601862Y-57343138D01*
X57694686Y-57419316D01*
X57800588Y-57475921D01*
X57915498Y-57510779D01*
X58005059Y-57519600D01*
X58005060Y-57519600D01*
X58034999Y-57522549D01*
X58064938Y-57519600D01*
X58174450Y-57519600D01*
X58216817Y-57598863D01*
X58239173Y-57626104D01*
X58146862Y-57701862D01*
X58070683Y-57794685D01*
X58014078Y-57900587D01*
X57979220Y-58015497D01*
X57967450Y-58135000D01*
X57970400Y-58355200D01*
X58122800Y-58507600D01*
X58902600Y-58507600D01*
X58902600Y-58487600D01*
X59207400Y-58487600D01*
X59207400Y-58507600D01*
X59227400Y-58507600D01*
X59227400Y-58812400D01*
X59207400Y-58812400D01*
X59207400Y-59642200D01*
X59359800Y-59794600D01*
X59530000Y-59797550D01*
X59649503Y-59785780D01*
X59764413Y-59750922D01*
X59870315Y-59694317D01*
X59963138Y-59618138D01*
X60039317Y-59525315D01*
X60095922Y-59419413D01*
X60130780Y-59304503D01*
X60142550Y-59185000D01*
X60139600Y-58964800D01*
X59987202Y-58812402D01*
X60013601Y-58812402D01*
X60371086Y-59169888D01*
X60341791Y-59205585D01*
X60296978Y-59289423D01*
X60269383Y-59380394D01*
X60260065Y-59475000D01*
X60260065Y-61175000D01*
X60269383Y-61269606D01*
X60296978Y-61360577D01*
X60341791Y-61444415D01*
X60402099Y-61517901D01*
X60475585Y-61578209D01*
X60559423Y-61623022D01*
X60650394Y-61650617D01*
X60745000Y-61659935D01*
X62445000Y-61659935D01*
X62539606Y-61650617D01*
X62630577Y-61623022D01*
X62714415Y-61578209D01*
X62739440Y-61557671D01*
X62812863Y-61647138D01*
X62836127Y-61666230D01*
X63235016Y-62065119D01*
X63205901Y-62077179D01*
X63060296Y-62174469D01*
X62979365Y-62255400D01*
X55894935Y-62255400D01*
X55894935Y-61285000D01*
X55885617Y-61190394D01*
X55858022Y-61099423D01*
X55813209Y-61015585D01*
X55752901Y-60942099D01*
X55679415Y-60881791D01*
X55595577Y-60836978D01*
X55504606Y-60809383D01*
X55410000Y-60800065D01*
X53810000Y-60800065D01*
X53715394Y-60809383D01*
X53624423Y-60836978D01*
X53540585Y-60881791D01*
X53467099Y-60942099D01*
X53406791Y-61015585D01*
X53361978Y-61099423D01*
X53334383Y-61190394D01*
X53325065Y-61285000D01*
X53325065Y-63465000D01*
X53334383Y-63559606D01*
X53361978Y-63650577D01*
X53406791Y-63734415D01*
X53467099Y-63807901D01*
X53540585Y-63868209D01*
X53624423Y-63913022D01*
X53715394Y-63940617D01*
X53810000Y-63949935D01*
X55410000Y-63949935D01*
X55504606Y-63940617D01*
X55595577Y-63913022D01*
X55679415Y-63868209D01*
X55752901Y-63807901D01*
X55813209Y-63734415D01*
X55858022Y-63650577D01*
X55885617Y-63559606D01*
X55893989Y-63474600D01*
X62979365Y-63474600D01*
X63060296Y-63555531D01*
X63205901Y-63652821D01*
X63367688Y-63719836D01*
X63539441Y-63754000D01*
X63714559Y-63754000D01*
X63886312Y-63719836D01*
X64048099Y-63652821D01*
X64193704Y-63555531D01*
X64317531Y-63431704D01*
X64414821Y-63286099D01*
X64426881Y-63256985D01*
X64606391Y-63436495D01*
X63526887Y-64516000D01*
X63412431Y-64516000D01*
X63240678Y-64550164D01*
X63078891Y-64617179D01*
X62933286Y-64714469D01*
X62894442Y-64753313D01*
X62858969Y-64675048D01*
X62692276Y-64442486D01*
X62483415Y-64246913D01*
X62240413Y-64095844D01*
X61972608Y-63995085D01*
X61747400Y-64105772D01*
X61747400Y-65252600D01*
X61767400Y-65252600D01*
X61767400Y-65557400D01*
X61747400Y-65557400D01*
X61747400Y-65577400D01*
X61442600Y-65577400D01*
X61442600Y-65557400D01*
X60296714Y-65557400D01*
X60185090Y-65782607D01*
X60212911Y-65874338D01*
X60331031Y-66134952D01*
X60497724Y-66367514D01*
X60706585Y-66563087D01*
X60949587Y-66714156D01*
X61020744Y-66740928D01*
X60851065Y-66831623D01*
X60648151Y-66998151D01*
X60481623Y-67201065D01*
X60357882Y-67432569D01*
X60281682Y-67683765D01*
X60255953Y-67945000D01*
X60281682Y-68206235D01*
X60357882Y-68457431D01*
X60481623Y-68688935D01*
X60648151Y-68891849D01*
X60851065Y-69058377D01*
X61082569Y-69182118D01*
X61190966Y-69215000D01*
X61082569Y-69247882D01*
X60851065Y-69371623D01*
X60648151Y-69538151D01*
X60481623Y-69741065D01*
X60357882Y-69972569D01*
X60281682Y-70223765D01*
X60255953Y-70485000D01*
X60281682Y-70746235D01*
X60357882Y-70997431D01*
X60481623Y-71228935D01*
X60648151Y-71431849D01*
X60851065Y-71598377D01*
X61022602Y-71690065D01*
X60745000Y-71690065D01*
X60650394Y-71699383D01*
X60559423Y-71726978D01*
X60475585Y-71771791D01*
X60402099Y-71832099D01*
X60341791Y-71905585D01*
X60296978Y-71989423D01*
X60269383Y-72080394D01*
X60260065Y-72175000D01*
X60260065Y-73875000D01*
X60269383Y-73969606D01*
X60296978Y-74060577D01*
X60341791Y-74144415D01*
X60402099Y-74217901D01*
X60475585Y-74278209D01*
X60559423Y-74323022D01*
X60650394Y-74350617D01*
X60745000Y-74359935D01*
X61692323Y-74359935D01*
X54266859Y-81785400D01*
X53432250Y-81785400D01*
X53393863Y-81692725D01*
X53231611Y-81449897D01*
X53025103Y-81243389D01*
X52782275Y-81081137D01*
X52512459Y-80969375D01*
X52226023Y-80912400D01*
X51933977Y-80912400D01*
X51647541Y-80969375D01*
X51377725Y-81081137D01*
X51307600Y-81127993D01*
X51307600Y-80162007D01*
X51377725Y-80208863D01*
X51647541Y-80320625D01*
X51933977Y-80377600D01*
X52226023Y-80377600D01*
X52512459Y-80320625D01*
X52782275Y-80208863D01*
X53025103Y-80046611D01*
X53231611Y-79840103D01*
X53393863Y-79597275D01*
X53505625Y-79327459D01*
X53562600Y-79041023D01*
X53562600Y-78748977D01*
X53505625Y-78462541D01*
X53393863Y-78192725D01*
X53231611Y-77949897D01*
X53025103Y-77743389D01*
X52782275Y-77581137D01*
X52512459Y-77469375D01*
X52226023Y-77412400D01*
X51933977Y-77412400D01*
X51647541Y-77469375D01*
X51377725Y-77581137D01*
X51307600Y-77627993D01*
X51307600Y-76263750D01*
X55847400Y-76263750D01*
X55847400Y-76526250D01*
X55898611Y-76783705D01*
X55999065Y-77026223D01*
X56144902Y-77244483D01*
X56330517Y-77430098D01*
X56548777Y-77575935D01*
X56791295Y-77676389D01*
X57048750Y-77727600D01*
X57311250Y-77727600D01*
X57568705Y-77676389D01*
X57811223Y-77575935D01*
X58029483Y-77430098D01*
X58215098Y-77244483D01*
X58360935Y-77026223D01*
X58461389Y-76783705D01*
X58512600Y-76526250D01*
X58512600Y-76263750D01*
X58461389Y-76006295D01*
X58360935Y-75763777D01*
X58215098Y-75545517D01*
X58029483Y-75359902D01*
X57811223Y-75214065D01*
X57568705Y-75113611D01*
X57311250Y-75062400D01*
X57048750Y-75062400D01*
X56791295Y-75113611D01*
X56548777Y-75214065D01*
X56330517Y-75359902D01*
X56144902Y-75545517D01*
X55999065Y-75763777D01*
X55898611Y-76006295D01*
X55847400Y-76263750D01*
X51307600Y-76263750D01*
X51307600Y-69059127D01*
X53027400Y-69059127D01*
X53027400Y-69370873D01*
X53088218Y-69676628D01*
X53207518Y-69964642D01*
X53380714Y-70223849D01*
X53601151Y-70444286D01*
X53860358Y-70617482D01*
X54148372Y-70736782D01*
X54454127Y-70797600D01*
X54765873Y-70797600D01*
X55071628Y-70736782D01*
X55359642Y-70617482D01*
X55618849Y-70444286D01*
X55839286Y-70223849D01*
X56012482Y-69964642D01*
X56131782Y-69676628D01*
X56192600Y-69370873D01*
X56192600Y-69059127D01*
X56131782Y-68753372D01*
X56012482Y-68465358D01*
X55839286Y-68206151D01*
X55618849Y-67985714D01*
X55359642Y-67812518D01*
X55071628Y-67693218D01*
X54765873Y-67632400D01*
X54454127Y-67632400D01*
X54148372Y-67693218D01*
X53860358Y-67812518D01*
X53601151Y-67985714D01*
X53380714Y-68206151D01*
X53207518Y-68465358D01*
X53088218Y-68753372D01*
X53027400Y-69059127D01*
X51307600Y-69059127D01*
X51307600Y-65027393D01*
X60185090Y-65027393D01*
X60296714Y-65252600D01*
X61442600Y-65252600D01*
X61442600Y-64105772D01*
X61217392Y-63995085D01*
X60949587Y-64095844D01*
X60706585Y-64246913D01*
X60497724Y-64442486D01*
X60331031Y-64675048D01*
X60212911Y-64935662D01*
X60185090Y-65027393D01*
X51307600Y-65027393D01*
X51307600Y-59185000D01*
X57967450Y-59185000D01*
X57979220Y-59304503D01*
X58014078Y-59419413D01*
X58070683Y-59525315D01*
X58146862Y-59618138D01*
X58239685Y-59694317D01*
X58345587Y-59750922D01*
X58460497Y-59785780D01*
X58580000Y-59797550D01*
X58750200Y-59794600D01*
X58902600Y-59642200D01*
X58902600Y-58812400D01*
X58122800Y-58812400D01*
X57970400Y-58964800D01*
X57967450Y-59185000D01*
X51307600Y-59185000D01*
X51307600Y-51307600D01*
X61184129Y-51307600D01*
X60949587Y-51395844D01*
G36*
X69978400Y-55608569D02*
G01*
X69978400Y-56061700D01*
X70130800Y-56214100D01*
X70215032Y-56201981D01*
X70329000Y-56164158D01*
X70433399Y-56104826D01*
X70434913Y-56103516D01*
X70597502Y-56175395D01*
X70145495Y-56627402D01*
X70130486Y-56599323D01*
X70089316Y-56522298D01*
X70013138Y-56429474D01*
X69989880Y-56410387D01*
X69711396Y-56131904D01*
X69781600Y-56061700D01*
X69781600Y-55936801D01*
X69833209Y-55873915D01*
X69878022Y-55790077D01*
X69905617Y-55699106D01*
X69914935Y-55604500D01*
X69914935Y-55590061D01*
X69978400Y-55608569D01*
X69978400Y-55608569D01*
G37*
X69978400Y-55608569D02*
X69978400Y-56061700D01*
X70130800Y-56214100D01*
X70215032Y-56201981D01*
X70329000Y-56164158D01*
X70433399Y-56104826D01*
X70434913Y-56103516D01*
X70597502Y-56175395D01*
X70145495Y-56627402D01*
X70130486Y-56599323D01*
X70089316Y-56522298D01*
X70013138Y-56429474D01*
X69989880Y-56410387D01*
X69711396Y-56131904D01*
X69781600Y-56061700D01*
X69781600Y-55936801D01*
X69833209Y-55873915D01*
X69878022Y-55790077D01*
X69905617Y-55699106D01*
X69914935Y-55604500D01*
X69914935Y-55590061D01*
X69978400Y-55608569D01*
G36*
X71309669Y-54915358D02*
G01*
X71295526Y-54929500D01*
X71309669Y-54943643D01*
X71094143Y-55159169D01*
X71080000Y-55145026D01*
X71065858Y-55159169D01*
X70850332Y-54943643D01*
X70864474Y-54929500D01*
X70850332Y-54915358D01*
X71065858Y-54699832D01*
X71080000Y-54713974D01*
X71094143Y-54699832D01*
X71309669Y-54915358D01*
X71309669Y-54915358D01*
G37*
X71309669Y-54915358D02*
X71295526Y-54929500D01*
X71309669Y-54943643D01*
X71094143Y-55159169D01*
X71080000Y-55145026D01*
X71065858Y-55159169D01*
X70850332Y-54943643D01*
X70864474Y-54929500D01*
X70850332Y-54915358D01*
X71065858Y-54699832D01*
X71080000Y-54713974D01*
X71094143Y-54699832D01*
X71309669Y-54915358D01*
G36*
X81215065Y-53555000D02*
G01*
X81224383Y-53649606D01*
X81251978Y-53740577D01*
X81296791Y-53824415D01*
X81357099Y-53897901D01*
X81430585Y-53958209D01*
X81514423Y-54003022D01*
X81605394Y-54030617D01*
X81700000Y-54039935D01*
X83400000Y-54039935D01*
X83494606Y-54030617D01*
X83585577Y-54003022D01*
X83669415Y-53958209D01*
X83742901Y-53897901D01*
X83803209Y-53824415D01*
X83848022Y-53740577D01*
X83875617Y-53649606D01*
X83884935Y-53555000D01*
X83884935Y-53517132D01*
X83992724Y-53667514D01*
X84201585Y-53863087D01*
X84444587Y-54014156D01*
X84515744Y-54040928D01*
X84346065Y-54131623D01*
X84143151Y-54298151D01*
X83976623Y-54501065D01*
X83904820Y-54635400D01*
X74508297Y-54635400D01*
X74559097Y-54584600D01*
X78710059Y-54584600D01*
X78740000Y-54587549D01*
X78769941Y-54584600D01*
X78859502Y-54575779D01*
X78974412Y-54540921D01*
X79080314Y-54484316D01*
X79173138Y-54408138D01*
X79192235Y-54384868D01*
X79603002Y-53974101D01*
X79748765Y-54018318D01*
X79944541Y-54037600D01*
X80075459Y-54037600D01*
X80271235Y-54018318D01*
X80522431Y-53942118D01*
X80753935Y-53818377D01*
X80956849Y-53651849D01*
X81123377Y-53448935D01*
X81215065Y-53277398D01*
X81215065Y-53555000D01*
X81215065Y-53555000D01*
G37*
X81215065Y-53555000D02*
X81224383Y-53649606D01*
X81251978Y-53740577D01*
X81296791Y-53824415D01*
X81357099Y-53897901D01*
X81430585Y-53958209D01*
X81514423Y-54003022D01*
X81605394Y-54030617D01*
X81700000Y-54039935D01*
X83400000Y-54039935D01*
X83494606Y-54030617D01*
X83585577Y-54003022D01*
X83669415Y-53958209D01*
X83742901Y-53897901D01*
X83803209Y-53824415D01*
X83848022Y-53740577D01*
X83875617Y-53649606D01*
X83884935Y-53555000D01*
X83884935Y-53517132D01*
X83992724Y-53667514D01*
X84201585Y-53863087D01*
X84444587Y-54014156D01*
X84515744Y-54040928D01*
X84346065Y-54131623D01*
X84143151Y-54298151D01*
X83976623Y-54501065D01*
X83904820Y-54635400D01*
X74508297Y-54635400D01*
X74559097Y-54584600D01*
X78710059Y-54584600D01*
X78740000Y-54587549D01*
X78769941Y-54584600D01*
X78859502Y-54575779D01*
X78974412Y-54540921D01*
X79080314Y-54484316D01*
X79173138Y-54408138D01*
X79192235Y-54384868D01*
X79603002Y-53974101D01*
X79748765Y-54018318D01*
X79944541Y-54037600D01*
X80075459Y-54037600D01*
X80271235Y-54018318D01*
X80522431Y-53942118D01*
X80753935Y-53818377D01*
X80956849Y-53651849D01*
X81123377Y-53448935D01*
X81215065Y-53277398D01*
X81215065Y-53555000D01*
G36*
X85242400Y-52552600D02*
G01*
X85262400Y-52552600D01*
X85262400Y-52857400D01*
X85242400Y-52857400D01*
X85242400Y-52877400D01*
X84937600Y-52877400D01*
X84937600Y-52857400D01*
X84917600Y-52857400D01*
X84917600Y-52552600D01*
X84937600Y-52552600D01*
X84937600Y-52532600D01*
X85242400Y-52532600D01*
X85242400Y-52552600D01*
X85242400Y-52552600D01*
G37*
X85242400Y-52552600D02*
X85262400Y-52552600D01*
X85262400Y-52857400D01*
X85242400Y-52857400D01*
X85242400Y-52877400D01*
X84937600Y-52877400D01*
X84937600Y-52857400D01*
X84917600Y-52857400D01*
X84917600Y-52552600D01*
X84937600Y-52552600D01*
X84937600Y-52532600D01*
X85242400Y-52532600D01*
X85242400Y-52552600D01*
G36*
X77622400Y-52552600D02*
G01*
X77642400Y-52552600D01*
X77642400Y-52857400D01*
X77622400Y-52857400D01*
X77622400Y-52877400D01*
X77317600Y-52877400D01*
X77317600Y-52857400D01*
X77297600Y-52857400D01*
X77297600Y-52552600D01*
X77317600Y-52552600D01*
X77317600Y-52532600D01*
X77622400Y-52532600D01*
X77622400Y-52552600D01*
X77622400Y-52552600D01*
G37*
X77622400Y-52552600D02*
X77642400Y-52552600D01*
X77642400Y-52857400D01*
X77622400Y-52857400D01*
X77622400Y-52877400D01*
X77317600Y-52877400D01*
X77317600Y-52857400D01*
X77297600Y-52857400D01*
X77297600Y-52552600D01*
X77317600Y-52552600D01*
X77317600Y-52532600D01*
X77622400Y-52532600D01*
X77622400Y-52552600D01*
M02*
